<svg id="svg" version="1.1" xmlns="http://www.w3.org/2000/svg" xmlns:xlink="http://www.w3.org/1999/xlink" width="400" height="400" viewBox="0, 0, 400,400"><g id="svgg"><path id="path0" d="M252.928 92.800 C 252.928 94.230,253.001 94.815,253.089 94.100 C 253.178 93.385,253.178 92.215,253.089 91.500 C 253.001 90.785,252.928 91.370,252.928 92.800 M157.000 95.600 L 135.800 95.811 156.876 95.905 C 170.599 95.967,178.039 95.860,178.200 95.600 C 178.336 95.380,178.392 95.243,178.324 95.295 C 178.256 95.347,168.660 95.484,157.000 95.600 M189.942 95.702 C 190.109 95.869,204.365 95.959,221.622 95.902 L 253.000 95.800 221.320 95.600 C 203.896 95.490,189.776 95.536,189.942 95.702 M129.200 107.668 C 114.335 111.768,105.143 119.982,100.850 133.002 C 99.160 138.125,99.171 137.506,99.288 219.400 L 99.400 298.200 100.685 295.600 C 103.597 289.706,103.372 294.874,103.597 228.600 C 103.747 184.492,103.920 168.792,104.263 168.200 C 104.996 166.935,106.483 165.750,107.960 165.255 C 110.639 164.358,333.433 164.649,335.400 165.552 C 337.296 166.423,338.124 167.317,338.743 169.160 C 339.078 170.155,339.200 186.824,339.200 231.339 C 339.200 290.657,339.075 297.541,337.960 299.695 C 337.762 300.077,337.600 300.831,337.600 301.371 C 337.600 301.911,337.420 302.464,337.200 302.600 C 336.980 302.736,336.800 303.109,336.800 303.428 C 336.800 309.386,324.449 321.344,315.600 323.953 C 314.610 324.245,313.350 324.690,312.800 324.942 C 312.059 325.281,284.913 325.428,207.813 325.507 C 150.620 325.566,103.679 325.761,103.501 325.939 C 102.974 326.466,107.011 332.250,109.949 335.177 C 114.178 339.389,120.810 343.480,125.200 344.585 C 125.750 344.723,127.190 345.143,128.400 345.518 C 131.288 346.413,310.477 346.589,313.500 345.700 C 314.435 345.425,315.965 344.987,316.900 344.728 C 318.597 344.256,321.526 343.096,322.955 342.330 C 328.406 339.405,331.365 336.997,335.352 332.238 C 337.675 329.464,341.114 323.477,341.177 322.095 C 341.190 321.817,341.362 321.277,341.561 320.895 C 341.973 320.102,342.537 317.992,343.191 314.800 C 343.706 312.284,343.538 140.336,343.017 137.200 C 342.853 136.210,342.556 135.229,342.359 135.020 C 342.162 134.811,342.000 134.224,342.000 133.715 C 342.000 133.206,341.836 132.477,341.636 132.095 C 341.436 131.713,340.705 130.153,340.011 128.628 C 336.008 119.838,327.354 111.985,318.600 109.198 C 317.720 108.918,316.640 108.546,316.200 108.372 C 314.196 107.577,311.146 107.462,288.500 107.326 L 264.400 107.182 264.400 115.510 L 264.400 123.838 266.025 125.419 C 268.164 127.500,269.600 130.635,269.600 133.225 C 269.600 144.363,254.131 148.156,249.005 138.275 C 246.701 133.833,248.397 126.458,252.113 124.767 C 252.994 124.366,252.999 124.309,252.885 115.782 L 252.770 107.200 221.185 107.200 L 189.600 107.200 189.600 115.736 L 189.600 124.272 190.563 124.711 C 197.138 127.706,195.516 140.318,188.160 143.391 C 177.074 148.023,167.268 131.581,177.191 125.000 L 178.398 124.200 178.399 115.700 L 178.400 107.200 154.500 107.241 C 140.510 107.265,130.020 107.442,129.200 107.668 " stroke="none" fill="#f8c956" fill-rule="evenodd"></path><path id="path1" d="M83.700 59.559 C 82.985 60.190,82.400 60.986,82.400 61.329 C 82.400 61.672,82.220 62.064,82.000 62.200 C 81.780 62.336,81.600 63.146,81.600 64.000 C 81.600 64.854,81.780 65.664,82.000 65.800 C 82.220 65.936,82.400 66.324,82.400 66.663 C 82.400 67.564,84.739 69.600,85.773 69.600 C 86.713 69.600,88.400 71.110,88.400 71.952 C 88.400 72.227,87.511 73.318,86.424 74.376 C 82.741 77.964,82.063 79.975,83.705 82.441 C 86.084 86.012,89.245 85.862,93.176 81.992 C 96.141 79.073,95.878 79.072,98.912 82.002 C 102.896 85.849,105.930 85.991,108.295 82.441 C 109.933 79.981,109.334 78.175,105.619 74.381 C 103.160 71.869,103.160 72.131,105.619 69.619 C 110.052 65.091,110.263 62.012,106.304 59.598 C 103.867 58.112,102.111 58.729,98.381 62.381 C 97.247 63.492,96.185 64.400,96.021 64.400 C 95.374 64.400,94.340 62.815,94.540 62.129 C 95.418 59.116,86.579 57.021,83.700 59.559 M256.000 79.502 C 256.000 79.669,255.460 80.044,254.800 80.336 C 254.069 80.659,253.600 81.167,253.600 81.634 C 253.600 82.055,253.403 82.400,253.163 82.400 C 252.734 82.400,252.823 85.837,253.436 92.954 C 253.614 95.026,253.540 95.792,253.137 96.048 C 252.534 96.430,190.821 96.537,189.833 96.157 C 189.305 95.955,189.197 95.107,189.183 91.057 C 189.151 82.371,188.274 80.600,184.000 80.600 C 179.729 80.600,178.826 82.386,178.810 90.857 C 178.802 95.094,178.697 95.954,178.167 96.157 C 177.819 96.291,167.223 96.400,154.620 96.400 C 129.552 96.400,127.951 96.514,121.202 98.781 C 107.758 103.296,96.334 114.345,91.197 127.800 C 90.913 128.544,90.340 130.517,89.572 133.400 C 88.459 137.578,88.400 140.553,88.400 192.643 C 88.400 240.080,88.329 246.452,87.800 246.655 C 87.274 246.857,87.200 250.720,87.200 278.071 C 87.200 311.118,87.239 310.400,85.429 310.400 C 85.083 310.400,84.800 310.547,84.800 310.728 C 84.800 310.908,83.889 311.304,82.775 311.607 C 81.661 311.910,80.660 312.303,80.551 312.479 C 80.442 312.656,79.744 312.800,79.000 312.800 C 78.256 312.800,77.536 312.980,77.400 313.200 C 77.264 313.420,76.623 313.600,75.976 313.600 C 75.329 313.600,74.800 313.780,74.800 314.000 C 74.800 314.220,74.517 314.400,74.171 314.400 C 73.363 314.400,72.400 315.363,72.400 316.171 C 72.400 316.517,72.220 316.800,72.000 316.800 C 71.767 316.800,71.600 318.133,71.600 320.000 C 71.600 321.867,71.767 323.200,72.000 323.200 C 72.220 323.200,72.400 323.455,72.400 323.766 C 72.400 324.078,72.940 324.572,73.600 324.864 C 74.260 325.156,74.800 325.531,74.800 325.698 C 74.800 325.864,78.245 326.000,82.456 326.000 C 90.753 326.000,91.156 326.106,91.187 328.300 C 91.194 328.795,91.380 329.200,91.600 329.200 C 91.820 329.200,92.000 329.476,92.000 329.813 C 92.000 330.427,93.886 334.423,94.353 334.800 C 94.490 334.910,94.856 335.495,95.168 336.100 C 95.480 336.705,95.885 337.200,96.068 337.200 C 96.250 337.200,96.401 337.425,96.402 337.700 C 96.406 338.453,102.971 345.600,103.659 345.600 C 103.881 345.600,104.754 346.320,105.600 347.200 C 106.446 348.080,107.382 348.800,107.680 348.800 C 107.979 348.800,108.483 349.160,108.800 349.600 C 109.117 350.040,109.607 350.400,109.888 350.400 C 110.170 350.400,110.400 350.580,110.400 350.800 C 110.400 351.020,110.655 351.200,110.967 351.200 C 111.278 351.200,111.593 351.335,111.667 351.500 C 111.887 351.995,116.854 354.400,117.656 354.400 C 118.065 354.400,118.400 354.541,118.400 354.713 C 118.400 354.885,119.255 355.260,120.300 355.546 C 121.345 355.833,122.560 356.218,123.000 356.403 C 124.127 356.877,125.766 357.206,129.000 357.605 C 133.002 358.099,310.282 358.060,313.800 357.564 C 319.076 356.821,319.605 356.715,319.826 356.358 C 319.948 356.161,320.476 356.000,321.000 356.000 C 321.524 356.000,322.064 355.820,322.200 355.600 C 322.336 355.380,322.887 355.200,323.424 355.200 C 323.961 355.200,324.400 355.020,324.400 354.800 C 324.400 354.580,324.760 354.400,325.200 354.400 C 325.640 354.400,326.000 354.220,326.000 354.000 C 326.000 353.780,326.212 353.600,326.472 353.600 C 327.227 353.600,330.800 351.890,330.800 351.529 C 330.800 351.348,331.160 351.200,331.600 351.200 C 332.040 351.200,332.400 351.050,332.400 350.868 C 332.400 350.685,332.895 350.281,333.500 349.970 C 334.105 349.660,334.891 349.089,335.247 348.703 C 335.603 348.316,336.082 348.000,336.312 348.000 C 336.542 348.000,337.830 346.875,339.173 345.500 C 340.517 344.125,342.333 342.280,343.208 341.400 C 344.084 340.520,344.800 339.647,344.800 339.460 C 344.800 339.274,345.340 338.617,346.000 338.000 C 346.660 337.383,347.200 336.674,347.200 336.423 C 347.200 336.172,347.560 335.580,348.000 335.108 C 348.440 334.636,348.800 334.013,348.800 333.725 C 348.800 333.436,348.980 333.200,349.200 333.200 C 349.420 333.200,349.600 332.840,349.600 332.400 C 349.600 331.960,349.780 331.600,350.000 331.600 C 350.220 331.600,350.400 331.240,350.400 330.800 C 350.400 330.360,350.580 330.000,350.800 330.000 C 351.020 330.000,351.200 329.640,351.200 329.200 C 351.200 328.760,351.380 328.400,351.600 328.400 C 351.820 328.400,352.000 327.986,352.000 327.480 C 352.000 326.974,352.149 326.389,352.330 326.180 C 352.512 325.971,352.890 324.990,353.169 324.000 C 353.449 323.010,353.840 321.887,354.039 321.505 C 354.238 321.123,354.400 320.088,354.400 319.205 C 354.400 318.322,354.580 317.600,354.800 317.600 C 355.065 317.600,355.200 287.000,355.200 226.600 C 355.200 166.200,355.065 135.600,354.800 135.600 C 354.580 135.600,354.400 134.801,354.400 133.824 C 354.400 132.847,354.220 131.936,354.000 131.800 C 353.780 131.664,353.600 131.023,353.600 130.376 C 353.600 129.729,353.420 129.200,353.200 129.200 C 352.980 129.200,352.800 128.761,352.800 128.224 C 352.800 127.687,352.620 127.136,352.400 127.000 C 352.180 126.864,352.000 126.313,352.000 125.776 C 352.000 125.239,351.820 124.800,351.600 124.800 C 351.380 124.800,351.200 124.440,351.200 124.000 C 351.200 123.560,351.020 123.200,350.800 123.200 C 350.580 123.200,350.400 122.840,350.400 122.400 C 350.400 121.960,350.220 121.600,350.000 121.600 C 349.780 121.600,349.600 121.280,349.600 120.888 C 349.600 120.497,349.240 119.917,348.800 119.600 C 348.360 119.283,348.000 118.703,348.000 118.312 C 348.000 117.920,347.820 117.600,347.600 117.600 C 347.380 117.600,347.200 117.357,347.200 117.059 C 347.200 116.762,346.660 115.954,346.000 115.263 C 345.340 114.572,344.800 113.815,344.800 113.580 C 344.800 113.345,344.620 113.264,344.400 113.400 C 344.180 113.536,344.000 113.347,344.000 112.980 C 344.000 112.287,337.853 106.000,337.176 106.000 C 336.965 106.000,336.228 105.460,335.537 104.800 C 334.846 104.140,334.038 103.600,333.741 103.600 C 333.443 103.600,333.200 103.420,333.200 103.200 C 333.200 102.980,332.880 102.800,332.488 102.800 C 332.097 102.800,331.517 102.440,331.200 102.000 C 330.883 101.560,330.303 101.200,329.912 101.200 C 329.520 101.200,329.200 101.020,329.200 100.800 C 329.200 100.580,328.840 100.400,328.400 100.400 C 327.960 100.400,327.600 100.220,327.600 100.000 C 327.600 99.780,327.240 99.600,326.800 99.600 C 326.360 99.600,326.000 99.420,326.000 99.200 C 326.000 98.980,325.638 98.800,325.195 98.800 C 324.417 98.800,324.031 98.658,322.105 97.662 C 321.613 97.408,320.758 97.200,320.205 97.200 C 319.652 97.200,319.200 97.020,319.200 96.800 C 319.200 96.580,318.516 96.400,317.680 96.400 C 316.844 96.400,315.989 96.230,315.780 96.022 C 315.571 95.814,313.915 95.609,312.100 95.566 C 310.285 95.523,308.800 95.333,308.800 95.144 C 308.800 94.955,298.810 94.800,286.600 94.800 L 264.400 94.800 264.400 88.795 C 264.400 82.901,264.229 81.937,262.929 80.515 C 262.669 80.232,262.174 80.000,261.829 80.000 C 261.483 80.000,261.200 79.820,261.200 79.600 C 261.200 79.374,260.067 79.200,258.600 79.200 C 257.170 79.200,256.000 79.336,256.000 79.502 M178.904 120.800 C 179.265 137.643,179.414 138.152,184.000 138.152 C 188.586 138.152,188.735 137.643,189.096 120.800 L 189.400 106.600 221.175 106.498 C 246.330 106.416,253.016 106.500,253.269 106.898 C 253.444 107.174,253.601 113.340,253.616 120.600 C 253.652 137.154,253.948 138.154,258.796 138.154 C 263.522 138.154,264.000 136.431,264.000 119.393 L 264.000 106.340 288.100 106.515 C 313.495 106.699,313.002 106.665,318.600 108.603 C 331.211 112.967,340.828 124.106,343.567 137.520 C 344.303 141.122,344.164 312.770,343.422 316.295 C 340.452 330.415,329.796 341.752,315.800 345.684 L 312.600 346.583 222.685 346.697 C 135.413 346.807,132.660 346.788,129.018 346.044 C 123.128 344.841,116.348 341.622,112.415 338.162 C 111.857 337.671,111.001 336.938,110.514 336.534 C 108.864 335.167,104.407 329.471,103.390 327.430 L 102.379 325.400 206.489 325.181 L 310.600 324.963 313.533 324.070 C 325.666 320.379,333.620 312.541,337.312 300.638 L 338.192 297.800 338.295 233.600 C 338.407 163.615,338.562 168.215,336.035 166.512 L 334.682 165.600 221.303 165.600 C 93.917 165.600,106.409 165.276,104.792 168.618 C 104.014 170.224,104.000 171.280,104.000 228.780 C 104.000 269.377,103.868 287.812,103.568 288.954 C 102.522 292.943,102.147 293.976,100.684 296.900 C 99.831 298.605,98.968 300.000,98.767 300.000 C 98.084 300.000,98.311 142.386,98.999 138.494 C 100.979 127.304,107.768 117.213,116.806 112.030 C 126.232 106.624,126.993 106.519,156.600 106.566 L 178.600 106.600 178.904 120.800 M53.024 111.724 C 51.447 112.691,50.400 113.991,50.400 114.982 C 50.400 115.542,50.220 116.000,50.000 116.000 C 49.438 116.000,49.525 118.474,50.113 119.211 C 51.163 120.526,54.556 122.400,55.888 122.400 C 62.176 122.400,62.736 113.099,56.485 112.499 C 55.082 112.364,54.400 112.119,54.400 111.749 C 54.400 111.092,54.063 111.086,53.024 111.724 M328.323 234.200 C 328.448 293.055,328.399 295.555,327.050 299.235 C 326.144 301.709,325.016 304.000,324.706 304.000 C 324.538 304.000,324.400 304.246,324.400 304.547 C 324.400 306.735,315.770 312.941,310.999 314.184 C 308.241 314.902,100.400 315.148,100.400 314.433 C 100.400 314.231,101.075 313.356,101.900 312.488 C 105.318 308.895,106.926 306.837,108.431 304.129 C 110.753 299.949,111.960 297.154,112.721 294.200 C 112.947 293.320,113.366 291.880,113.652 291.000 C 114.066 289.726,114.196 277.907,114.291 233.000 C 114.357 201.980,114.493 176.375,114.593 176.099 C 114.739 175.700,136.324 175.619,221.488 175.699 L 328.200 175.800 328.323 234.200 M149.679 198.269 C 147.877 199.157,147.274 200.525,146.953 204.455 C 146.610 208.658,147.252 208.387,137.660 208.394 C 128.759 208.401,127.434 208.669,126.358 210.679 C 125.897 211.540,125.800 216.224,125.800 237.561 C 125.800 269.647,124.413 266.400,138.121 266.400 L 146.682 266.400 146.920 270.076 C 147.368 276.988,147.686 277.133,162.481 277.171 C 179.264 277.213,178.124 278.282,178.400 262.239 L 178.600 250.600 218.600 250.600 L 258.600 250.600 258.800 262.019 C 259.083 278.204,258.038 277.196,274.546 277.199 C 289.564 277.200,290.258 276.878,290.493 269.800 L 290.600 266.600 299.400 266.400 C 312.991 266.091,311.602 269.424,311.591 237.138 C 311.583 213.342,311.530 211.338,310.891 210.583 C 309.242 208.632,309.128 208.610,299.640 208.400 L 290.600 208.200 290.400 204.579 C 290.021 197.709,289.773 197.600,274.573 197.600 C 257.985 197.600,259.085 196.539,258.800 212.800 L 258.600 224.200 218.600 224.200 L 178.600 224.200 178.400 212.390 L 178.200 200.579 177.200 199.512 C 175.513 197.712,174.644 197.599,162.474 197.609 C 152.696 197.617,150.805 197.714,149.679 198.269 M258.619 235.332 C 258.747 235.845,258.796 237.060,258.726 238.032 L 258.600 239.800 218.800 239.800 L 179.000 239.800 178.877 237.648 C 178.810 236.464,178.849 235.249,178.965 234.948 C 179.141 234.489,185.626 234.400,218.780 234.400 L 258.385 234.400 258.619 235.332 M170.338 289.302 C 167.533 291.673,167.730 295.443,170.765 297.488 C 175.733 300.836,181.156 293.664,176.621 289.744 C 174.661 288.049,172.038 287.865,170.338 289.302 M191.379 289.744 C 187.988 292.674,190.199 298.400,194.721 298.400 C 197.186 298.400,199.582 295.882,199.594 293.280 C 199.614 288.866,194.795 286.791,191.379 289.744 M212.613 289.813 C 208.706 293.720,213.359 300.591,218.090 297.900 C 222.760 295.244,221.255 288.400,216.000 288.400 C 214.275 288.400,213.849 288.578,212.613 289.813 M234.338 289.302 C 231.533 291.673,231.730 295.443,234.765 297.488 C 239.740 300.841,245.134 293.645,240.590 289.717 C 238.661 288.050,236.026 287.875,234.338 289.302 M255.379 289.744 C 252.041 292.629,254.192 298.400,258.606 298.400 C 260.647 298.400,263.006 296.595,263.418 294.718 C 264.533 289.639,259.269 286.381,255.379 289.744 " stroke="none" fill="#4f2821" fill-rule="evenodd"></path><path id="path2" d="M264.400 129.820 C 264.400 136.027,263.879 137.271,260.681 138.700 C 256.022 140.782,252.800 137.148,252.800 129.812 C 252.800 124.551,252.640 124.365,250.511 127.148 C 244.107 135.521,253.218 146.943,262.889 142.666 C 269.414 139.780,270.898 130.935,265.726 125.762 C 265.197 125.233,264.682 124.800,264.582 124.800 C 264.482 124.800,264.400 127.059,264.400 129.820 M176.950 125.921 C 171.756 130.072,173.029 139.569,179.161 142.412 C 179.732 142.677,180.513 143.052,180.895 143.247 C 181.277 143.441,182.674 143.600,184.000 143.600 C 185.326 143.600,186.723 143.441,187.105 143.247 C 187.487 143.052,188.268 142.677,188.839 142.412 C 194.517 139.779,196.025 132.590,192.075 126.985 C 190.240 124.382,190.001 124.648,189.994 129.300 C 189.983 136.731,187.058 140.437,182.476 138.824 C 179.058 137.621,178.323 136.151,178.024 129.921 L 177.800 125.242 176.950 125.921 M115.072 232.299 C 114.975 271.095,114.797 288.812,114.491 290.200 C 114.248 291.300,113.935 292.740,113.795 293.400 C 113.654 294.060,113.391 294.960,113.209 295.400 C 113.027 295.840,112.470 297.280,111.971 298.600 C 111.472 299.920,110.773 301.450,110.417 302.000 C 110.062 302.550,109.508 303.540,109.186 304.200 C 108.864 304.860,108.285 305.749,107.900 306.175 C 107.515 306.602,107.200 307.098,107.200 307.279 C 107.200 307.627,106.106 308.956,103.245 312.082 L 101.491 314.000 205.279 314.000 L 309.068 314.000 311.629 313.159 C 318.191 311.005,322.785 307.038,325.477 301.200 C 327.489 296.837,327.400 299.853,327.400 236.200 L 327.400 176.600 221.305 176.499 L 115.211 176.399 115.072 232.299 M175.800 197.600 C 179.042 199.169,179.200 199.865,179.200 212.554 L 179.200 223.600 218.800 223.600 L 258.400 223.600 258.400 212.138 L 258.400 200.676 259.453 199.295 C 261.276 196.905,261.914 196.800,274.600 196.800 C 289.982 196.800,290.800 197.156,290.800 203.855 L 290.800 207.600 299.339 207.600 C 313.749 207.600,312.800 205.492,312.800 237.517 C 312.800 269.061,313.754 266.883,299.800 267.200 L 291.000 267.400 290.884 270.916 C 290.769 274.420,290.763 274.437,289.184 276.016 L 287.600 277.600 274.600 277.600 C 267.450 277.600,261.600 277.463,261.600 277.295 C 261.600 277.127,261.195 276.812,260.700 276.595 C 260.205 276.378,259.622 275.795,259.405 275.300 C 259.188 274.805,258.873 274.400,258.705 274.400 C 258.537 274.400,258.400 269.180,258.400 262.800 L 258.400 251.200 218.800 251.200 L 179.200 251.200 179.200 262.139 C 179.200 274.245,179.118 274.706,176.631 276.603 L 175.324 277.600 162.476 277.600 L 149.627 277.600 148.298 276.271 C 146.729 274.703,146.000 272.548,146.000 269.482 L 146.000 267.256 137.300 267.128 C 123.638 266.927,124.800 269.711,124.800 237.186 C 124.800 220.858,124.940 211.961,125.200 211.800 C 125.420 211.664,125.600 211.285,125.600 210.958 C 125.600 210.305,126.952 208.882,128.317 208.100 C 128.939 207.744,131.602 207.600,137.595 207.600 L 146.000 207.600 146.000 205.060 C 146.000 200.938,147.192 198.524,149.800 197.365 C 151.994 196.389,173.705 196.586,175.800 197.600 M176.810 288.807 C 181.242 291.963,178.944 298.862,173.433 298.942 C 167.918 299.022,165.542 292.718,169.662 288.940 C 171.354 287.389,174.730 287.326,176.810 288.807 M198.315 288.903 C 202.444 292.759,200.106 299.022,194.567 298.942 C 188.031 298.847,186.722 289.602,193.000 287.873 C 194.550 287.446,197.333 287.985,198.315 288.903 M217.552 287.850 C 223.812 289.102,222.436 298.954,216.000 298.954 C 212.607 298.954,208.920 294.621,210.356 292.321 C 210.600 291.930,210.800 291.352,210.800 291.036 C 210.800 289.000,214.522 287.244,217.552 287.850 M240.810 288.807 C 245.220 291.947,242.916 298.863,237.433 298.942 C 231.918 299.022,229.542 292.718,233.662 288.940 C 235.354 287.389,238.730 287.326,240.810 288.807 M262.900 289.644 C 266.262 293.363,263.769 298.954,258.748 298.954 C 256.277 298.954,254.964 298.222,253.767 296.180 C 250.258 290.192,258.235 284.483,262.900 289.644 " stroke="none" fill="#fbfbfb" fill-rule="evenodd"></path><path id="path3" d="M151.911 42.222 C 151.789 42.344,150.274 42.513,148.545 42.597 C 146.815 42.682,144.050 42.948,142.400 43.190 C 140.750 43.432,138.590 43.732,137.600 43.858 C 136.610 43.983,135.596 44.251,135.346 44.453 C 135.097 44.655,134.234 44.846,133.430 44.876 C 132.625 44.906,131.873 45.081,131.760 45.265 C 131.646 45.449,131.034 45.600,130.400 45.600 C 129.766 45.600,129.136 45.780,129.000 46.000 C 128.864 46.220,128.223 46.400,127.576 46.400 C 126.929 46.400,126.400 46.580,126.400 46.800 C 126.400 47.020,125.860 47.200,125.200 47.200 C 124.540 47.200,124.000 47.380,124.000 47.600 C 124.000 47.820,123.460 48.000,122.800 48.000 C 122.140 48.000,121.600 48.180,121.600 48.400 C 121.600 48.620,121.060 48.800,120.400 48.800 C 119.740 48.800,119.200 48.980,119.200 49.200 C 119.200 49.420,118.928 49.600,118.595 49.600 C 118.262 49.600,117.677 49.759,117.295 49.953 C 116.913 50.148,116.150 50.482,115.600 50.697 C 115.050 50.911,113.818 51.472,112.862 51.943 C 111.906 52.414,110.871 52.800,110.562 52.800 C 110.253 52.800,110.000 52.980,110.000 53.200 C 110.000 53.420,109.640 53.600,109.200 53.600 C 108.760 53.600,108.399 53.735,108.397 53.900 C 108.393 54.259,106.456 55.200,105.720 55.200 C 105.434 55.200,105.200 55.380,105.200 55.600 C 105.200 55.820,104.964 56.000,104.675 56.000 C 104.387 56.000,103.764 56.360,103.292 56.800 C 102.820 57.240,102.156 57.600,101.817 57.600 C 101.478 57.600,101.200 57.780,101.200 58.000 C 101.200 58.220,100.840 58.400,100.400 58.400 C 99.960 58.400,99.600 58.547,99.600 58.726 C 99.600 58.905,99.015 59.364,98.300 59.746 C 95.171 61.417,94.801 61.669,94.813 62.122 C 94.871 64.304,95.977 64.165,98.392 61.673 C 99.711 60.313,100.972 59.200,101.195 59.200 C 101.418 59.200,101.600 59.020,101.600 58.800 C 101.600 57.431,106.047 58.426,107.811 60.189 C 110.715 63.094,110.495 64.988,106.785 68.988 L 103.971 72.024 105.896 73.912 C 110.035 77.970,110.700 80.484,108.379 83.299 C 105.713 86.534,102.499 86.252,98.493 82.431 L 95.986 80.041 93.339 82.586 C 85.814 89.821,78.201 82.164,85.436 74.638 L 88.004 71.967 87.020 70.984 C 85.215 69.179,84.407 69.626,78.230 75.852 C 74.260 79.853,70.811 83.657,70.299 84.600 C 70.060 85.040,69.571 85.670,69.213 86.000 C 68.855 86.330,68.127 87.230,67.594 88.000 C 67.062 88.770,66.395 89.638,66.113 89.929 C 65.831 90.219,65.600 90.611,65.600 90.800 C 65.600 90.989,65.366 91.381,65.081 91.671 C 64.390 92.375,62.289 95.460,61.314 97.202 C 60.884 97.971,60.052 99.461,59.466 100.514 C 58.880 101.567,58.400 102.677,58.400 102.981 C 58.400 103.285,58.265 103.593,58.100 103.667 C 57.668 103.859,56.000 107.172,56.000 107.838 C 56.000 108.147,55.865 108.401,55.700 108.403 C 55.341 108.407,54.400 110.344,54.400 111.080 C 54.400 111.386,54.873 111.600,55.551 111.600 C 61.618 111.600,63.817 119.534,58.526 122.337 C 56.611 123.352,52.980 122.663,51.622 121.026 C 50.916 120.175,50.400 120.239,50.400 121.176 C 50.400 121.603,50.220 122.064,50.000 122.200 C 49.780 122.336,49.600 122.977,49.600 123.624 C 49.600 124.271,49.420 124.800,49.200 124.800 C 48.980 124.800,48.800 125.329,48.800 125.976 C 48.800 126.623,48.620 127.264,48.400 127.400 C 48.180 127.536,48.000 128.256,48.000 129.000 C 48.000 129.744,47.820 130.464,47.600 130.600 C 47.380 130.736,47.200 131.647,47.200 132.624 C 47.200 133.601,47.020 134.400,46.800 134.400 C 46.580 134.400,46.400 135.264,46.400 136.320 C 46.400 137.376,46.235 138.411,46.032 138.620 C 45.376 139.298,45.126 144.358,45.116 157.200 C 45.106 168.997,45.302 172.198,46.399 178.200 C 46.640 179.520,46.937 181.365,47.059 182.300 C 47.181 183.235,47.442 184.000,47.640 184.000 C 47.838 184.000,48.000 184.720,48.000 185.600 C 48.000 186.480,48.180 187.200,48.400 187.200 C 48.620 187.200,48.800 187.830,48.800 188.600 C 48.800 189.370,48.980 190.000,49.200 190.000 C 49.420 190.000,49.600 190.540,49.600 191.200 C 49.600 191.860,49.780 192.400,50.000 192.400 C 50.220 192.400,50.400 192.940,50.400 193.600 C 50.400 194.260,50.580 194.800,50.800 194.800 C 51.020 194.800,51.200 195.340,51.200 196.000 C 51.200 196.660,51.380 197.200,51.600 197.200 C 51.820 197.200,52.000 197.639,52.000 198.176 C 52.000 198.713,52.180 199.264,52.400 199.400 C 52.620 199.536,52.800 199.997,52.800 200.424 C 52.800 200.851,52.980 201.200,53.200 201.200 C 53.420 201.200,53.600 201.650,53.600 202.200 C 53.600 202.750,53.780 203.200,54.000 203.200 C 54.220 203.200,54.400 203.560,54.400 204.000 C 54.400 204.440,54.580 204.800,54.800 204.800 C 55.020 204.800,55.200 205.034,55.200 205.320 C 55.200 206.056,56.141 207.993,56.500 207.997 C 56.665 207.999,56.800 208.360,56.800 208.800 C 56.800 209.240,56.980 209.600,57.200 209.600 C 57.420 209.600,57.600 209.960,57.600 210.400 C 57.600 210.840,57.780 211.200,58.000 211.200 C 58.220 211.200,58.400 211.560,58.400 212.000 C 58.400 212.440,58.580 212.800,58.800 212.800 C 59.020 212.800,59.200 213.074,59.200 213.408 C 59.200 213.742,59.650 214.729,60.200 215.600 C 60.750 216.471,61.200 217.346,61.200 217.543 C 61.200 217.741,61.473 218.129,61.807 218.406 C 62.141 218.683,62.681 219.470,63.007 220.155 C 63.333 220.840,64.140 222.030,64.799 222.800 C 65.459 223.570,65.999 224.337,65.999 224.504 C 66.000 224.671,66.540 225.372,67.200 226.063 C 67.860 226.754,68.400 227.490,68.400 227.699 C 68.400 227.908,68.902 228.556,69.515 229.140 C 70.129 229.723,71.061 230.830,71.586 231.600 C 73.206 233.976,86.070 246.445,86.763 246.312 C 87.340 246.201,87.421 241.104,87.624 191.795 C 87.796 150.199,87.966 136.976,88.347 135.600 C 88.621 134.610,89.036 133.080,89.269 132.200 C 90.894 126.065,94.283 119.302,98.164 114.453 C 103.979 107.186,109.761 102.930,119.400 98.822 C 120.546 98.333,122.354 97.755,124.200 97.287 C 125.080 97.064,126.700 96.654,127.800 96.376 C 129.244 96.012,136.531 95.806,154.000 95.636 L 178.200 95.400 178.408 89.400 C 178.659 82.163,179.086 81.174,182.476 79.977 C 187.108 78.343,189.332 81.273,189.600 89.368 L 189.800 95.400 221.300 95.502 L 252.800 95.605 252.800 91.891 C 252.800 88.635,252.701 88.105,252.000 87.600 C 251.560 87.283,251.200 86.779,251.200 86.480 C 251.200 86.182,250.480 85.246,249.600 84.400 C 248.720 83.554,248.000 82.669,248.000 82.431 C 248.000 82.194,247.820 82.000,247.600 82.000 C 247.380 82.000,247.200 81.819,247.200 81.597 C 247.200 81.115,237.107 71.030,235.194 69.600 C 234.458 69.050,233.264 68.015,232.541 67.300 C 231.818 66.585,231.067 66.000,230.873 66.000 C 230.678 66.000,229.954 65.460,229.263 64.800 C 228.572 64.140,227.817 63.600,227.585 63.600 C 227.353 63.600,226.714 63.150,226.164 62.600 C 225.614 62.050,225.005 61.600,224.810 61.600 C 224.616 61.600,224.219 61.364,223.929 61.076 C 223.638 60.788,222.410 60.023,221.200 59.376 C 219.990 58.729,218.940 58.065,218.867 57.900 C 218.793 57.735,218.478 57.600,218.167 57.600 C 217.855 57.600,217.600 57.420,217.600 57.200 C 217.600 56.980,217.240 56.800,216.800 56.800 C 216.360 56.800,216.000 56.620,216.000 56.400 C 216.000 56.180,215.640 56.000,215.200 56.000 C 214.760 56.000,214.399 55.865,214.397 55.700 C 214.393 55.341,212.456 54.400,211.720 54.400 C 211.434 54.400,211.199 54.265,211.197 54.100 C 211.193 53.741,209.256 52.800,208.520 52.800 C 208.234 52.800,208.000 52.620,208.000 52.400 C 208.000 52.180,207.640 52.000,207.200 52.000 C 206.760 52.000,206.400 51.820,206.400 51.600 C 206.400 51.380,206.040 51.200,205.600 51.200 C 205.160 51.200,204.800 51.020,204.800 50.800 C 204.800 50.580,204.350 50.400,203.800 50.400 C 203.250 50.400,202.800 50.220,202.800 50.000 C 202.800 49.780,202.451 49.600,202.024 49.600 C 201.597 49.600,201.136 49.420,201.000 49.200 C 200.864 48.980,200.324 48.800,199.800 48.800 C 199.276 48.800,198.736 48.620,198.600 48.400 C 198.464 48.180,197.823 48.000,197.176 48.000 C 196.529 48.000,196.000 47.820,196.000 47.600 C 196.000 47.380,195.561 47.200,195.024 47.200 C 194.487 47.200,193.936 47.020,193.800 46.800 C 193.664 46.580,192.933 46.400,192.176 46.400 C 191.419 46.400,190.800 46.259,190.800 46.087 C 190.800 45.915,190.340 45.736,189.779 45.690 C 189.217 45.643,188.419 45.424,188.005 45.203 C 187.591 44.981,186.711 44.800,186.050 44.800 C 185.388 44.800,184.750 44.643,184.631 44.450 C 184.512 44.258,183.466 43.991,182.307 43.857 C 181.148 43.724,179.030 43.426,177.600 43.195 C 171.503 42.213,152.635 41.498,151.911 42.222 M264.275 124.259 C 264.124 124.410,263.999 126.888,263.999 129.767 C 263.997 134.278,263.888 135.179,263.204 136.300 C 262.250 137.866,262.487 138.048,263.491 136.520 C 264.050 135.669,264.242 134.296,264.400 130.036 L 264.600 124.632 265.644 125.678 C 270.898 130.943,269.469 139.756,262.889 142.666 C 253.218 146.943,244.107 135.521,250.511 127.148 C 252.640 124.365,252.800 124.551,252.800 129.812 C 252.800 134.863,253.402 136.803,255.330 137.973 C 256.072 138.422,256.045 138.331,255.149 137.350 C 253.376 135.410,253.200 134.695,253.200 129.426 C 253.200 124.114,253.119 123.919,251.454 125.229 C 247.934 127.998,246.812 134.047,249.027 138.316 C 252.578 145.161,262.573 146.033,267.198 139.902 C 270.703 135.257,270.268 129.546,266.100 125.492 C 265.247 124.662,264.426 124.107,264.275 124.259 M176.329 125.754 C 169.506 132.380,174.391 144.000,184.000 144.000 C 193.584 144.000,198.386 132.755,191.788 125.760 C 189.856 123.711,189.600 123.944,189.600 127.744 C 189.600 129.583,189.495 131.968,189.367 133.044 C 189.195 134.489,189.246 134.843,189.561 134.400 C 189.799 134.066,189.990 131.895,189.994 129.500 C 190.001 124.638,190.227 124.364,192.075 126.985 C 196.025 132.590,194.517 139.779,188.839 142.412 C 188.268 142.677,187.487 143.052,187.105 143.247 C 186.723 143.441,185.326 143.600,184.000 143.600 C 182.674 143.600,181.277 143.441,180.895 143.247 C 180.513 143.052,179.732 142.677,179.161 142.412 C 173.769 139.912,172.062 133.050,175.477 127.600 C 177.519 124.342,177.997 124.697,178.028 129.497 C 178.044 131.863,178.211 134.160,178.400 134.600 C 178.794 135.518,178.950 126.056,178.557 125.033 C 178.210 124.129,177.898 124.230,176.329 125.754 M178.800 135.914 C 178.800 136.337,181.140 138.602,181.338 138.371 C 181.418 138.277,180.880 137.610,180.142 136.889 C 179.404 136.167,178.800 135.729,178.800 135.914 M187.689 137.058 C 186.967 137.796,186.529 138.400,186.714 138.400 C 187.137 138.400,189.402 136.060,189.171 135.862 C 189.077 135.782,188.410 136.320,187.689 137.058 M182.501 138.871 C 182.775 139.045,183.450 139.188,184.000 139.188 C 184.550 139.188,185.225 139.045,185.499 138.871 C 185.783 138.691,185.136 138.554,184.000 138.554 C 182.864 138.554,182.217 138.691,182.501 138.871 M257.062 138.900 C 257.308 139.299,259.665 139.273,260.309 138.864 C 260.605 138.677,259.993 138.553,258.848 138.571 C 257.764 138.587,256.960 138.735,257.062 138.900 M114.990 176.499 C 114.888 176.775,114.759 202.166,114.702 232.924 C 114.646 263.683,114.717 288.433,114.860 287.924 C 115.003 287.416,115.138 262.115,115.160 231.699 L 115.200 176.399 221.300 176.499 L 327.400 176.600 327.400 236.303 C 327.400 269.139,327.536 295.481,327.701 294.842 C 327.867 294.202,327.957 267.245,327.901 234.939 L 327.800 176.200 221.488 176.099 C 136.646 176.019,115.138 176.100,114.990 176.499 M150.000 197.248 C 148.903 197.685,146.800 199.551,146.800 200.088 C 146.800 200.274,147.424 199.803,148.187 199.040 C 150.028 197.198,150.739 197.120,164.288 197.273 C 170.497 197.343,175.267 197.278,174.888 197.128 C 173.787 196.693,151.122 196.802,150.000 197.248 M261.800 197.361 C 261.140 197.652,260.240 198.314,259.800 198.831 C 259.088 199.669,259.143 199.656,260.302 198.710 C 262.098 197.245,263.406 197.128,276.288 197.273 C 282.497 197.343,287.267 197.278,286.888 197.128 C 285.511 196.584,263.089 196.792,261.800 197.361 M177.102 198.949 C 177.816 199.762,178.438 200.467,178.485 200.514 C 178.531 200.561,178.666 205.820,178.785 212.200 L 179.000 223.800 218.800 223.803 L 258.600 223.806 218.900 223.701 L 179.200 223.596 179.200 212.553 C 179.200 200.541,179.015 199.476,176.672 198.013 C 176.060 197.630,176.187 197.907,177.102 198.949 M288.846 198.606 C 289.422 199.263,290.092 200.160,290.334 200.600 C 290.638 201.150,290.775 201.212,290.775 200.800 C 290.774 200.096,290.172 199.307,288.793 198.206 C 287.807 197.418,287.807 197.420,288.846 198.606 M146.305 201.600 C 146.143 202.150,146.008 203.725,146.005 205.100 L 146.000 207.600 137.424 207.600 C 131.307 207.600,128.764 207.734,128.558 208.068 C 128.361 208.387,128.491 208.451,128.967 208.268 C 129.351 208.121,133.296 207.997,137.733 207.994 C 147.421 207.987,146.866 208.235,146.717 203.966 C 146.639 201.727,146.501 200.935,146.305 201.600 M294.000 207.877 C 301.379 208.163,308.709 208.174,308.539 207.900 C 308.437 207.735,304.448 207.636,299.676 207.680 C 294.904 207.725,292.350 207.813,294.000 207.877 M309.727 208.847 C 310.127 209.080,310.802 209.839,311.226 210.535 C 311.654 211.237,311.998 211.522,311.999 211.175 C 312.000 210.501,310.000 208.392,309.378 208.412 C 309.170 208.419,309.327 208.615,309.727 208.847 M125.067 211.867 C 124.696 212.237,124.729 262.709,125.100 262.938 C 125.265 263.040,125.400 251.531,125.400 237.362 C 125.400 223.193,125.385 211.600,125.367 211.600 C 125.348 211.600,125.213 211.720,125.067 211.867 M312.068 237.200 C 312.061 251.706,312.204 262.257,312.400 261.800 C 312.834 260.791,312.834 214.154,312.400 212.800 C 312.224 212.250,312.074 223.230,312.068 237.200 M178.995 251.300 C 178.680 252.178,178.588 273.932,178.900 273.739 C 179.065 273.636,179.200 268.524,179.200 262.378 L 179.200 251.204 218.900 251.100 L 258.600 250.996 218.887 250.898 C 187.409 250.820,179.138 250.904,178.995 251.300 M311.201 264.198 C 309.997 266.448,309.355 266.589,299.700 266.727 C 294.805 266.798,290.800 266.978,290.799 267.127 C 290.798 267.821,308.578 267.015,309.672 266.272 C 310.767 265.529,312.197 263.663,311.899 263.366 C 311.809 263.275,311.494 263.650,311.201 264.198 M125.990 264.600 C 127.365 266.861,127.944 266.990,137.300 267.128 L 146.000 267.256 146.028 269.728 C 146.071 273.489,146.739 274.460,146.766 270.800 C 146.797 266.591,147.459 266.876,137.316 266.729 L 128.443 266.600 126.973 265.200 C 126.165 264.430,125.722 264.160,125.990 264.600 M177.234 275.753 L 176.269 277.000 177.413 275.912 C 178.043 275.314,178.477 274.753,178.379 274.665 C 178.280 274.577,177.765 275.067,177.234 275.753 M259.200 275.096 C 259.200 275.558,260.736 276.997,260.975 276.758 C 261.069 276.665,260.707 276.167,260.173 275.652 C 259.638 275.137,259.200 274.887,259.200 275.096 M289.374 275.642 C 289.224 275.885,288.359 276.421,287.451 276.833 C 286.371 277.323,286.082 277.585,286.615 277.591 C 287.341 277.599,290.605 275.256,289.924 275.216 C 289.772 275.207,289.524 275.399,289.374 275.642 M148.781 276.698 C 149.341 277.192,150.250 277.589,150.800 277.580 C 151.631 277.568,151.545 277.474,150.296 277.028 C 149.469 276.733,148.561 276.336,148.277 276.146 C 147.994 275.956,148.221 276.204,148.781 276.698 M261.600 277.255 C 261.600 277.445,262.050 277.600,262.600 277.600 C 263.150 277.600,263.600 277.531,263.600 277.447 C 263.600 277.362,263.150 277.207,262.600 277.102 C 262.050 276.997,261.600 277.066,261.600 277.255 M172.500 287.876 C 172.885 287.976,173.515 287.976,173.900 287.876 C 174.285 287.775,173.970 287.693,173.200 287.693 C 172.430 287.693,172.115 287.775,172.500 287.876 M194.100 287.876 C 194.485 287.976,195.115 287.976,195.500 287.876 C 195.885 287.775,195.570 287.693,194.800 287.693 C 194.030 287.693,193.715 287.775,194.100 287.876 M215.300 287.876 C 215.685 287.976,216.315 287.976,216.700 287.876 C 217.085 287.775,216.770 287.693,216.000 287.693 C 215.230 287.693,214.915 287.775,215.300 287.876 M236.500 287.876 C 236.885 287.976,237.515 287.976,237.900 287.876 C 238.285 287.775,237.970 287.693,237.200 287.693 C 236.430 287.693,236.115 287.775,236.500 287.876 M258.100 287.876 C 258.485 287.976,259.115 287.976,259.500 287.876 C 259.885 287.775,259.570 287.693,258.800 287.693 C 258.030 287.693,257.715 287.775,258.100 287.876 M169.524 289.100 C 165.939 292.944,167.600 298.242,172.614 298.958 L 174.200 299.184 172.600 298.692 C 167.353 297.078,166.168 291.437,170.519 288.784 C 171.225 288.354,171.519 288.002,171.175 288.001 C 170.831 288.001,170.088 288.495,169.524 289.100 M176.106 288.735 C 176.715 289.136,177.474 289.810,177.794 290.232 C 178.113 290.654,178.380 290.784,178.387 290.520 C 178.401 290.014,175.979 287.998,175.362 288.003 C 175.163 288.004,175.498 288.334,176.106 288.735 M190.900 289.033 C 190.185 289.597,189.606 290.270,189.613 290.529 C 189.620 290.788,189.887 290.654,190.206 290.232 C 190.526 289.810,191.285 289.136,191.894 288.735 C 192.502 288.334,192.820 288.006,192.600 288.007 C 192.380 288.008,191.615 288.470,190.900 289.033 M197.481 288.784 C 201.832 291.437,200.647 297.078,195.400 298.692 L 193.800 299.184 195.386 298.958 C 200.400 298.242,202.061 292.944,198.476 289.100 C 197.912 288.495,197.169 288.001,196.825 288.001 C 196.481 288.002,196.775 288.354,197.481 288.784 M212.031 289.231 C 211.354 289.908,210.800 290.642,210.800 290.861 C 210.800 291.081,211.280 290.691,211.867 289.993 C 212.454 289.295,213.309 288.573,213.767 288.388 C 214.404 288.130,214.443 288.045,213.931 288.025 C 213.563 288.011,212.708 288.554,212.031 289.231 M218.233 288.388 C 218.691 288.573,219.546 289.295,220.133 289.993 C 220.720 290.691,221.200 291.102,221.200 290.907 C 221.200 290.269,218.721 287.999,218.053 288.025 C 217.574 288.044,217.622 288.141,218.233 288.388 M233.524 289.100 C 229.939 292.944,231.600 298.242,236.614 298.958 L 238.200 299.184 236.600 298.692 C 231.353 297.078,230.168 291.437,234.519 288.784 C 235.225 288.354,235.519 288.002,235.175 288.001 C 234.831 288.001,234.088 288.495,233.524 289.100 M240.106 288.735 C 240.715 289.136,241.474 289.810,241.794 290.232 C 242.113 290.654,242.380 290.784,242.387 290.520 C 242.401 290.014,239.979 287.998,239.362 288.003 C 239.163 288.004,239.498 288.334,240.106 288.735 M254.900 289.033 C 254.185 289.597,253.606 290.270,253.613 290.529 C 253.620 290.788,253.887 290.654,254.206 290.232 C 254.526 289.810,255.285 289.136,255.894 288.735 C 256.502 288.334,256.820 288.006,256.600 288.007 C 256.380 288.008,255.615 288.470,254.900 289.033 M261.481 288.784 C 265.832 291.437,264.647 297.078,259.400 298.692 L 257.800 299.184 259.386 298.958 C 264.067 298.290,266.017 293.234,262.969 289.672 C 262.182 288.752,261.237 288.001,260.869 288.001 C 260.451 288.002,260.681 288.297,261.481 288.784 M114.064 290.267 C 114.029 290.964,113.896 291.864,113.770 292.267 C 113.553 292.959,113.565 292.960,113.994 292.291 C 114.245 291.902,114.377 291.002,114.289 290.291 L 114.128 289.000 114.064 290.267 M178.685 292.907 C 178.913 294.988,177.686 297.047,175.592 298.099 C 174.612 298.592,174.437 298.795,175.000 298.786 C 177.397 298.748,180.646 292.541,178.850 291.431 C 178.657 291.312,178.583 291.976,178.685 292.907 M189.067 291.467 C 187.544 292.989,190.639 298.749,193.000 298.786 C 193.572 298.795,193.408 298.599,192.428 298.099 C 190.356 297.042,189.400 295.487,189.400 293.171 C 189.400 292.087,189.385 291.200,189.367 291.200 C 189.348 291.200,189.213 291.320,189.067 291.467 M242.600 293.200 C 242.600 294.258,242.735 295.040,242.900 294.938 C 243.065 294.836,243.200 294.054,243.200 293.200 C 243.200 292.346,243.065 291.564,242.900 291.462 C 242.735 291.360,242.600 292.142,242.600 293.200 M253.067 291.467 C 251.528 293.005,254.622 298.766,257.000 298.790 C 257.567 298.796,257.395 298.595,256.408 298.099 C 254.310 297.045,253.087 294.989,253.316 292.900 C 253.511 291.117,253.497 291.036,253.067 291.467 M221.244 293.200 C 221.228 294.633,221.309 294.854,221.640 294.285 C 221.921 293.803,221.927 293.216,221.660 292.485 C 221.294 291.484,221.262 291.539,221.244 293.200 M210.136 292.622 C 210.005 292.964,210.088 293.639,210.322 294.122 C 210.703 294.912,210.749 294.850,210.773 293.500 C 210.801 291.929,210.540 291.569,210.136 292.622 M113.254 293.667 C 113.225 294.034,113.084 294.664,112.941 295.067 C 112.741 295.633,112.795 295.696,113.175 295.346 C 113.446 295.097,113.587 294.467,113.488 293.946 C 113.390 293.426,113.284 293.300,113.254 293.667 M210.800 295.930 C 210.800 296.112,211.279 296.697,211.863 297.230 L 212.927 298.200 211.988 296.900 C 211.012 295.548,210.800 295.375,210.800 295.930 M219.741 297.006 C 218.317 298.464,216.415 298.978,214.489 298.426 C 213.772 298.220,213.274 298.197,213.384 298.374 C 213.696 298.879,215.877 299.205,217.189 298.942 C 218.357 298.709,221.591 296.254,221.200 295.898 C 221.090 295.798,220.433 296.296,219.741 297.006 M241.451 296.652 C 241.040 297.217,240.140 297.925,239.451 298.224 C 238.486 298.644,238.389 298.772,239.024 298.784 C 239.832 298.800,242.400 296.646,242.400 295.953 C 242.400 295.430,242.275 295.522,241.451 296.652 M112.400 296.360 C 112.400 296.631,111.769 298.236,110.999 299.926 C 110.228 301.617,109.914 302.595,110.301 302.099 C 111.195 300.955,112.963 296.430,112.642 296.109 C 112.509 295.976,112.400 296.088,112.400 296.360 M326.600 298.000 C 326.450 298.473,326.417 298.950,326.527 299.060 C 326.637 299.170,326.850 298.873,327.000 298.400 C 327.150 297.927,327.183 297.450,327.073 297.340 C 326.963 297.230,326.750 297.527,326.600 298.000 M323.144 305.100 C 321.875 306.632,321.419 307.342,321.881 307.065 C 322.393 306.758,324.169 304.400,323.889 304.400 C 323.798 304.400,323.463 304.715,323.144 305.100 M103.484 311.350 C 102.026 312.973,100.946 314.413,101.083 314.550 C 101.455 314.922,304.701 314.794,306.800 314.420 C 307.790 314.244,261.988 314.078,205.017 314.050 L 101.433 314.000 103.026 312.300 C 105.428 309.736,106.562 308.400,106.337 308.400 C 106.226 308.400,104.942 309.728,103.484 311.350 M318.785 309.632 L 317.400 310.863 318.688 310.013 C 319.830 309.259,320.693 308.400,320.308 308.400 C 320.232 308.400,319.547 308.954,318.785 309.632 M314.400 312.047 C 313.190 312.667,312.431 313.180,312.713 313.187 C 313.293 313.202,317.200 311.291,317.200 310.993 C 317.200 310.678,316.716 310.860,314.400 312.047 M310.200 313.600 L 309.400 313.944 310.200 313.966 C 310.640 313.978,311.270 313.813,311.600 313.600 C 312.395 313.086,311.396 313.086,310.200 313.600 " stroke="none" fill="#fae3bc" fill-rule="evenodd"></path><path id="path4" d="M99.002 61.250 C 95.957 64.143,94.865 64.452,94.768 62.451 C 94.747 62.002,94.672 61.962,94.527 62.323 C 94.321 62.839,95.444 64.400,96.021 64.400 C 96.185 64.400,97.247 63.492,98.381 62.381 C 102.111 58.729,103.867 58.112,106.304 59.598 C 110.263 62.012,110.052 65.091,105.619 69.619 C 103.160 72.131,103.160 71.869,105.619 74.381 C 109.334 78.175,109.933 79.981,108.295 82.441 C 105.930 85.991,102.896 85.849,98.912 82.002 C 95.878 79.072,96.141 79.073,93.176 81.992 C 89.245 85.862,86.084 86.012,83.705 82.441 C 83.080 81.502,82.800 81.302,82.800 81.794 C 82.800 82.804,85.308 85.042,86.769 85.334 C 89.022 85.784,90.405 85.181,93.231 82.515 L 95.946 79.954 98.752 82.528 C 103.131 86.547,106.918 86.453,109.003 82.274 C 110.303 79.669,109.790 78.239,106.214 74.500 L 103.823 72.000 106.266 69.500 C 109.877 65.805,110.440 63.983,108.802 61.296 C 106.418 57.386,103.087 57.370,99.002 61.250 M86.883 70.757 L 88.178 71.914 85.489 74.765 C 84.010 76.332,82.801 77.927,82.801 78.307 C 82.802 78.752,83.097 78.517,83.626 77.650 C 84.078 76.908,85.338 75.435,86.424 74.376 C 87.511 73.318,88.400 72.202,88.400 71.896 C 88.400 71.229,86.746 69.600,86.068 69.600 C 85.804 69.600,86.170 70.121,86.883 70.757 M181.728 80.428 C 178.919 81.819,178.656 82.546,178.413 89.600 L 178.200 95.800 153.400 96.036 C 137.794 96.185,127.933 96.433,126.800 96.706 C 121.233 98.047,118.926 98.903,113.956 101.471 C 100.948 108.192,91.793 120.454,88.500 135.566 C 87.942 138.129,86.948 245.737,87.473 246.740 C 88.295 248.308,88.400 242.162,88.400 192.607 C 88.400 139.503,88.438 137.730,89.686 133.000 C 90.906 128.376,91.103 127.829,92.851 124.200 C 98.739 111.979,108.821 102.939,121.202 98.781 C 127.951 96.514,129.552 96.400,154.620 96.400 C 167.223 96.400,177.819 96.291,178.167 96.157 C 178.697 95.954,178.802 95.094,178.810 90.857 C 178.826 82.386,179.729 80.600,184.000 80.600 C 188.274 80.600,189.151 82.371,189.183 91.057 C 189.197 95.107,189.305 95.955,189.833 96.157 C 190.660 96.474,252.140 96.474,252.967 96.157 C 253.467 95.965,253.585 95.355,253.530 93.257 C 253.478 91.263,253.426 91.049,253.325 92.400 C 253.250 93.390,253.098 94.606,252.986 95.102 L 252.784 96.005 221.292 95.902 L 189.800 95.800 189.587 89.600 C 189.343 82.530,189.074 81.791,186.241 80.420 C 184.137 79.401,183.801 79.402,181.728 80.428 M133.000 106.661 C 127.739 107.087,122.253 108.906,116.806 112.030 C 107.768 117.213,100.979 127.304,98.999 138.494 C 98.311 142.386,98.084 300.000,98.767 300.000 C 98.968 300.000,99.831 298.605,100.684 296.900 C 102.147 293.976,102.522 292.943,103.568 288.954 C 103.868 287.812,104.000 269.377,104.000 228.780 C 104.000 171.280,104.014 170.224,104.792 168.618 C 106.409 165.276,93.917 165.600,221.303 165.600 L 334.682 165.600 336.035 166.512 C 338.562 168.215,338.407 163.615,338.295 233.600 L 338.192 297.800 337.312 300.638 C 333.620 312.541,325.666 320.379,313.533 324.070 L 310.600 324.963 206.489 325.181 L 102.379 325.400 103.390 327.430 C 104.407 329.471,108.864 335.167,110.514 336.534 C 111.001 336.938,111.857 337.671,112.415 338.162 C 116.348 341.622,123.128 344.841,129.018 346.044 C 132.660 346.788,135.413 346.807,222.685 346.697 L 312.600 346.583 315.800 345.684 C 327.951 342.271,338.241 332.649,342.175 321.021 C 344.073 315.411,344.000 319.175,344.000 226.594 C 344.000 165.797,343.870 139.002,343.567 137.520 C 340.828 124.106,331.211 112.967,318.600 108.603 C 313.002 106.665,313.495 106.699,288.100 106.515 L 264.000 106.340 264.092 115.470 L 264.184 124.600 264.300 115.891 L 264.416 107.182 288.508 107.326 C 311.146 107.462,314.196 107.577,316.200 108.372 C 316.640 108.546,317.720 108.918,318.600 109.198 C 327.354 111.985,336.008 119.838,340.011 128.628 C 340.705 130.153,341.436 131.713,341.636 132.095 C 341.836 132.477,342.000 133.206,342.000 133.715 C 342.000 134.224,342.162 134.811,342.359 135.020 C 342.556 135.229,342.853 136.210,343.017 137.200 C 343.538 140.336,343.706 312.284,343.191 314.800 C 342.537 317.992,341.973 320.102,341.561 320.895 C 341.362 321.277,341.190 321.817,341.177 322.095 C 341.114 323.477,337.675 329.464,335.352 332.238 C 331.365 336.997,328.406 339.405,322.955 342.330 C 321.526 343.096,318.597 344.256,316.900 344.728 C 315.965 344.987,314.435 345.425,313.500 345.700 C 310.477 346.589,131.288 346.413,128.400 345.518 C 127.190 345.143,125.750 344.723,125.200 344.585 C 120.810 343.480,114.178 339.389,109.949 335.177 C 107.011 332.250,102.974 326.466,103.501 325.939 C 103.679 325.761,150.620 325.566,207.813 325.507 C 284.913 325.428,312.059 325.281,312.800 324.942 C 313.350 324.690,314.610 324.245,315.600 323.953 C 324.449 321.344,336.800 309.386,336.800 303.428 C 336.800 303.109,336.980 302.736,337.200 302.600 C 337.420 302.464,337.600 301.911,337.600 301.371 C 337.600 300.831,337.762 300.077,337.960 299.695 C 339.075 297.541,339.200 290.657,339.200 231.339 C 339.200 186.824,339.078 170.155,338.743 169.160 C 338.124 167.317,337.296 166.423,335.400 165.552 C 333.433 164.649,110.639 164.358,107.960 165.255 C 106.483 165.750,104.996 166.935,104.263 168.200 C 103.920 168.792,103.747 184.492,103.597 228.600 C 103.372 294.874,103.597 289.706,100.685 295.600 L 99.400 298.200 99.288 219.400 C 99.171 137.506,99.160 138.125,100.850 133.002 C 105.166 119.912,114.652 111.496,129.446 107.630 C 130.531 107.347,139.139 107.200,154.682 107.200 L 178.271 107.200 178.544 121.227 C 178.771 132.892,178.921 135.413,179.436 136.199 C 181.554 139.432,186.437 139.365,188.672 136.072 C 189.334 135.097,189.412 133.747,189.535 121.100 L 189.671 107.200 221.172 107.200 L 252.674 107.200 252.954 120.854 C 253.254 135.427,253.283 135.628,255.379 137.586 C 258.210 140.230,264.129 137.701,263.959 133.920 C 263.929 133.260,263.808 133.410,263.530 134.452 C 262.292 139.098,255.677 139.598,254.123 135.163 C 253.792 134.220,253.636 129.731,253.616 120.600 C 253.601 113.340,253.444 107.174,253.269 106.898 C 253.016 106.500,246.330 106.416,221.175 106.498 L 189.400 106.600 189.096 120.800 C 188.735 137.643,188.586 138.152,184.000 138.152 C 179.414 138.152,179.265 137.643,178.904 120.800 L 178.600 106.600 156.600 106.566 C 144.500 106.547,133.880 106.589,133.000 106.661 M54.400 111.949 C 54.400 112.141,55.338 112.388,56.485 112.499 C 59.304 112.769,60.800 114.434,60.800 117.299 C 60.800 121.830,56.653 123.845,52.760 121.207 C 51.792 120.551,50.822 120.011,50.605 120.007 C 50.388 120.003,51.146 120.630,52.290 121.400 C 57.820 125.124,64.106 119.607,60.538 114.161 C 59.469 112.531,54.400 110.704,54.400 111.949 M114.593 176.099 C 114.342 176.786,114.150 289.183,114.400 288.934 C 114.510 288.824,114.690 263.413,114.800 232.467 L 115.000 176.200 221.400 176.200 L 327.800 176.200 327.917 234.600 C 328.002 276.953,327.909 293.659,327.580 295.400 C 325.657 305.558,318.520 312.559,308.400 314.214 C 306.043 314.599,305.746 314.715,307.016 314.752 C 312.359 314.910,324.400 307.842,324.400 304.547 C 324.400 304.246,324.538 304.000,324.706 304.000 C 325.016 304.000,326.144 301.709,327.050 299.235 C 328.399 295.555,328.448 293.055,328.323 234.200 L 328.200 175.800 221.488 175.699 C 136.324 175.619,114.739 175.700,114.593 176.099 M163.019 197.575 C 175.338 197.806,177.200 198.073,177.200 199.609 C 177.200 199.824,177.422 200.000,177.692 200.000 C 177.963 200.000,177.600 199.415,176.885 198.700 L 175.586 197.400 163.293 197.375 L 151.000 197.350 163.019 197.575 M275.000 197.575 C 290.127 197.859,290.026 197.813,290.400 204.579 L 290.600 208.200 299.640 208.400 C 309.125 208.610,309.182 208.621,310.927 210.583 C 311.653 211.399,311.653 211.399,311.213 210.500 C 310.189 208.410,309.298 208.215,299.819 208.000 L 291.000 207.800 290.800 204.400 C 290.587 200.780,290.295 199.982,288.605 198.400 L 287.537 197.400 275.268 197.375 L 263.000 197.350 275.000 197.575 M148.213 199.013 C 147.014 200.212,146.808 200.682,146.850 202.113 L 146.900 203.800 147.172 202.200 C 147.551 199.968,148.157 199.020,149.683 198.267 C 150.450 197.889,150.713 197.614,150.313 197.609 C 149.936 197.604,148.991 198.236,148.213 199.013 M260.644 198.437 C 258.562 200.075,258.400 201.129,258.400 213.051 L 258.400 224.004 218.700 223.902 L 179.000 223.800 178.800 212.333 C 178.690 206.026,178.510 200.775,178.400 200.665 C 178.157 200.422,178.354 223.193,178.601 223.902 C 178.740 224.301,186.963 224.383,218.688 224.302 L 258.600 224.200 258.800 212.800 C 259.022 200.162,259.154 199.516,261.779 198.221 C 262.451 197.889,262.709 197.614,262.354 197.609 C 261.999 197.604,261.229 197.977,260.644 198.437 M137.400 207.982 C 123.864 208.317,125.146 205.144,125.289 237.962 L 125.400 263.556 126.778 264.978 C 127.537 265.760,128.437 266.395,128.778 266.388 C 129.238 266.379,129.191 266.261,128.600 265.936 C 128.160 265.694,127.350 265.029,126.800 264.458 L 125.800 263.419 125.800 237.570 C 125.800 216.225,125.897 211.540,126.358 210.679 C 127.434 208.669,128.759 208.401,137.660 208.394 C 142.225 208.390,146.064 208.217,146.400 208.000 C 146.730 207.787,146.820 207.646,146.600 207.688 C 146.380 207.729,142.240 207.862,137.400 207.982 M311.697 237.114 C 311.590 265.552,311.736 263.997,309.017 265.655 C 308.235 266.132,308.039 266.398,308.469 266.399 C 309.329 266.400,311.537 264.200,311.811 263.069 C 311.926 262.591,311.970 250.770,311.907 236.800 L 311.794 211.400 311.697 237.114 M178.965 234.948 C 178.849 235.249,178.810 236.464,178.877 237.648 L 179.000 239.800 218.800 239.800 L 258.600 239.800 258.726 238.032 C 258.796 237.060,258.747 235.845,258.619 235.332 L 258.385 234.400 218.780 234.400 C 185.626 234.400,179.141 234.489,178.965 234.948 M178.669 250.665 C 178.521 250.812,178.400 255.651,178.400 261.417 C 178.400 274.525,178.241 275.282,175.200 276.685 C 174.558 276.981,174.431 277.156,174.846 277.173 C 175.648 277.207,177.438 275.830,178.103 274.669 C 178.453 274.057,178.659 270.430,178.800 262.400 L 179.000 251.000 218.694 250.898 L 258.387 250.796 258.504 261.898 L 258.620 273.000 258.610 261.800 L 258.600 250.600 218.769 250.498 C 196.861 250.442,178.816 250.517,178.669 250.665 M137.782 266.700 C 143.866 266.785,146.249 266.951,146.475 267.308 C 146.694 267.652,146.790 267.590,146.794 267.100 C 146.800 266.452,146.156 266.407,138.100 266.491 L 129.400 266.583 137.782 266.700 M290.667 266.667 C 290.520 266.813,290.400 268.329,290.400 270.034 C 290.400 273.619,289.724 275.189,287.716 276.272 C 287.009 276.653,286.498 277.031,286.579 277.112 C 286.959 277.492,289.320 275.822,290.016 274.681 C 290.623 273.685,290.797 272.667,290.799 270.108 L 290.800 266.816 299.300 266.700 L 307.800 266.583 299.367 266.492 C 294.728 266.441,290.813 266.520,290.667 266.667 M146.846 272.714 C 146.776 274.707,149.718 278.015,150.693 277.041 C 150.813 276.921,150.481 276.658,149.955 276.457 C 148.544 275.918,147.511 274.592,147.183 272.899 L 146.892 271.400 146.846 272.714 M258.801 273.338 C 258.798 274.099,260.179 275.933,261.216 276.546 C 261.825 276.906,262.476 277.199,262.662 277.199 C 262.848 277.198,262.413 276.839,261.696 276.402 C 260.979 275.965,260.035 275.021,259.598 274.304 C 259.161 273.587,258.802 273.152,258.801 273.338 M157.100 277.499 C 160.235 277.567,165.365 277.567,168.500 277.499 C 171.635 277.432,169.070 277.376,162.800 277.376 C 156.530 277.376,153.965 277.432,157.100 277.499 M269.100 277.499 C 272.235 277.567,277.365 277.567,280.500 277.499 C 283.635 277.432,281.070 277.376,274.800 277.376 C 268.530 277.376,265.965 277.432,269.100 277.499 M173.257 288.292 C 176.363 288.540,178.185 290.437,178.143 293.379 C 178.123 294.774,178.242 295.461,178.449 295.135 C 180.204 292.366,176.870 287.919,173.153 288.072 L 171.400 288.144 173.257 288.292 M191.800 288.795 C 189.688 290.185,188.728 292.859,189.572 295.000 C 189.776 295.520,189.876 294.975,189.855 293.444 C 189.815 290.432,191.608 288.542,194.743 288.292 L 196.600 288.144 194.800 288.075 C 193.587 288.028,192.609 288.263,191.800 288.795 M215.100 288.282 C 215.595 288.378,216.405 288.378,216.900 288.282 C 217.395 288.187,216.990 288.109,216.000 288.109 C 215.010 288.109,214.605 288.187,215.100 288.282 M237.257 288.292 C 240.374 288.541,242.114 290.376,242.115 293.417 C 242.116 294.982,242.224 295.526,242.430 295.000 C 243.755 291.619,240.935 287.917,237.153 288.072 L 235.400 288.144 237.257 288.292 M255.800 288.795 C 253.719 290.164,252.529 293.521,253.551 295.135 C 253.758 295.461,253.877 294.774,253.857 293.379 C 253.815 290.437,255.637 288.540,258.743 288.292 L 260.600 288.144 258.800 288.075 C 257.587 288.028,256.609 288.263,255.800 288.795 M170.087 289.024 C 166.764 291.352,167.935 298.400,171.645 298.400 C 171.905 298.400,171.509 297.990,170.765 297.488 C 167.730 295.443,167.533 291.673,170.338 289.302 C 171.558 288.271,171.405 288.101,170.087 289.024 M197.662 289.264 C 200.465 291.732,200.272 295.441,197.235 297.488 C 196.491 297.990,196.095 298.400,196.355 298.400 C 200.272 298.400,201.214 290.638,197.521 288.790 C 196.699 288.379,196.714 288.430,197.662 289.264 M212.041 289.814 C 209.742 292.433,211.150 298.452,214.047 298.388 C 214.381 298.380,214.284 298.195,213.800 297.920 C 210.758 296.186,210.181 292.246,212.613 289.813 C 213.391 289.036,213.859 288.400,213.655 288.400 C 213.450 288.400,212.724 289.036,212.041 289.814 M219.387 289.813 C 221.186 291.613,221.297 296.800,219.536 296.800 C 219.351 296.800,219.206 297.025,219.214 297.300 C 219.265 299.067,221.196 295.187,221.198 293.314 C 221.200 291.274,219.531 288.400,218.345 288.400 C 218.141 288.400,218.609 289.036,219.387 289.813 M234.087 289.024 C 230.764 291.352,231.935 298.400,235.645 298.400 C 235.905 298.400,235.509 297.990,234.765 297.488 C 231.730 295.443,231.533 291.673,234.338 289.302 C 235.558 288.271,235.405 288.101,234.087 289.024 M261.888 289.550 C 264.592 292.253,264.009 296.048,260.600 297.933 C 260.160 298.177,260.031 298.381,260.314 298.388 C 264.255 298.481,265.228 290.742,261.525 288.760 C 260.818 288.381,260.901 288.562,261.888 289.550 M113.378 291.378 C 113.227 292.181,113.204 292.937,113.326 293.060 C 113.448 293.182,113.672 292.625,113.822 291.822 C 113.973 291.019,113.996 290.263,113.874 290.140 C 113.752 290.018,113.528 290.575,113.378 291.378 M112.673 294.153 C 112.523 294.545,112.411 295.166,112.425 295.533 C 112.442 295.975,112.581 295.874,112.837 295.234 C 113.049 294.703,113.161 294.082,113.085 293.854 C 113.009 293.627,112.824 293.761,112.673 294.153 M177.200 296.406 C 177.200 296.629,176.615 297.168,175.900 297.604 C 175.185 298.040,174.822 298.398,175.094 298.399 C 175.751 298.400,178.343 296.027,177.700 296.012 C 177.425 296.005,177.200 296.183,177.200 296.406 M191.106 297.212 C 191.825 297.865,192.635 298.399,192.906 298.399 C 193.178 298.398,192.815 298.040,192.100 297.604 C 191.385 297.168,190.800 296.629,190.800 296.406 C 190.800 296.183,190.575 296.005,190.300 296.012 C 190.025 296.018,190.388 296.558,191.106 297.212 M241.200 296.406 C 241.200 296.629,240.615 297.168,239.900 297.604 C 239.185 298.040,238.822 298.398,239.094 298.399 C 239.751 298.400,242.343 296.027,241.700 296.012 C 241.425 296.005,241.200 296.183,241.200 296.406 M255.106 297.212 C 255.825 297.865,256.635 298.399,256.906 298.399 C 257.178 298.398,256.815 298.040,256.100 297.604 C 255.385 297.168,254.800 296.629,254.800 296.406 C 254.800 296.183,254.575 296.005,254.300 296.012 C 254.025 296.018,254.388 296.558,255.106 297.212 M109.434 302.250 C 108.865 303.268,108.400 304.184,108.400 304.285 C 108.400 304.923,104.926 309.308,101.900 312.488 C 100.358 314.109,100.049 314.800,100.867 314.800 C 101.123 314.800,101.220 314.687,101.081 314.548 C 100.943 314.409,102.054 312.924,103.551 311.248 C 106.603 307.830,108.195 305.585,109.753 302.500 C 111.063 299.906,110.841 299.732,109.434 302.250 " stroke="none" fill="#b48b43" fill-rule="evenodd"></path></g></svg>