<svg id="svg" version="1.1" xmlns="http://www.w3.org/2000/svg" xmlns:xlink="http://www.w3.org/1999/xlink" width="400" height="400" viewBox="0, 0, 400,400"><g id="svgg"><path id="path0" d="M202.200 66.400 C 202.064 66.620,200.523 66.800,198.776 66.800 C 196.925 66.800,195.600 66.967,195.600 67.200 C 195.600 67.420,194.610 67.600,193.400 67.600 C 192.190 67.600,191.200 67.780,191.200 68.000 C 191.200 68.220,190.300 68.400,189.200 68.400 C 188.100 68.400,187.200 68.580,187.200 68.800 C 187.200 69.020,186.480 69.200,185.600 69.200 C 184.720 69.200,184.000 69.380,184.000 69.600 C 184.000 69.820,183.370 70.000,182.600 70.000 C 181.830 70.000,181.200 70.180,181.200 70.400 C 181.200 70.620,180.570 70.800,179.800 70.800 C 179.030 70.800,178.400 70.980,178.400 71.200 C 178.400 71.420,177.961 71.600,177.424 71.600 C 176.887 71.600,176.336 71.780,176.200 72.000 C 176.064 72.220,175.513 72.400,174.976 72.400 C 174.439 72.400,174.000 72.580,174.000 72.800 C 174.000 73.020,173.460 73.200,172.800 73.200 C 172.140 73.200,171.600 73.380,171.600 73.600 C 171.600 73.820,171.240 74.000,170.800 74.000 C 170.360 74.000,170.000 74.180,170.000 74.400 C 170.000 74.620,169.548 74.800,168.995 74.800 C 168.442 74.800,167.677 74.966,167.295 75.170 C 166.913 75.373,164.800 76.402,162.600 77.457 C 160.400 78.511,158.540 79.515,158.467 79.687 C 158.393 79.859,157.988 80.000,157.567 80.000 C 157.145 80.000,156.800 80.180,156.800 80.400 C 156.800 80.620,156.564 80.800,156.275 80.800 C 155.987 80.800,155.364 81.160,154.892 81.600 C 154.420 82.040,153.756 82.400,153.417 82.400 C 153.078 82.400,152.800 82.580,152.800 82.800 C 152.800 83.020,152.564 83.200,152.275 83.200 C 151.987 83.200,151.364 83.560,150.892 84.000 C 150.420 84.440,149.796 84.800,149.505 84.800 C 149.214 84.800,148.717 85.160,148.400 85.600 C 148.083 86.040,147.593 86.400,147.312 86.400 C 147.030 86.400,146.800 86.580,146.800 86.800 C 146.800 87.020,146.570 87.200,146.288 87.200 C 146.007 87.200,145.517 87.560,145.200 88.000 C 144.883 88.440,144.409 88.800,144.147 88.800 C 143.885 88.800,143.217 89.340,142.661 90.000 C 142.106 90.660,141.461 91.200,141.229 91.200 C 140.772 91.200,139.600 92.140,137.115 94.500 C 136.246 95.325,135.414 96.002,135.267 96.004 C 134.867 96.010,129.948 100.831,128.800 102.342 C 127.807 103.650,126.995 104.601,124.500 107.379 C 123.785 108.175,123.200 108.913,123.200 109.017 C 123.200 109.122,122.660 109.772,122.000 110.463 C 121.340 111.154,120.800 111.874,120.800 112.063 C 120.800 112.252,120.260 112.972,119.600 113.663 C 118.940 114.354,118.400 115.122,118.400 115.371 C 118.400 115.620,118.040 116.083,117.600 116.400 C 117.160 116.717,116.800 117.214,116.800 117.505 C 116.800 117.796,116.440 118.420,116.000 118.892 C 115.560 119.364,115.200 119.987,115.200 120.275 C 115.200 120.564,115.020 120.800,114.800 120.800 C 114.580 120.800,114.400 121.160,114.400 121.600 C 114.400 122.040,114.250 122.400,114.068 122.400 C 113.885 122.400,113.480 122.895,113.168 123.500 C 112.856 124.105,112.503 124.690,112.383 124.800 C 111.877 125.264,108.400 132.705,108.400 133.324 C 108.400 133.696,108.220 134.000,108.000 134.000 C 107.780 134.000,107.600 134.360,107.600 134.800 C 107.600 135.240,107.420 135.600,107.200 135.600 C 106.980 135.600,106.800 136.140,106.800 136.800 C 106.800 137.460,106.620 138.000,106.400 138.000 C 106.180 138.000,106.000 138.345,106.000 138.767 C 106.000 139.188,105.810 139.597,105.577 139.674 C 105.345 139.752,105.274 140.127,105.420 140.508 C 105.665 141.147,106.829 141.200,120.635 141.200 L 135.585 141.200 135.787 140.300 C 135.898 139.805,136.036 136.425,136.094 132.789 C 136.247 123.268,138.530 119.167,145.519 115.866 L 148.200 114.600 175.000 114.600 L 201.800 114.600 203.091 115.521 C 205.718 117.394,205.585 115.442,205.698 154.000 L 205.800 189.000 265.800 189.113 C 298.800 189.176,326.385 189.122,327.100 188.995 L 328.400 188.764 328.400 178.805 C 328.400 172.598,328.249 168.754,328.000 168.600 C 327.780 168.464,327.600 167.103,327.600 165.576 C 327.600 163.992,327.428 162.800,327.200 162.800 C 326.980 162.800,326.800 161.810,326.800 160.600 C 326.800 159.390,326.620 158.400,326.400 158.400 C 326.180 158.400,326.000 157.691,326.000 156.824 C 326.000 155.957,325.820 155.136,325.600 155.000 C 325.380 154.864,325.200 154.075,325.200 153.248 C 325.200 152.420,324.952 150.945,324.649 149.971 C 324.346 148.997,323.683 146.850,323.177 145.200 C 322.670 143.550,322.108 142.029,321.928 141.820 C 321.748 141.611,321.600 141.026,321.600 140.520 C 321.600 140.014,321.453 139.600,321.272 139.600 C 321.092 139.600,320.700 138.700,320.400 137.600 C 320.100 136.500,319.708 135.600,319.528 135.600 C 319.347 135.600,319.200 135.240,319.200 134.800 C 319.200 134.360,319.020 134.000,318.800 134.000 C 318.580 134.000,318.400 133.640,318.400 133.200 C 318.400 132.760,318.220 132.400,318.000 132.400 C 317.780 132.400,317.600 131.950,317.600 131.400 C 317.600 130.850,317.454 130.400,317.275 130.400 C 317.096 130.400,316.702 129.770,316.400 129.000 C 316.098 128.230,315.704 127.600,315.525 127.600 C 315.346 127.600,315.200 127.254,315.200 126.832 C 315.200 125.982,314.612 125.804,310.400 125.381 C 304.016 124.739,298.962 120.530,296.402 113.722 C 295.869 112.306,296.053 106.186,296.716 103.249 L 297.111 101.498 294.253 98.640 C 292.681 97.068,290.986 95.495,290.486 95.145 C 289.986 94.795,288.783 93.764,287.812 92.854 C 286.841 91.944,285.894 91.200,285.707 91.200 C 285.521 91.200,284.572 90.480,283.600 89.600 C 282.628 88.720,281.640 88.000,281.404 88.000 C 281.169 88.000,280.717 87.640,280.400 87.200 C 280.083 86.760,279.543 86.400,279.200 86.400 C 278.857 86.400,278.317 86.040,278.000 85.600 C 277.683 85.160,277.143 84.800,276.800 84.800 C 276.457 84.800,275.917 84.440,275.600 84.000 C 275.283 83.560,274.871 83.200,274.684 83.200 C 274.497 83.200,273.559 82.660,272.600 82.000 C 271.641 81.340,270.663 80.800,270.428 80.800 C 270.193 80.800,270.000 80.620,270.000 80.400 C 270.000 80.180,269.640 80.000,269.200 80.000 C 268.760 80.000,268.400 79.820,268.400 79.600 C 268.400 79.380,268.040 79.200,267.600 79.200 C 267.160 79.200,266.800 79.020,266.800 78.800 C 266.800 78.580,266.440 78.400,266.000 78.400 C 265.560 78.400,265.200 78.220,265.200 78.000 C 265.200 77.780,264.840 77.600,264.400 77.600 C 263.960 77.600,263.600 77.420,263.600 77.200 C 263.600 76.980,263.240 76.800,262.800 76.800 C 262.360 76.800,262.000 76.664,262.000 76.498 C 262.000 76.169,259.655 75.269,257.900 74.925 C 257.295 74.806,256.800 74.550,256.800 74.355 C 256.800 74.160,256.451 74.000,256.024 74.000 C 255.597 74.000,255.136 73.820,255.000 73.600 C 254.864 73.380,254.313 73.200,253.776 73.200 C 253.239 73.200,252.800 73.020,252.800 72.800 C 252.800 72.580,252.260 72.400,251.600 72.400 C 250.940 72.400,250.400 72.220,250.400 72.000 C 250.400 71.780,249.860 71.600,249.200 71.600 C 248.540 71.600,248.000 71.420,248.000 71.200 C 248.000 70.980,247.460 70.800,246.800 70.800 C 246.140 70.800,245.600 70.620,245.600 70.400 C 245.600 70.180,244.880 70.000,244.000 70.000 C 243.120 70.000,242.400 69.820,242.400 69.600 C 242.400 69.380,241.781 69.200,241.024 69.200 C 240.267 69.200,239.536 69.020,239.400 68.800 C 239.264 68.580,238.353 68.400,237.376 68.400 C 236.399 68.400,235.600 68.220,235.600 68.000 C 235.600 67.778,234.533 67.600,233.200 67.600 C 231.867 67.600,230.800 67.422,230.800 67.200 C 230.800 66.967,229.467 66.800,227.600 66.800 C 225.733 66.800,224.400 66.633,224.400 66.400 C 224.400 66.143,220.475 66.000,213.424 66.000 C 206.537 66.000,202.355 66.149,202.200 66.400 M245.120 77.769 C 245.714 78.081,247.093 79.251,248.185 80.369 C 250.621 82.862,250.511 82.864,253.200 80.257 C 257.426 76.161,261.366 76.066,263.406 80.012 C 264.903 82.906,264.122 85.133,260.302 88.869 C 258.412 90.717,258.402 90.642,260.831 93.015 C 264.661 96.757,265.164 99.817,262.383 102.462 C 259.633 105.078,257.251 104.789,253.659 101.400 C 252.143 99.970,250.766 98.800,250.600 98.800 C 250.434 98.800,249.057 99.970,247.541 101.400 C 243.629 105.091,239.769 105.007,237.794 101.188 C 236.361 98.417,237.195 96.174,240.995 92.585 L 242.875 90.809 240.491 88.304 C 237.645 85.314,237.199 84.531,237.203 82.526 C 237.209 78.650,241.685 75.960,245.120 77.769 M270.823 146.800 C 277.403 148.628,274.994 158.425,268.234 157.328 C 262.700 156.430,262.533 147.726,268.029 146.692 C 268.563 146.591,269.090 146.485,269.200 146.457 C 269.310 146.428,270.040 146.582,270.823 146.800 M205.600 277.600 L 205.600 296.400 215.800 296.400 C 222.333 296.400,226.000 296.256,226.000 296.000 C 226.000 295.769,227.259 295.600,228.976 295.600 C 230.613 295.600,232.064 295.420,232.200 295.200 C 232.336 294.980,233.337 294.800,234.424 294.800 C 235.511 294.800,236.400 294.620,236.400 294.400 C 236.400 294.180,237.210 294.000,238.200 294.000 C 239.190 294.000,240.000 293.820,240.000 293.600 C 240.000 293.380,240.720 293.200,241.600 293.200 C 242.480 293.200,243.200 293.020,243.200 292.800 C 243.200 292.580,243.729 292.400,244.376 292.400 C 245.023 292.400,245.664 292.220,245.800 292.000 C 245.936 291.780,246.537 291.600,247.135 291.600 C 248.362 291.600,254.397 289.728,254.980 289.166 C 255.189 288.965,255.774 288.800,256.280 288.800 C 256.786 288.800,257.200 288.620,257.200 288.400 C 257.200 288.180,257.560 288.000,258.000 288.000 C 258.440 288.000,258.800 287.820,258.800 287.600 C 258.800 287.380,259.079 287.200,259.419 287.200 C 259.760 287.200,260.784 286.840,261.694 286.400 C 262.605 285.960,263.586 285.600,263.875 285.600 C 264.164 285.600,264.400 285.420,264.400 285.200 C 264.400 284.980,264.745 284.800,265.167 284.800 C 265.588 284.800,265.993 284.665,266.067 284.500 C 266.140 284.335,267.055 283.767,268.100 283.237 C 269.145 282.708,270.000 282.123,270.000 281.937 C 270.000 281.752,270.360 281.600,270.800 281.600 C 271.240 281.600,271.600 281.420,271.600 281.200 C 271.600 280.980,271.836 280.800,272.125 280.800 C 272.413 280.800,273.036 280.440,273.508 280.000 C 273.980 279.560,274.554 279.200,274.783 279.200 C 275.012 279.200,275.200 279.020,275.200 278.800 C 275.200 278.580,275.520 278.400,275.912 278.400 C 276.303 278.400,276.883 278.040,277.200 277.600 C 277.517 277.160,278.031 276.800,278.341 276.800 C 278.652 276.800,279.197 276.467,279.553 276.059 C 279.909 275.652,280.740 275.037,281.400 274.693 C 282.060 274.349,282.997 273.693,283.483 273.234 C 283.969 272.775,284.519 272.400,284.705 272.400 C 285.595 272.400,298.000 260.283,298.000 259.413 C 298.000 258.866,293.027 258.800,251.800 258.800 L 205.600 258.800 205.600 277.600 " stroke="none" fill="#e7d1b2" fill-rule="evenodd"></path><path id="path1" d="M240.903 78.175 C 236.705 80.497,236.689 83.564,240.853 87.652 C 243.702 90.448,243.721 90.744,241.224 93.176 C 237.605 96.701,237.025 98.268,238.420 100.750 C 240.634 104.689,243.369 104.546,247.858 100.255 C 250.697 97.543,250.442 97.536,253.481 100.400 C 257.186 103.890,258.596 104.331,261.124 102.790 C 264.357 100.819,264.219 97.518,260.748 93.808 C 257.892 90.754,257.881 90.555,260.443 87.909 C 263.754 84.491,264.318 81.897,262.267 79.523 C 261.049 78.113,258.613 77.275,257.589 77.914 C 257.161 78.181,256.618 78.400,256.383 78.400 C 256.148 78.400,254.896 79.480,253.600 80.800 C 250.802 83.651,250.620 83.678,248.581 81.549 C 245.367 78.193,242.860 77.092,240.903 78.175 M308.200 92.800 C 308.064 93.020,307.595 93.200,307.157 93.200 C 306.393 93.200,304.507 94.005,302.410 95.224 C 301.031 96.027,298.000 99.215,298.000 99.864 C 298.000 100.159,297.833 100.400,297.630 100.400 C 297.426 100.400,297.266 101.544,297.275 102.943 C 297.283 104.342,297.089 105.860,296.845 106.317 C 294.148 111.356,301.562 124.000,307.214 124.000 C 307.620 124.000,308.064 124.180,308.200 124.400 C 308.336 124.620,309.594 124.800,310.995 124.800 C 312.726 124.800,313.735 124.992,314.143 125.400 C 314.822 126.079,316.000 126.206,316.000 125.600 C 316.000 125.380,316.427 125.200,316.949 125.200 C 319.092 125.200,325.200 121.182,325.200 119.772 C 325.200 119.555,325.560 119.117,326.000 118.800 C 326.440 118.483,326.800 117.903,326.800 117.512 C 326.800 117.120,326.980 116.800,327.200 116.800 C 327.420 116.800,327.600 116.260,327.600 115.600 C 327.600 114.940,327.780 114.400,328.000 114.400 C 328.245 114.400,328.400 112.467,328.400 109.400 C 328.400 106.333,328.245 104.400,328.000 104.400 C 327.780 104.400,327.600 103.860,327.600 103.200 C 327.600 102.540,327.420 102.000,327.200 102.000 C 326.980 102.000,326.800 101.680,326.800 101.288 C 326.800 100.897,326.440 100.317,326.000 100.000 C 325.560 99.683,325.200 99.175,325.200 98.872 C 325.200 97.747,320.436 94.000,319.005 94.000 C 318.672 94.000,318.400 93.820,318.400 93.600 C 318.400 93.380,317.871 93.200,317.224 93.200 C 316.577 93.200,315.936 93.020,315.800 92.800 C 315.664 92.580,313.954 92.400,312.000 92.400 C 310.046 92.400,308.336 92.580,308.200 92.800 M314.118 105.663 C 315.437 106.369,316.000 107.059,316.000 107.971 C 316.000 108.427,316.180 108.800,316.400 108.800 C 316.620 108.800,316.800 109.070,316.800 109.400 C 316.800 109.730,316.620 110.000,316.400 110.000 C 316.180 110.000,316.000 110.360,316.000 110.800 C 316.000 111.240,315.820 111.600,315.600 111.600 C 315.380 111.600,315.200 111.826,315.200 112.102 C 315.200 112.868,313.063 113.648,311.258 113.541 C 310.373 113.489,309.738 113.301,309.847 113.123 C 309.957 112.945,309.787 112.800,309.469 112.800 C 308.580 112.800,307.477 110.112,307.729 108.561 C 308.187 105.740,311.475 104.249,314.118 105.663 M146.800 116.087 C 139.380 118.808,136.835 123.217,136.458 134.000 L 136.200 141.400 120.889 141.505 C 107.530 141.596,105.549 141.532,105.346 141.005 C 105.084 140.320,102.597 140.158,102.200 140.800 C 102.064 141.020,101.151 141.200,100.171 141.200 C 99.191 141.200,98.077 141.371,97.695 141.581 C 97.313 141.790,96.313 142.266,95.473 142.639 C 93.748 143.404,90.400 146.568,90.400 147.432 C 90.400 147.744,90.220 148.000,90.000 148.000 C 89.780 148.000,89.600 148.371,89.600 148.824 C 89.600 149.277,89.420 149.536,89.200 149.400 C 88.973 149.260,88.800 149.596,88.800 150.176 C 88.800 150.739,88.620 151.200,88.400 151.200 C 88.180 151.200,88.000 151.729,88.000 152.376 C 88.000 153.023,87.820 153.664,87.600 153.800 C 87.343 153.959,87.200 160.271,87.200 171.424 L 87.200 188.800 70.278 188.800 L 53.356 188.800 51.878 190.154 C 51.065 190.899,50.400 191.878,50.400 192.330 C 50.400 192.783,50.220 193.264,50.000 193.400 C 49.448 193.741,49.448 254.800,50.000 254.800 C 50.220 254.800,50.400 255.250,50.400 255.800 C 50.400 256.350,50.580 256.800,50.800 256.800 C 51.020 256.800,51.201 257.025,51.203 257.300 C 51.207 257.913,53.027 258.800,54.280 258.800 C 54.786 258.800,55.200 258.980,55.200 259.200 C 55.200 259.460,60.800 259.600,71.200 259.600 L 87.200 259.600 87.200 276.800 C 87.200 288.000,87.340 294.000,87.600 294.000 C 87.820 294.000,88.000 294.720,88.000 295.600 C 88.000 296.480,88.180 297.200,88.400 297.200 C 88.620 297.200,88.800 297.560,88.800 298.000 C 88.800 298.440,88.980 298.800,89.200 298.800 C 89.420 298.800,89.600 299.062,89.600 299.383 C 89.600 300.366,94.092 304.809,96.000 305.713 C 99.762 307.495,100.594 307.564,118.500 307.582 L 135.600 307.600 135.600 314.976 C 135.600 319.463,135.757 322.450,136.000 322.600 C 136.220 322.736,136.400 323.197,136.400 323.624 C 136.400 324.051,136.580 324.400,136.800 324.400 C 137.020 324.400,137.200 324.760,137.200 325.200 C 137.200 325.640,137.380 326.000,137.600 326.000 C 137.820 326.000,138.000 326.275,138.000 326.611 C 138.000 327.289,141.343 330.800,141.989 330.800 C 142.215 330.800,142.400 330.947,142.400 331.126 C 142.400 331.585,145.525 333.200,146.414 333.200 C 146.820 333.200,147.264 333.380,147.400 333.600 C 147.561 333.860,157.271 334.000,175.224 334.000 C 193.341 334.000,202.800 333.863,202.800 333.600 C 202.800 333.380,203.083 333.200,203.429 333.200 C 204.237 333.200,205.200 332.237,205.200 331.429 C 205.200 331.083,205.380 330.800,205.600 330.800 C 206.240 330.800,206.141 296.514,205.500 296.300 C 205.109 296.170,205.000 292.025,205.000 277.367 L 205.000 258.600 251.470 258.498 C 292.391 258.409,298.011 258.469,298.541 258.998 C 299.273 259.730,344.800 259.929,344.800 259.200 C 344.800 258.980,345.214 258.800,345.720 258.800 C 346.973 258.800,348.793 257.913,348.797 257.300 C 348.799 257.025,348.980 256.800,349.200 256.800 C 349.420 256.800,349.600 256.350,349.600 255.800 C 349.600 255.250,349.780 254.800,350.000 254.800 C 350.220 254.800,350.400 254.170,350.400 253.400 C 350.400 252.630,350.220 252.000,350.000 252.000 C 349.780 252.000,349.600 251.542,349.600 250.982 C 349.600 249.859,347.990 248.000,347.018 248.000 C 346.678 248.000,346.400 247.820,346.400 247.600 C 346.400 246.994,345.221 247.121,344.542 247.801 C 344.011 248.332,335.859 248.390,274.670 248.301 L 205.400 248.200 205.400 224.000 L 205.400 199.800 274.600 199.805 C 312.660 199.807,344.460 199.964,345.266 200.152 C 346.818 200.514,349.600 198.514,349.600 197.037 C 349.600 196.713,349.780 196.336,350.000 196.200 C 350.220 196.064,350.400 195.434,350.400 194.800 C 350.400 194.166,350.220 193.536,350.000 193.400 C 349.780 193.264,349.600 192.783,349.600 192.330 C 349.600 191.878,348.935 190.899,348.122 190.154 L 346.644 188.800 337.571 188.800 C 329.994 188.800,328.416 188.899,328.000 189.400 C 327.117 190.463,205.784 190.292,205.214 189.226 C 204.938 188.710,204.800 176.918,204.800 153.787 C 204.800 115.770,204.898 117.339,202.432 115.882 C 200.500 114.741,149.963 114.927,146.800 116.087 M194.537 125.900 C 194.641 126.285,194.698 170.700,194.664 224.600 L 194.600 322.600 173.200 322.709 C 144.511 322.856,146.804 323.934,146.801 310.297 L 146.800 301.594 148.405 300.951 C 152.969 299.125,152.957 292.870,148.386 291.041 L 146.762 290.391 146.881 287.896 L 147.000 285.400 150.451 285.285 C 159.766 284.975,159.961 275.321,150.662 274.804 L 147.000 274.600 147.000 272.000 L 147.000 269.400 153.200 269.200 C 160.920 268.951,162.400 268.124,162.400 264.057 C 162.400 259.828,161.044 259.053,153.200 258.800 L 147.000 258.600 147.000 256.000 L 147.000 253.400 155.800 253.200 C 166.396 252.959,167.997 252.277,167.997 248.000 C 167.997 243.723,166.396 243.041,155.800 242.800 L 147.000 242.600 147.000 240.000 L 147.000 237.400 158.693 237.200 L 170.386 237.000 171.693 235.692 C 172.877 234.508,173.000 234.159,173.000 232.000 C 173.000 229.841,172.877 229.492,171.693 228.308 L 170.386 227.000 158.693 226.800 L 147.000 226.600 147.000 224.000 L 147.000 221.400 158.440 221.294 L 169.881 221.188 171.440 219.840 C 172.942 218.542,173.000 218.399,173.000 216.000 C 173.000 213.601,172.942 213.458,171.440 212.160 L 169.881 210.812 158.440 210.706 L 147.000 210.600 147.000 208.000 L 147.000 205.400 155.800 205.200 C 166.396 204.959,167.997 204.277,167.997 200.000 C 167.997 195.723,166.396 195.041,155.800 194.800 L 147.000 194.600 147.000 192.000 L 147.000 189.400 152.600 189.303 C 160.916 189.158,162.400 188.355,162.400 184.000 C 162.400 179.645,160.916 178.842,152.600 178.697 L 147.000 178.600 147.000 176.000 L 147.000 173.400 150.662 173.196 C 155.299 172.938,157.200 171.427,157.200 168.000 C 157.200 164.573,155.299 163.062,150.662 162.804 L 147.000 162.600 146.883 159.953 L 146.766 157.307 148.020 157.056 C 152.947 156.071,152.961 147.932,148.037 146.947 L 146.800 146.700 146.800 137.930 C 146.800 124.068,144.438 125.220,172.873 125.209 C 192.989 125.201,194.358 125.244,194.537 125.900 M266.689 148.054 C 264.403 149.760,263.885 151.975,265.218 154.346 C 266.800 157.158,270.148 157.672,272.550 155.472 C 276.820 151.560,271.320 144.600,266.689 148.054 M135.901 224.100 L 136.002 296.000 119.381 296.000 C 101.749 296.000,101.596 295.985,99.869 294.077 C 98.959 293.070,98.179 288.697,98.554 286.700 L 98.836 285.200 102.256 285.200 C 106.987 285.200,109.200 283.504,109.200 279.879 C 109.200 276.613,106.783 274.814,102.380 274.806 C 98.808 274.799,98.400 274.505,98.400 271.934 C 98.400 269.373,98.830 269.200,105.213 269.200 C 112.049 269.200,114.800 267.708,114.800 264.000 C 114.800 260.307,112.121 258.801,105.538 258.795 C 98.043 258.787,97.258 258.255,98.790 254.226 L 99.180 253.200 107.690 253.199 C 117.950 253.197,120.000 252.331,120.000 248.000 C 120.000 243.785,118.247 243.036,107.819 242.800 L 99.000 242.600 98.881 240.100 C 98.736 237.052,96.984 237.479,110.693 237.221 L 122.386 237.000 123.693 235.692 C 125.627 233.757,125.627 230.243,123.693 228.308 L 122.386 227.000 110.693 226.779 C 96.984 226.521,98.736 226.948,98.881 223.900 L 99.000 221.400 110.440 221.294 L 121.881 221.188 123.440 219.840 C 125.791 217.808,125.791 214.192,123.440 212.160 L 121.881 210.812 110.440 210.706 L 99.000 210.600 98.878 208.237 C 98.717 205.118,98.431 205.214,108.000 205.205 C 117.900 205.195,120.000 204.289,120.000 200.027 C 120.000 195.666,118.024 194.805,108.000 194.795 C 98.739 194.787,98.898 194.829,98.549 192.284 C 98.141 189.300,98.353 189.200,105.087 189.200 C 112.155 189.200,114.800 187.784,114.800 184.000 C 114.800 180.209,112.158 178.800,105.052 178.800 C 98.480 178.800,98.400 178.762,98.400 175.650 C 98.400 173.603,98.681 173.449,102.912 173.182 C 111.804 172.622,111.579 162.825,102.674 162.806 C 98.313 162.796,97.447 161.303,98.842 156.200 C 99.985 152.021,100.037 152.011,119.400 152.113 L 135.800 152.200 135.901 224.100 M87.500 199.852 L 88.400 200.093 88.400 223.767 C 88.400 241.646,88.283 247.557,87.920 247.920 C 87.099 248.741,61.360 248.594,61.043 247.767 C 60.524 246.415,60.773 200.078,61.300 199.865 C 62.018 199.575,86.423 199.563,87.500 199.852 M255.294 212.569 L 253.800 213.939 253.800 223.709 C 253.800 234.503,253.913 235.088,256.218 236.182 C 258.911 237.460,261.842 236.584,262.994 234.157 C 263.709 232.648,263.885 216.002,263.204 214.211 C 261.955 210.927,257.986 210.103,255.294 212.569 M272.152 211.665 C 268.112 213.622,268.329 234.222,272.412 236.288 C 274.660 237.426,277.863 236.479,279.059 234.324 C 279.750 233.079,279.818 215.159,279.137 213.874 C 277.865 211.473,274.648 210.455,272.152 211.665 M287.294 212.569 L 285.800 213.938 285.800 223.708 C 285.800 234.571,285.903 235.083,288.315 236.228 C 291.130 237.564,294.173 236.442,295.242 233.674 C 295.731 232.410,295.697 215.508,295.204 214.211 C 293.955 210.927,289.986 210.103,287.294 212.569 " stroke="none" fill="#4c251d" fill-rule="evenodd"></path><path id="path2" d="M247.787 100.500 L 245.400 103.000 247.800 100.747 C 249.120 99.508,250.470 98.397,250.800 98.278 C 251.325 98.090,251.323 98.059,250.787 98.032 C 250.451 98.014,249.101 99.125,247.787 100.500 M162.900 115.100 C 169.885 115.161,181.315 115.161,188.300 115.100 C 195.285 115.039,189.570 114.988,175.600 114.988 C 161.630 114.988,155.915 115.039,162.900 115.100 M204.991 154.000 C 204.991 173.250,205.040 181.125,205.100 171.500 C 205.160 161.875,205.160 146.125,205.100 136.500 C 205.040 126.875,204.991 134.750,204.991 154.000 M149.727 125.977 C 146.956 127.235,146.800 127.872,146.800 137.930 L 146.800 146.700 148.037 146.947 C 152.961 147.932,152.947 156.071,148.020 157.056 L 146.766 157.307 146.883 159.953 L 147.000 162.600 150.662 162.804 C 155.299 163.062,157.200 164.573,157.200 168.000 C 157.200 171.427,155.299 172.938,150.662 173.196 L 147.000 173.400 147.000 176.000 L 147.000 178.600 152.600 178.697 C 160.916 178.842,162.400 179.645,162.400 184.000 C 162.400 188.355,160.916 189.158,152.600 189.303 L 147.000 189.400 147.000 192.000 L 147.000 194.600 155.800 194.800 C 166.396 195.041,167.997 195.723,167.997 200.000 C 167.997 204.277,166.396 204.959,155.800 205.200 L 147.000 205.400 147.000 208.000 L 147.000 210.600 158.440 210.706 L 169.881 210.812 171.440 212.160 C 172.942 213.458,173.000 213.601,173.000 216.000 C 173.000 218.399,172.942 218.542,171.440 219.840 L 169.881 221.188 158.440 221.294 L 147.000 221.400 147.000 224.000 L 147.000 226.600 158.693 226.800 L 170.386 227.000 171.693 228.308 C 172.877 229.492,173.000 229.841,173.000 232.000 C 173.000 234.159,172.877 234.508,171.693 235.692 L 170.386 237.000 158.693 237.200 L 147.000 237.400 147.000 240.000 L 147.000 242.600 155.800 242.800 C 166.396 243.041,167.997 243.723,167.997 248.000 C 167.997 252.277,166.396 252.959,155.800 253.200 L 147.000 253.400 147.000 256.000 L 147.000 258.600 153.200 258.800 C 161.044 259.053,162.400 259.828,162.400 264.057 C 162.400 268.124,160.920 268.951,153.200 269.200 L 147.000 269.400 147.000 272.000 L 147.000 274.600 150.662 274.804 C 159.961 275.321,159.766 284.975,150.451 285.285 L 147.000 285.400 146.881 287.896 L 146.762 290.391 148.386 291.041 C 152.957 292.870,152.969 299.125,148.405 300.951 L 146.800 301.594 146.801 310.297 C 146.804 323.934,144.511 322.856,173.200 322.709 L 194.600 322.600 194.664 224.600 C 194.698 170.700,194.641 126.285,194.537 125.900 C 194.230 124.773,152.219 124.846,149.727 125.977 M136.160 135.400 C 136.161 138.700,136.222 139.997,136.298 138.282 C 136.373 136.567,136.372 133.867,136.297 132.282 C 136.221 130.697,136.159 132.100,136.160 135.400 M266.122 148.229 L 265.000 149.258 266.300 148.354 C 267.015 147.857,267.600 147.393,267.600 147.325 C 267.600 147.009,267.158 147.280,266.122 148.229 M101.800 152.559 C 99.462 153.595,98.407 155.872,98.402 159.886 C 98.399 162.465,98.887 162.798,102.674 162.806 C 111.579 162.825,111.804 172.622,102.912 173.182 C 98.681 173.449,98.400 173.603,98.400 175.650 C 98.400 178.762,98.480 178.800,105.052 178.800 C 112.158 178.800,114.800 180.209,114.800 184.000 C 114.800 187.784,112.155 189.200,105.087 189.200 C 98.353 189.200,98.141 189.300,98.549 192.284 C 98.898 194.829,98.739 194.787,108.000 194.795 C 118.024 194.805,120.000 195.666,120.000 200.027 C 120.000 204.289,117.900 205.195,108.000 205.205 C 98.431 205.214,98.717 205.118,98.878 208.237 L 99.000 210.600 110.440 210.706 L 121.881 210.812 123.440 212.160 C 125.791 214.192,125.791 217.808,123.440 219.840 L 121.881 221.188 110.440 221.294 L 99.000 221.400 98.881 223.900 C 98.736 226.948,96.984 226.521,110.693 226.779 L 122.386 227.000 123.693 228.308 C 125.627 230.243,125.627 233.757,123.693 235.692 L 122.386 237.000 110.693 237.221 C 96.984 237.479,98.736 237.052,98.881 240.100 L 99.000 242.600 107.819 242.800 C 118.247 243.036,120.000 243.785,120.000 248.000 C 120.000 252.331,117.950 253.197,107.690 253.199 L 99.180 253.200 98.790 254.226 C 97.258 258.255,98.043 258.787,105.538 258.795 C 112.121 258.801,114.800 260.307,114.800 264.000 C 114.800 267.708,112.049 269.200,105.213 269.200 C 98.830 269.200,98.400 269.373,98.400 271.934 C 98.400 274.505,98.808 274.799,102.380 274.806 C 106.783 274.814,109.200 276.613,109.200 279.879 C 109.200 283.504,106.987 285.200,102.256 285.200 L 98.836 285.200 98.554 286.700 C 98.179 288.697,98.959 293.070,99.869 294.077 C 101.596 295.985,101.749 296.000,119.381 296.000 L 136.002 296.000 135.901 224.100 L 135.800 152.200 119.400 152.113 C 106.471 152.045,102.746 152.139,101.800 152.559 M205.462 189.700 C 205.564 189.865,233.076 190.000,266.600 190.000 C 300.124 190.000,327.636 189.865,327.738 189.700 C 327.840 189.535,300.328 189.400,266.600 189.400 C 232.872 189.400,205.360 189.535,205.462 189.700 M61.300 199.865 C 60.773 200.078,60.524 246.415,61.043 247.767 C 61.360 248.594,87.099 248.741,87.920 247.920 C 88.464 247.376,88.642 200.000,88.100 200.000 C 87.935 200.000,87.800 210.755,87.800 223.900 L 87.800 247.800 74.600 247.800 L 61.400 247.800 61.400 224.000 L 61.400 200.200 74.400 199.992 L 87.400 199.783 74.600 199.723 C 67.560 199.690,61.575 199.754,61.300 199.865 M205.462 199.900 C 205.294 200.171,252.367 200.170,318.800 199.897 C 332.550 199.840,312.716 199.750,274.724 199.697 C 236.732 199.644,205.564 199.735,205.462 199.900 M257.900 211.082 C 258.395 211.178,259.205 211.178,259.700 211.082 C 260.195 210.987,259.790 210.909,258.800 210.909 C 257.810 210.909,257.405 210.987,257.900 211.082 M273.900 211.082 C 274.395 211.178,275.205 211.178,275.700 211.082 C 276.195 210.987,275.790 210.909,274.800 210.909 C 273.810 210.909,273.405 210.987,273.900 211.082 M289.900 211.082 C 290.395 211.178,291.205 211.178,291.700 211.082 C 292.195 210.987,291.790 210.909,290.800 210.909 C 289.810 210.909,289.405 210.987,289.900 211.082 M254.975 212.500 L 253.800 213.800 255.198 212.600 C 255.967 211.940,256.672 211.355,256.765 211.300 C 256.857 211.245,256.757 211.200,256.542 211.200 C 256.326 211.200,255.621 211.785,254.975 212.500 M277.483 211.951 C 278.405 212.837,279.025 213.087,278.601 212.402 C 278.466 212.183,277.960 211.801,277.478 211.553 L 276.600 211.101 277.483 211.951 M286.975 212.500 L 285.800 213.800 287.198 212.600 C 287.967 211.940,288.672 211.355,288.765 211.300 C 288.857 211.245,288.757 211.200,288.542 211.200 C 288.326 211.200,287.621 211.785,286.975 212.500 M270.155 213.412 C 269.790 213.969,269.564 214.498,269.653 214.587 C 269.742 214.676,270.118 214.220,270.489 213.574 C 271.314 212.136,271.069 212.017,270.155 213.412 M263.400 224.000 C 263.400 229.458,263.532 233.716,263.694 233.462 C 264.077 232.859,264.077 215.141,263.694 214.538 C 263.532 214.284,263.400 218.542,263.400 224.000 M295.400 224.000 C 295.400 229.458,295.532 233.716,295.694 233.462 C 296.077 232.859,296.077 215.141,295.694 214.538 C 295.532 214.284,295.400 218.542,295.400 224.000 M253.452 215.300 C 253.122 216.530,253.189 232.032,253.528 232.886 C 253.678 233.263,253.800 229.258,253.800 223.986 C 253.800 218.714,253.776 214.400,253.747 214.400 C 253.717 214.400,253.585 214.805,253.452 215.300 M285.443 215.033 C 285.111 215.896,285.189 232.030,285.528 232.885 C 285.678 233.262,285.800 229.257,285.800 223.985 C 285.800 218.713,285.774 214.400,285.743 214.400 C 285.711 214.400,285.576 214.685,285.443 215.033 M279.770 224.000 C 279.770 228.730,279.828 230.665,279.898 228.300 C 279.969 225.935,279.969 222.065,279.898 219.700 C 279.828 217.335,279.770 219.270,279.770 224.000 M269.601 233.506 C 269.597 234.887,272.206 236.877,274.214 237.024 L 276.200 237.169 274.277 236.814 C 272.120 236.417,271.400 235.939,270.337 234.200 C 269.933 233.540,269.602 233.228,269.601 233.506 M277.400 236.000 C 276.740 236.437,276.380 236.792,276.600 236.788 C 277.001 236.782,279.176 235.223,278.800 235.212 C 278.690 235.208,278.060 235.563,277.400 236.000 M255.556 236.254 C 256.070 236.614,257.325 236.967,258.345 237.039 L 260.200 237.169 258.245 236.810 C 257.170 236.612,256.099 236.259,255.865 236.025 C 255.631 235.791,255.256 235.600,255.031 235.600 C 254.806 235.600,255.042 235.894,255.556 236.254 M287.659 236.166 C 288.073 236.621,289.038 236.941,290.259 237.029 L 292.200 237.169 290.277 236.814 C 289.219 236.619,288.049 236.231,287.677 235.952 C 287.046 235.479,287.045 235.493,287.659 236.166 M205.462 248.100 C 205.702 248.488,343.652 248.482,344.262 248.094 C 344.516 247.932,313.348 247.800,275.000 247.800 C 236.652 247.800,205.360 247.935,205.462 248.100 M204.983 258.900 C 204.878 259.175,204.838 267.500,204.896 277.400 L 205.000 295.400 205.200 276.900 C 205.310 266.725,205.349 258.400,205.287 258.400 C 205.226 258.400,205.089 258.625,204.983 258.900 " stroke="none" fill="#6b4b5b" fill-rule="evenodd"></path><path id="path3" d="M260.600 78.067 C 261.040 78.310,261.769 78.800,262.219 79.155 C 262.670 79.510,262.532 79.305,261.913 78.700 C 261.294 78.095,260.565 77.605,260.294 77.612 C 260.022 77.619,260.160 77.823,260.600 78.067 M253.186 80.700 L 251.000 83.000 253.300 80.814 C 255.437 78.782,255.783 78.400,255.486 78.400 C 255.424 78.400,254.389 79.435,253.186 80.700 M240.500 87.812 C 241.765 89.138,242.800 90.393,242.800 90.600 C 242.800 90.807,241.765 92.062,240.500 93.388 L 238.200 95.800 240.700 93.413 C 242.075 92.099,243.200 90.834,243.200 90.600 C 243.200 90.366,242.075 89.101,240.700 87.787 L 238.200 85.400 240.500 87.812 M242.100 103.876 C 242.485 103.976,243.115 103.976,243.500 103.876 C 243.885 103.775,243.570 103.693,242.800 103.693 C 242.030 103.693,241.715 103.775,242.100 103.876 M257.905 103.883 C 258.402 103.979,259.122 103.975,259.505 103.875 C 259.887 103.775,259.480 103.696,258.600 103.701 C 257.720 103.705,257.407 103.787,257.905 103.883 M296.128 109.200 C 296.128 110.630,296.201 111.215,296.289 110.500 C 296.378 109.785,296.378 108.615,296.289 107.900 C 296.201 107.185,296.128 107.770,296.128 109.200 M310.100 125.087 C 310.705 125.178,311.695 125.178,312.300 125.087 C 312.905 124.995,312.410 124.920,311.200 124.920 C 309.990 124.920,309.495 124.995,310.100 125.087 M264.093 152.000 C 264.093 152.770,264.175 153.085,264.276 152.700 C 264.376 152.315,264.376 151.685,264.276 151.300 C 264.175 150.915,264.093 151.230,264.093 152.000 M268.300 157.082 C 268.795 157.178,269.605 157.178,270.100 157.082 C 270.595 156.987,270.190 156.909,269.200 156.909 C 268.210 156.909,267.805 156.987,268.300 157.082 M205.541 189.301 C 205.707 189.467,233.283 189.557,266.821 189.501 L 327.800 189.400 266.520 189.200 C 232.816 189.090,205.376 189.136,205.541 189.301 M61.384 200.500 C 61.278 200.775,61.239 211.530,61.296 224.400 L 61.400 247.800 74.595 247.800 C 86.925 247.800,87.793 247.754,87.854 247.092 C 87.899 246.597,87.862 246.567,87.730 246.992 C 87.566 247.520,85.824 247.600,74.564 247.600 L 61.588 247.600 61.694 223.800 C 61.752 210.710,61.749 200.000,61.687 200.000 C 61.626 200.000,61.489 200.225,61.384 200.500 M205.395 224.000 L 205.400 247.800 274.600 247.802 L 343.800 247.803 274.703 247.701 L 205.606 247.598 205.498 223.899 L 205.390 200.200 205.395 224.000 M87.709 216.000 C 87.709 216.990,87.787 217.395,87.882 216.900 C 87.978 216.405,87.978 215.595,87.882 215.100 C 87.787 214.605,87.709 215.010,87.709 216.000 M269.372 224.000 C 269.372 229.170,269.429 231.285,269.499 228.700 C 269.568 226.115,269.568 221.885,269.499 219.300 C 269.429 216.715,269.372 218.830,269.372 224.000 M87.709 232.000 C 87.709 232.990,87.787 233.395,87.882 232.900 C 87.978 232.405,87.978 231.595,87.882 231.100 C 87.787 230.605,87.709 231.010,87.709 232.000 M257.063 237.300 C 257.299 237.685,259.656 237.679,260.265 237.292 C 260.521 237.129,259.864 236.997,258.805 236.998 C 257.746 236.999,256.962 237.135,257.063 237.300 M274.800 237.200 C 273.416 237.491,273.414 237.495,274.600 237.541 C 275.260 237.567,276.070 237.413,276.400 237.200 C 277.066 236.770,276.845 236.770,274.800 237.200 M289.063 237.300 C 289.299 237.685,291.656 237.679,292.265 237.292 C 292.521 237.129,291.864 236.997,290.805 236.998 C 289.746 236.999,288.962 237.135,289.063 237.300 " stroke="none" fill="#88695f" fill-rule="evenodd"></path><path id="path4" d="M242.833 77.344 C 242.925 77.423,243.540 77.608,244.200 77.756 C 245.076 77.952,245.238 77.915,244.800 77.618 C 244.260 77.253,242.432 76.998,242.833 77.344 M256.000 77.842 C 255.431 78.191,255.345 78.318,255.800 78.137 C 256.240 77.962,257.618 77.815,258.862 77.810 C 260.106 77.804,261.040 77.665,260.938 77.500 C 260.607 76.964,257.027 77.212,256.000 77.842 M247.787 80.300 C 250.670 83.319,250.549 83.309,253.015 80.700 L 255.000 78.600 252.986 80.500 C 250.493 82.852,250.715 82.870,247.812 80.100 L 245.400 77.800 247.787 80.300 M237.314 82.600 C 237.317 83.700,237.395 84.103,237.487 83.495 C 237.579 82.886,237.577 81.986,237.482 81.495 C 237.387 81.003,237.311 81.500,237.314 82.600 M263.094 85.303 L 262.388 86.600 263.194 85.656 C 263.880 84.852,264.246 83.994,263.900 84.003 C 263.845 84.004,263.482 84.589,263.094 85.303 M237.600 85.001 C 237.600 85.128,238.790 86.498,240.243 88.046 C 241.697 89.594,242.822 90.689,242.743 90.478 C 242.556 89.978,237.600 84.700,237.600 85.001 M258.432 90.413 C 258.414 90.749,259.525 92.099,260.900 93.413 L 263.400 95.800 261.147 93.400 C 259.908 92.080,258.797 90.730,258.678 90.400 C 258.490 89.875,258.459 89.877,258.432 90.413 M237.314 98.600 C 237.317 99.700,237.395 100.103,237.487 99.495 C 237.579 98.886,237.577 97.986,237.482 97.495 C 237.387 97.003,237.311 97.500,237.314 98.600 M250.400 98.678 C 250.730 98.797,252.080 99.908,253.400 101.147 L 255.800 103.400 253.413 100.900 C 252.099 99.525,250.749 98.414,250.413 98.432 C 249.877 98.459,249.875 98.490,250.400 98.678 M263.600 100.303 C 263.600 100.542,263.111 101.337,262.514 102.069 C 261.621 103.164,261.592 103.259,262.351 102.604 C 263.429 101.675,264.165 100.431,263.832 100.099 C 263.705 99.971,263.600 100.063,263.600 100.303 M237.964 101.533 C 238.180 101.936,238.671 102.521,239.055 102.833 C 239.487 103.184,239.390 102.904,238.801 102.100 C 237.751 100.665,237.357 100.398,237.964 101.533 M296.229 105.429 C 296.081 106.015,296.038 106.572,296.132 106.666 C 296.227 106.760,296.424 106.358,296.571 105.771 C 296.719 105.185,296.762 104.628,296.668 104.534 C 296.573 104.440,296.376 104.842,296.229 105.429 M296.006 112.233 C 296.009 112.655,296.195 113.270,296.418 113.600 C 296.715 114.038,296.752 113.876,296.556 113.000 C 296.227 111.529,295.998 111.210,296.006 112.233 M163.100 114.700 C 169.975 114.761,181.225 114.761,188.100 114.700 C 194.975 114.638,189.350 114.588,175.600 114.588 C 161.850 114.588,156.225 114.638,163.100 114.700 M142.560 117.548 C 140.678 118.934,139.142 120.581,138.221 122.200 C 137.552 123.377,137.553 123.381,138.254 122.400 C 139.232 121.033,142.380 117.916,143.600 117.106 C 144.150 116.741,144.492 116.433,144.360 116.421 C 144.228 116.409,143.418 116.917,142.560 117.548 M205.104 153.304 C 205.162 172.700,205.342 188.702,205.504 188.864 C 205.667 189.027,205.753 173.291,205.696 153.896 C 205.638 134.500,205.458 118.498,205.296 118.336 C 205.133 118.173,205.047 133.909,205.104 153.304 M300.400 120.600 C 301.146 121.370,301.847 122.000,301.957 122.000 C 302.067 122.000,301.546 121.370,300.800 120.600 C 300.054 119.830,299.353 119.200,299.243 119.200 C 299.133 119.200,299.654 119.830,300.400 120.600 M307.200 124.782 C 307.530 125.005,308.145 125.191,308.567 125.194 C 309.590 125.202,309.271 124.973,307.800 124.644 C 306.924 124.448,306.762 124.485,307.200 124.782 M311.100 125.482 C 311.595 125.578,312.405 125.578,312.900 125.482 C 313.395 125.387,312.990 125.309,312.000 125.309 C 311.010 125.309,310.605 125.387,311.100 125.482 M136.200 126.800 C 136.048 127.491,136.007 128.141,136.109 128.242 C 136.211 128.344,136.409 127.853,136.550 127.150 C 136.883 125.483,136.560 125.160,136.200 126.800 M135.600 140.733 C 135.600 141.079,131.779 141.225,120.900 141.295 L 106.200 141.390 120.775 141.500 C 134.460 141.603,136.789 141.455,135.873 140.540 C 135.723 140.390,135.600 140.477,135.600 140.733 M272.605 148.235 C 273.482 149.096,274.276 149.754,274.368 149.698 C 274.630 149.541,272.694 147.577,271.805 147.099 C 271.368 146.863,271.728 147.375,272.605 148.235 M274.493 152.000 C 274.493 152.770,274.575 153.085,274.676 152.700 C 274.776 152.315,274.776 151.685,274.676 151.300 C 274.575 150.915,274.493 151.230,274.493 152.000 M273.029 155.562 L 271.858 157.000 273.209 155.713 C 273.951 155.005,274.478 154.358,274.379 154.275 C 274.281 154.192,273.673 154.771,273.029 155.562 M61.867 200.267 C 61.720 200.413,61.600 211.123,61.600 224.067 L 61.600 247.600 74.557 247.600 L 87.513 247.600 87.731 246.700 C 88.104 245.165,87.960 201.946,87.579 200.945 L 87.220 200.000 74.677 200.000 C 67.778 200.000,62.013 200.120,61.867 200.267 M205.600 223.801 L 205.600 247.602 275.100 247.501 L 344.600 247.400 344.703 224.026 C 344.785 205.591,344.700 200.584,344.303 200.332 C 344.026 200.156,312.705 200.009,274.700 200.006 L 205.600 200.000 205.600 223.801 M261.614 211.400 C 263.912 212.896,264.000 213.361,264.000 224.023 L 264.000 233.939 262.952 235.184 C 260.210 238.443,256.452 238.285,254.100 234.811 C 252.943 233.103,252.693 215.741,253.794 213.612 C 255.196 210.901,259.136 209.787,261.614 211.400 M278.592 212.444 L 280.000 214.002 280.000 223.839 C 280.000 234.871,279.924 235.221,277.182 236.762 C 274.759 238.124,271.998 237.452,270.235 235.072 C 269.261 233.756,268.726 217.218,269.566 214.376 C 270.742 210.395,275.769 209.319,278.592 212.444 M293.614 211.400 C 295.908 212.893,296.000 213.375,296.000 223.892 C 296.000 234.865,295.922 235.222,293.182 236.762 C 290.575 238.227,287.917 237.495,286.100 234.811 C 284.972 233.144,284.691 215.745,285.759 213.679 C 287.218 210.859,291.067 209.742,293.614 211.400 M205.383 258.900 C 205.278 259.175,205.240 267.500,205.300 277.400 L 205.408 295.400 205.504 277.102 L 205.600 258.803 251.500 258.700 L 297.400 258.597 251.487 258.498 C 215.054 258.420,205.535 258.503,205.383 258.900 " stroke="none" fill="#9c847c" fill-rule="evenodd"></path></g></svg>