<svg id="svg" version="1.1" xmlns="http://www.w3.org/2000/svg" xmlns:xlink="http://www.w3.org/1999/xlink" width="400" height="400" viewBox="0, 0, 400,400"><g id="svgg"><path id="path0" d="M62.000 55.600 C 62.000 55.820,61.370 56.000,60.600 56.000 C 59.830 56.000,59.200 56.180,59.200 56.400 C 59.200 56.620,58.840 56.800,58.400 56.800 C 57.960 56.800,57.600 56.980,57.600 57.200 C 57.600 57.420,57.240 57.600,56.800 57.600 C 56.360 57.600,56.000 57.780,56.000 58.000 C 56.000 58.220,55.664 58.400,55.254 58.400 C 54.486 58.400,50.400 62.136,50.400 62.839 C 50.400 63.056,50.040 63.620,49.600 64.092 C 49.160 64.564,48.800 65.367,48.800 65.875 C 48.800 66.384,48.620 66.800,48.400 66.800 C 48.180 66.800,48.000 67.340,48.000 68.000 C 48.000 68.660,47.819 69.200,47.599 69.200 C 47.119 69.200,47.297 345.764,47.778 348.100 C 47.948 348.925,48.248 349.600,48.444 349.600 C 48.640 349.600,48.800 349.960,48.800 350.400 C 48.800 350.840,48.980 351.200,49.200 351.200 C 49.420 351.200,49.600 351.488,49.600 351.840 C 49.600 352.191,50.140 352.983,50.800 353.600 C 51.460 354.217,52.000 354.919,52.000 355.160 C 52.000 355.402,52.137 355.600,52.304 355.600 C 52.471 355.600,53.056 356.015,53.604 356.522 C 54.723 357.558,57.045 358.800,57.861 358.800 C 58.158 358.800,58.400 358.980,58.400 359.200 C 58.400 359.420,58.850 359.600,59.400 359.600 C 59.950 359.600,60.400 359.780,60.400 360.000 C 60.400 360.266,93.000 360.400,157.400 360.400 C 221.800 360.400,254.400 360.266,254.400 360.000 C 254.400 359.780,254.940 359.600,255.600 359.600 C 256.260 359.600,256.800 359.462,256.800 359.294 C 256.800 359.126,257.526 358.674,258.413 358.290 C 260.040 357.585,264.400 353.581,264.400 352.792 C 264.400 352.558,264.760 351.980,265.200 351.508 C 265.640 351.036,266.000 350.233,266.000 349.725 C 266.000 349.216,266.180 348.800,266.400 348.800 C 266.620 348.800,266.800 348.080,266.800 347.200 C 266.800 346.320,266.980 345.600,267.200 345.600 C 267.464 345.600,267.600 332.067,267.600 305.800 C 267.600 270.642,267.530 266.000,266.998 266.000 C 266.466 266.000,266.408 260.380,266.498 216.900 L 266.600 167.800 274.571 167.691 C 280.681 167.608,282.617 167.701,282.865 168.091 C 283.042 168.371,283.191 173.661,283.194 179.846 C 283.202 195.451,282.077 194.400,298.786 194.400 C 310.890 194.400,311.317 194.346,312.907 192.626 C 313.803 191.657,314.037 190.722,314.350 186.872 L 314.600 183.800 323.400 183.600 C 336.949 183.292,335.597 186.499,335.599 154.680 C 335.600 122.853,336.885 126.000,323.894 126.000 C 314.245 126.000,314.409 126.051,314.383 123.020 C 314.351 119.357,313.791 117.504,312.351 116.303 L 311.030 115.200 298.895 115.200 C 282.012 115.200,283.475 113.839,283.200 129.800 L 283.000 141.400 274.720 141.508 L 266.440 141.616 266.308 105.908 C 266.161 66.018,266.358 68.756,263.298 64.095 C 261.028 60.638,257.866 58.380,253.172 56.862 C 252.135 56.527,241.798 56.400,215.459 56.400 C 183.575 56.400,179.147 56.327,178.945 55.800 C 178.663 55.066,62.000 54.867,62.000 55.600 M109.229 68.800 C 109.624 70.010,109.959 71.219,109.974 71.486 C 109.994 71.861,105.238 71.999,89.300 72.086 C 66.444 72.212,66.603 72.194,65.082 74.768 C 64.218 76.231,64.001 339.308,64.863 340.918 C 65.405 341.930,65.902 342.413,67.110 343.100 C 67.805 343.495,83.631 343.600,142.518 343.600 L 217.048 343.600 219.224 341.759 C 220.421 340.747,221.850 339.528,222.400 339.049 C 222.950 338.571,226.100 335.847,229.400 332.996 C 232.700 330.144,235.595 327.629,235.834 327.406 C 236.072 327.183,237.227 326.190,238.400 325.200 C 239.573 324.210,240.728 323.216,240.966 322.991 C 241.205 322.766,243.227 321.008,245.460 319.084 C 247.693 317.160,249.673 315.274,249.860 314.893 C 250.047 314.512,250.290 281.260,250.400 241.000 L 250.600 167.800 252.573 167.675 C 253.659 167.606,254.964 167.655,255.473 167.783 L 256.400 168.015 256.400 255.812 L 256.400 343.609 255.540 345.438 C 254.999 346.588,254.082 347.664,253.069 348.334 L 251.458 349.400 157.166 349.400 L 62.874 349.400 61.352 348.168 C 60.514 347.490,59.521 346.410,59.144 345.768 C 58.244 344.234,58.003 72.300,58.900 70.695 C 61.376 66.265,60.401 66.415,86.156 66.514 L 108.511 66.600 109.229 68.800 M195.200 66.986 C 195.200 67.673,188.969 86.538,188.375 87.646 C 187.850 88.628,127.271 88.850,126.460 87.872 C 125.919 87.221,119.600 68.096,119.600 67.111 C 119.600 66.435,121.442 66.400,157.400 66.400 C 190.321 66.400,195.200 66.476,195.200 66.986 M252.382 67.191 C 253.995 68.014,255.126 69.353,255.935 71.400 C 256.290 72.300,256.383 81.201,256.304 107.000 L 256.200 141.400 253.400 141.400 L 250.600 141.400 250.400 108.600 C 250.193 74.631,250.212 74.988,248.537 73.565 C 246.845 72.126,244.924 72.000,224.720 72.000 C 213.837 72.000,204.837 71.903,204.719 71.785 C 204.520 71.586,204.919 70.205,205.958 67.500 L 206.380 66.400 228.606 66.400 C 249.958 66.400,250.893 66.431,252.382 67.191 M113.357 82.519 C 113.762 82.815,114.992 85.780,116.220 89.419 C 117.940 94.517,118.618 96.021,119.593 96.900 L 120.813 98.000 157.463 98.000 L 194.113 98.000 195.301 96.700 C 196.169 95.751,197.056 93.679,198.589 89.025 C 200.117 84.385,200.894 82.569,201.444 82.353 C 202.950 81.762,239.455 81.943,239.954 82.544 C 240.282 82.940,240.377 91.038,240.303 112.244 L 240.200 141.400 221.200 141.400 L 202.200 141.400 202.094 129.707 L 201.988 118.015 200.581 116.607 L 199.173 115.200 186.967 115.200 C 171.384 115.200,171.200 115.278,171.200 121.900 C 171.200 126.224,171.736 126.000,161.375 126.000 L 152.509 126.000 151.446 127.063 C 149.800 128.709,149.800 128.710,149.800 155.000 C 149.800 186.476,148.443 183.294,162.000 183.598 L 171.000 183.800 171.116 187.361 C 171.340 194.193,171.799 194.400,186.707 194.400 C 203.114 194.400,202.000 195.493,202.000 179.389 L 202.000 168.015 202.900 167.797 C 203.395 167.676,211.990 167.628,222.000 167.689 L 240.200 167.800 240.200 237.400 L 240.200 307.000 225.868 307.105 L 211.536 307.210 210.068 308.595 L 208.600 309.979 208.467 321.489 C 208.383 328.661,208.177 333.187,207.918 333.499 C 207.372 334.156,75.999 334.242,74.774 333.586 C 73.619 332.968,73.546 83.104,74.700 82.432 C 75.826 81.776,112.454 81.859,113.357 82.519 M191.367 125.443 C 192.335 125.814,192.335 183.386,191.367 183.757 C 190.452 184.108,181.603 184.056,181.586 183.700 C 181.419 180.092,181.608 125.910,181.789 125.617 C 182.065 125.170,190.268 125.021,191.367 125.443 M303.803 126.100 C 303.922 126.595,303.971 139.780,303.910 155.400 L 303.800 183.800 298.800 183.800 L 293.800 183.800 293.697 155.000 C 293.640 139.160,293.679 125.975,293.784 125.700 C 294.182 124.657,303.544 125.031,303.803 126.100 M170.400 154.612 L 170.400 173.224 165.300 173.112 L 160.200 173.000 160.096 155.000 C 160.038 145.100,160.078 136.775,160.183 136.500 C 160.322 136.137,161.746 136.000,165.387 136.000 L 170.400 136.000 170.400 154.612 M325.104 154.700 L 325.208 173.200 320.004 173.200 L 314.800 173.200 314.800 154.588 L 314.800 135.976 319.900 136.088 L 325.000 136.200 325.104 154.700 M125.975 142.229 C 124.721 142.893,123.923 143.768,122.898 145.600 C 122.468 146.370,120.173 150.240,117.798 154.200 C 115.423 158.160,113.076 162.120,112.582 163.000 C 111.231 165.407,110.631 165.241,106.807 161.404 C 102.267 156.849,99.185 156.630,96.900 160.699 C 95.469 163.247,96.238 164.513,103.696 171.900 L 109.856 178.000 111.828 177.998 C 114.382 177.995,115.368 177.173,117.979 172.871 C 119.091 171.039,120.000 169.452,120.000 169.343 C 120.000 169.233,120.540 168.359,121.200 167.400 C 121.860 166.441,122.400 165.478,122.400 165.261 C 122.400 165.044,122.535 164.807,122.700 164.733 C 123.076 164.566,124.375 162.436,124.671 161.500 C 124.793 161.115,125.052 160.800,125.247 160.800 C 125.441 160.800,125.600 160.607,125.600 160.372 C 125.600 160.137,126.140 159.159,126.800 158.200 C 127.460 157.241,128.000 156.376,128.000 156.279 C 128.000 156.182,129.030 154.414,130.290 152.351 C 133.610 146.912,133.491 144.002,129.874 142.197 C 128.446 141.485,127.361 141.494,125.975 142.229 M282.600 154.600 L 282.600 157.400 242.825 157.502 C 211.269 157.583,202.984 157.500,202.731 157.102 C 202.234 156.319,202.345 152.615,202.882 152.078 C 203.253 151.707,212.499 151.620,242.982 151.698 L 282.600 151.800 282.600 154.600 M100.102 216.783 C 95.546 217.890,95.185 223.440,99.510 225.900 C 100.930 226.708,149.443 226.617,151.074 225.803 C 154.731 223.979,155.163 219.361,151.880 217.184 C 150.896 216.531,102.677 216.157,100.102 216.783 M98.919 233.184 C 95.831 235.067,95.601 238.565,98.400 241.095 L 99.400 241.999 141.425 242.000 C 183.194 242.000,183.454 241.995,184.326 241.183 C 187.151 238.551,186.678 234.798,183.300 233.052 C 181.159 231.945,100.745 232.070,98.919 233.184 M98.946 265.167 C 95.875 267.040,95.631 270.592,98.400 273.095 L 99.400 273.999 128.069 274.000 L 156.738 274.000 157.969 272.769 C 160.347 270.392,159.628 266.448,156.526 264.850 C 154.772 263.946,100.458 264.246,98.946 265.167 M296.600 268.800 C 296.464 269.020,296.085 269.200,295.758 269.200 C 294.977 269.200,293.200 270.993,293.200 271.782 C 293.200 272.122,293.020 272.400,292.800 272.400 C 290.923 272.400,292.643 277.373,295.539 280.320 L 297.678 282.496 295.682 284.548 C 293.242 287.055,292.400 288.657,292.400 290.788 C 292.400 292.609,294.019 295.600,295.005 295.600 C 295.332 295.600,295.600 295.780,295.600 296.000 C 295.600 296.231,296.874 296.400,298.622 296.400 L 301.644 296.400 304.000 294.000 C 306.569 291.383,307.124 291.168,308.012 292.448 C 310.311 295.765,311.365 296.400,314.569 296.400 C 316.323 296.400,317.600 296.231,317.600 296.000 C 317.600 295.780,317.883 295.600,318.229 295.600 C 318.574 295.600,319.114 295.343,319.429 295.029 C 319.743 294.714,320.000 294.174,320.000 293.829 C 320.000 293.483,320.180 293.200,320.400 293.200 C 320.626 293.200,320.800 292.067,320.800 290.600 C 320.800 289.133,320.626 288.000,320.400 288.000 C 320.180 288.000,320.000 287.748,320.000 287.441 C 320.000 287.133,319.100 285.962,318.000 284.839 C 315.522 282.308,315.507 282.506,318.400 279.568 C 320.739 277.192,320.800 277.075,320.800 274.960 C 320.800 272.171,319.055 269.200,317.418 269.200 C 317.078 269.200,316.800 269.020,316.800 268.800 C 316.800 268.580,315.900 268.400,314.800 268.400 C 313.700 268.400,312.800 268.580,312.800 268.800 C 312.800 269.020,312.464 269.200,312.054 269.200 C 311.643 269.200,310.279 270.188,309.023 271.395 L 306.738 273.590 304.543 271.395 C 303.085 269.937,302.021 269.200,301.374 269.200 C 300.838 269.200,300.400 269.020,300.400 268.800 C 300.400 268.580,299.601 268.400,298.624 268.400 C 297.647 268.400,296.736 268.580,296.600 268.800 M98.338 281.702 C 95.332 284.243,96.008 288.262,99.719 289.905 C 101.668 290.768,128.654 290.541,130.200 289.649 C 132.923 288.077,133.506 284.199,131.357 281.955 L 130.250 280.800 114.825 280.802 C 99.422 280.804,99.398 280.805,98.338 281.702 M145.996 281.943 C 144.415 283.454,144.262 286.796,145.700 288.409 C 147.504 290.432,147.010 290.400,176.119 290.398 L 203.400 290.396 204.916 289.478 C 207.945 287.644,208.492 284.519,206.187 282.213 L 204.773 280.800 175.983 280.800 L 147.193 280.800 145.996 281.943 M99.021 297.150 C 95.886 298.989,95.607 302.570,98.400 305.095 L 99.400 305.999 141.425 306.000 C 183.194 306.000,183.454 305.995,184.326 305.183 C 187.053 302.643,186.567 298.771,183.287 296.900 C 181.720 296.006,100.561 296.247,99.021 297.150 M230.000 317.211 C 230.666 317.653,228.069 320.257,223.584 323.645 C 222.823 324.220,221.596 325.255,220.858 325.945 C 218.570 328.084,218.400 327.829,218.400 322.267 C 218.400 319.553,218.520 317.213,218.667 317.067 C 219.093 316.641,229.338 316.771,230.000 317.211 " stroke="none" fill="#54281e" fill-rule="evenodd"></path><path id="path1" d="M178.920 55.759 C 179.025 56.076,189.383 56.210,215.633 56.235 L 252.200 56.270 218.400 55.969 C 199.810 55.803,183.289 55.589,181.686 55.493 C 179.674 55.372,178.818 55.455,178.920 55.759 M252.800 56.760 C 253.130 56.995,253.684 57.191,254.032 57.194 C 256.238 57.215,261.205 60.909,263.282 64.072 C 266.361 68.759,266.161 65.999,266.308 105.908 L 266.440 141.616 274.720 141.508 L 283.000 141.400 283.200 129.800 C 283.475 113.839,282.012 115.200,298.895 115.200 L 311.030 115.200 312.351 116.303 C 313.791 117.504,314.351 119.357,314.383 123.020 C 314.409 126.051,314.245 126.000,323.894 126.000 C 336.885 126.000,335.600 122.853,335.599 154.680 C 335.597 186.499,336.949 183.292,323.400 183.600 L 314.600 183.800 314.350 186.872 C 313.966 191.600,313.363 193.023,311.443 193.737 C 311.026 193.892,310.796 194.129,310.930 194.264 C 311.299 194.633,313.095 193.331,313.894 192.115 C 314.373 191.387,314.664 189.942,314.800 187.621 L 315.000 184.200 323.800 184.000 C 337.320 183.693,336.000 186.872,336.000 154.614 L 336.000 129.189 335.114 127.837 C 333.555 125.459,333.378 125.418,323.800 125.200 L 315.000 125.000 314.778 121.800 C 314.288 114.725,314.459 114.800,298.812 114.800 C 281.482 114.800,282.800 113.567,282.800 129.774 L 282.800 141.200 274.800 141.200 L 266.800 141.200 266.798 107.100 C 266.796 87.121,266.636 72.025,266.410 70.645 C 265.538 65.320,261.776 60.170,257.094 57.892 C 254.743 56.748,251.632 55.928,252.800 56.760 M62.600 66.965 C 61.367 67.517,59.784 69.113,58.900 70.695 C 58.003 72.300,58.244 344.234,59.144 345.768 C 59.521 346.410,60.514 347.490,61.352 348.168 L 62.874 349.400 156.937 349.403 L 251.000 349.406 157.200 349.203 L 63.400 349.000 61.985 348.120 C 61.206 347.636,60.171 346.531,59.685 345.665 L 58.800 344.091 58.800 208.172 L 58.800 72.253 59.634 70.529 C 60.093 69.581,61.038 68.399,61.734 67.903 L 63.000 67.000 85.562 67.000 L 108.123 67.000 108.854 69.150 C 109.256 70.333,109.488 71.458,109.369 71.650 C 109.250 71.843,109.343 72.000,109.576 72.000 C 110.144 72.000,110.080 71.407,109.229 68.800 L 108.511 66.600 86.156 66.514 C 68.159 66.445,63.566 66.533,62.600 66.965 M119.600 67.111 C 119.600 68.096,125.919 87.221,126.460 87.872 C 127.271 88.850,187.850 88.628,188.375 87.646 C 188.969 86.538,195.200 67.673,195.200 66.986 C 195.200 66.476,190.321 66.400,157.400 66.400 C 121.442 66.400,119.600 66.435,119.600 67.111 M205.958 67.500 C 204.548 71.172,204.354 72.979,205.493 71.840 C 205.625 71.708,205.544 71.600,205.313 71.600 C 204.897 71.600,205.579 69.135,206.441 67.524 C 206.827 66.803,207.692 66.779,229.152 66.887 L 251.463 67.000 252.932 68.121 C 256.000 70.461,255.787 67.717,255.909 106.500 L 256.017 141.200 253.409 141.200 L 250.800 141.200 250.800 108.754 C 250.800 76.563,250.793 76.297,249.962 74.818 C 249.019 73.139,247.338 71.979,245.938 72.042 C 245.200 72.075,245.308 72.182,246.444 72.542 C 248.084 73.062,249.030 73.763,249.722 74.967 C 250.077 75.587,250.251 84.207,250.400 108.600 L 250.600 141.400 253.400 141.400 L 256.200 141.400 256.304 107.000 C 256.414 71.053,256.438 71.619,254.696 69.091 C 252.811 66.353,253.267 66.400,228.606 66.400 L 206.380 66.400 205.958 67.500 M194.400 68.176 C 194.400 68.713,194.220 69.264,194.000 69.400 C 193.780 69.536,193.600 70.076,193.600 70.600 C 193.600 71.124,193.420 71.664,193.200 71.800 C 192.980 71.936,192.800 72.476,192.800 73.000 C 192.800 73.524,192.620 74.064,192.400 74.200 C 192.180 74.336,192.000 74.876,192.000 75.400 C 192.000 75.924,191.820 76.464,191.600 76.600 C 191.380 76.736,191.200 77.276,191.200 77.800 C 191.200 78.324,191.020 78.864,190.800 79.000 C 190.580 79.136,190.400 79.676,190.400 80.200 C 190.400 80.724,190.220 81.264,190.000 81.400 C 189.780 81.536,189.600 82.076,189.600 82.600 C 189.600 83.124,189.420 83.664,189.200 83.800 C 188.980 83.936,188.800 84.361,188.800 84.744 C 188.800 85.127,188.575 85.925,188.300 86.517 L 187.800 87.594 157.444 87.597 C 124.129 87.600,126.048 87.739,126.013 85.324 C 126.006 84.842,125.820 84.336,125.600 84.200 C 125.380 84.064,125.200 83.524,125.200 83.000 C 125.200 82.476,125.020 81.936,124.800 81.800 C 124.580 81.664,124.400 81.124,124.400 80.600 C 124.400 80.076,124.220 79.536,124.000 79.400 C 123.780 79.264,123.600 78.724,123.600 78.200 C 123.600 77.676,123.420 77.136,123.200 77.000 C 122.980 76.864,122.800 76.324,122.800 75.800 C 122.800 75.276,122.620 74.736,122.400 74.600 C 122.180 74.464,122.000 73.924,122.000 73.400 C 122.000 72.876,121.820 72.336,121.600 72.200 C 121.380 72.064,121.200 71.549,121.200 71.056 C 121.200 70.563,121.043 69.989,120.852 69.780 C 120.660 69.571,120.387 68.905,120.244 68.300 L 119.985 67.200 157.192 67.200 L 194.400 67.200 194.400 68.176 M66.519 72.784 C 63.769 74.461,64.000 62.042,64.001 208.080 C 64.003 356.338,63.708 341.801,66.751 343.375 C 67.926 343.982,216.118 344.415,216.721 343.812 C 216.838 343.696,183.421 343.600,142.461 343.600 C 83.619 343.600,67.805 343.495,67.110 343.100 C 65.902 342.413,65.405 341.930,64.863 340.918 C 64.007 339.318,64.217 76.045,65.076 74.789 C 65.890 73.597,66.550 73.148,68.397 72.531 C 69.607 72.126,69.662 72.057,68.800 72.032 C 68.250 72.016,67.224 72.354,66.519 72.784 M74.700 82.432 C 73.546 83.104,73.619 332.968,74.774 333.586 C 75.999 334.242,207.372 334.156,207.918 333.499 C 208.177 333.187,208.383 328.654,208.467 321.466 L 208.600 309.933 209.938 308.738 C 210.674 308.081,211.170 307.437,211.041 307.307 C 210.752 307.018,209.294 308.299,208.663 309.396 C 208.356 309.929,208.133 314.045,208.000 321.600 L 207.800 333.000 141.400 333.000 L 75.000 333.000 74.899 207.900 L 74.799 82.800 93.950 82.800 C 108.803 82.800,113.187 82.912,113.480 83.300 C 113.688 83.575,114.735 86.500,115.807 89.800 C 118.070 96.767,119.053 98.156,122.024 98.585 C 126.984 99.300,193.772 98.619,194.920 97.841 C 196.406 96.834,196.857 95.884,199.162 88.913 L 201.117 83.000 220.459 83.000 L 239.800 83.000 239.903 112.100 L 240.005 141.200 221.430 141.200 L 202.855 141.200 202.727 129.700 C 202.549 113.576,203.889 114.800,186.414 114.800 L 173.988 114.800 172.573 116.100 C 170.987 117.557,170.424 119.318,170.410 122.872 L 170.400 125.144 161.681 125.272 C 147.938 125.474,149.203 122.506,149.201 154.546 C 149.200 186.778,147.922 183.694,161.400 184.000 L 170.200 184.200 170.438 187.401 C 170.757 191.680,172.703 194.953,174.524 194.273 C 174.786 194.175,174.526 193.906,173.947 193.675 C 171.957 192.882,171.245 191.293,171.116 187.361 L 171.000 183.800 162.000 183.598 C 148.443 183.294,149.800 186.476,149.800 155.000 C 149.800 128.710,149.800 128.709,151.446 127.063 L 152.509 126.000 161.375 126.000 C 171.736 126.000,171.200 126.224,171.200 121.900 C 171.200 115.278,171.384 115.200,186.967 115.200 L 199.173 115.200 200.581 116.607 L 201.988 118.015 202.094 129.707 L 202.200 141.400 221.200 141.400 L 240.200 141.400 240.303 112.244 C 240.377 91.038,240.282 82.940,239.954 82.544 C 239.455 81.943,202.950 81.762,201.444 82.353 C 200.894 82.569,200.117 84.385,198.589 89.025 C 197.056 93.679,196.169 95.751,195.301 96.700 L 194.113 98.000 157.463 98.000 L 120.813 98.000 119.593 96.900 C 118.618 96.021,117.940 94.517,116.220 89.419 C 114.992 85.780,113.762 82.815,113.357 82.519 C 112.454 81.859,75.826 81.776,74.700 82.432 M181.789 125.617 C 181.608 125.910,181.419 180.092,181.586 183.700 C 181.603 184.056,190.452 184.108,191.367 183.757 C 192.335 183.386,192.335 125.814,191.367 125.443 C 190.268 125.021,182.065 125.170,181.789 125.617 M293.784 125.700 C 293.679 125.975,293.640 139.160,293.697 155.000 L 293.800 183.800 298.800 183.800 L 303.800 183.800 303.910 155.400 C 303.971 139.780,303.922 126.595,303.803 126.100 C 303.544 125.031,294.182 124.657,293.784 125.700 M160.183 136.500 C 160.078 136.775,160.038 145.100,160.096 155.000 L 160.200 173.000 165.300 173.112 L 170.400 173.224 170.400 154.612 L 170.400 136.000 165.387 136.000 C 161.746 136.000,160.322 136.137,160.183 136.500 M314.800 154.588 L 314.800 173.200 320.004 173.200 L 325.208 173.200 325.104 154.700 L 325.000 136.200 319.900 136.088 L 314.800 135.976 314.800 154.588 M125.514 142.020 C 124.286 142.668,123.315 143.995,119.914 149.670 C 117.651 153.447,115.350 157.281,114.800 158.191 C 114.250 159.100,113.269 160.735,112.619 161.822 C 110.916 164.675,110.937 164.679,107.193 161.016 C 103.368 157.272,102.003 156.687,99.517 157.725 C 96.556 158.963,95.164 162.450,96.568 165.120 C 97.227 166.374,109.099 178.234,109.397 177.936 C 109.507 177.826,106.883 175.050,103.566 171.768 C 96.248 164.526,95.473 163.239,96.900 160.699 C 99.185 156.630,102.267 156.849,106.807 161.404 C 110.631 165.241,111.231 165.407,112.582 163.000 C 113.076 162.120,115.423 158.160,117.798 154.200 C 120.173 150.240,122.468 146.370,122.898 145.600 C 125.332 141.247,128.944 140.444,131.815 143.616 C 133.361 145.325,132.874 148.118,130.290 152.351 C 129.030 154.414,128.000 156.182,128.000 156.279 C 128.000 156.376,127.460 157.241,126.800 158.200 C 126.140 159.159,125.600 160.122,125.600 160.339 C 125.600 160.556,125.465 160.793,125.300 160.867 C 124.924 161.034,123.625 163.164,123.329 164.100 C 123.207 164.485,122.948 164.800,122.753 164.800 C 122.559 164.800,122.400 164.993,122.400 165.228 C 122.400 165.463,121.860 166.441,121.200 167.400 C 120.540 168.359,120.000 169.233,120.000 169.343 C 120.000 169.452,119.091 171.039,117.979 172.871 C 115.364 177.181,114.385 177.994,111.800 178.004 C 110.361 178.010,109.968 178.121,110.400 178.400 C 112.410 179.699,118.000 176.294,118.000 173.770 C 118.000 173.635,118.339 173.046,118.753 172.462 C 119.167 171.878,119.863 170.770,120.299 170.000 C 120.734 169.230,123.210 165.090,125.800 160.800 C 131.010 152.171,131.864 150.721,132.705 149.079 C 135.055 144.492,130.080 139.609,125.514 142.020 M202.882 152.078 C 202.345 152.615,202.234 156.319,202.731 157.102 C 202.984 157.500,211.269 157.583,242.825 157.502 L 282.600 157.400 282.600 154.600 L 282.600 151.800 242.982 151.698 C 212.499 151.620,203.253 151.707,202.882 152.078 M281.600 154.800 L 281.600 156.800 242.600 156.800 L 203.600 156.800 203.600 154.800 L 203.600 152.800 242.600 152.800 L 281.600 152.800 281.600 154.800 M202.500 167.863 C 202.117 168.019,202.000 170.712,202.000 179.415 C 202.000 191.877,201.945 192.210,199.662 193.534 C 198.229 194.365,198.532 194.785,199.998 194.001 C 202.438 192.695,202.583 191.948,202.800 179.600 L 203.000 168.200 221.400 168.200 L 239.800 168.200 239.909 236.600 C 239.970 274.220,239.922 305.403,239.803 305.895 L 239.587 306.790 225.494 306.903 L 211.400 307.016 225.800 307.008 L 240.200 307.000 240.200 237.400 L 240.200 167.800 221.600 167.730 C 211.370 167.691,202.775 167.751,202.500 167.863 M250.667 167.867 C 250.520 168.013,250.400 200.872,250.400 240.887 C 250.400 303.174,250.318 313.799,249.828 314.745 C 249.514 315.353,247.669 317.214,245.728 318.880 C 243.788 320.546,241.750 322.305,241.200 322.789 C 240.650 323.273,239.315 324.419,238.234 325.335 C 237.152 326.251,236.072 327.183,235.834 327.406 C 235.595 327.629,232.700 330.138,229.400 332.981 C 226.100 335.825,223.310 338.252,223.200 338.376 C 223.090 338.499,221.830 339.577,220.400 340.770 C 218.970 341.964,217.620 343.122,217.400 343.344 C 216.605 344.145,219.379 342.257,220.574 341.183 C 222.753 339.227,242.885 321.838,244.366 320.633 C 245.154 319.992,246.925 318.333,248.300 316.947 L 250.800 314.427 250.800 241.195 L 250.800 167.962 253.300 168.081 L 255.800 168.200 255.901 255.354 C 255.969 314.125,255.868 343.005,255.590 344.036 C 255.100 345.857,253.456 347.923,252.080 348.446 C 251.535 348.653,251.200 348.934,251.336 349.070 C 251.897 349.630,254.714 347.196,255.540 345.438 L 256.400 343.609 256.400 255.847 C 256.400 176.189,256.342 168.063,255.767 167.843 C 254.913 167.515,251.000 167.533,250.667 167.867 M266.667 167.867 C 266.296 168.237,266.329 266.000,266.700 266.000 C 266.865 266.000,267.000 243.995,267.000 217.100 L 267.000 168.200 274.800 168.200 L 282.600 168.200 282.706 179.893 L 282.812 191.585 284.219 192.993 C 284.993 193.767,285.936 194.399,286.313 194.399 C 286.766 194.398,286.572 194.136,285.747 193.633 C 283.188 192.072,283.200 192.138,283.200 179.944 C 283.200 173.851,283.091 168.581,282.957 168.233 C 282.704 167.574,267.305 167.228,266.667 167.867 M180.924 194.699 C 184.183 194.767,189.403 194.766,192.524 194.699 C 195.646 194.631,192.980 194.576,186.600 194.577 C 180.220 194.577,177.666 194.632,180.924 194.699 M292.900 194.699 C 296.145 194.766,301.455 194.766,304.700 194.699 C 307.945 194.632,305.290 194.577,298.800 194.577 C 292.310 194.577,289.655 194.632,292.900 194.699 M98.849 216.678 C 95.647 218.270,95.021 222.137,97.538 224.783 C 98.904 226.219,100.449 227.050,99.800 226.000 C 99.664 225.780,99.371 225.600,99.148 225.600 C 96.012 225.600,95.798 218.882,98.879 217.126 C 100.263 216.336,150.223 216.356,151.701 217.147 C 153.415 218.064,154.623 220.883,153.989 222.485 C 152.377 226.557,153.618 226.385,125.039 226.497 L 100.200 226.594 124.800 226.714 C 141.320 226.796,149.883 226.696,150.871 226.410 C 155.075 225.196,155.959 219.221,152.293 216.792 C 150.841 215.830,100.770 215.723,98.849 216.678 M98.519 232.784 C 94.838 235.028,95.375 240.544,99.440 242.242 C 101.717 243.194,181.684 243.058,183.592 242.099 C 187.462 240.155,187.790 235.711,184.263 233.021 L 182.924 232.000 141.362 232.001 C 100.846 232.003,99.768 232.023,98.519 232.784 M183.300 233.052 C 186.678 234.798,187.151 238.551,184.326 241.183 C 183.454 241.995,183.194 242.000,141.425 242.000 L 99.400 241.999 98.400 241.095 C 95.601 238.565,95.831 235.067,98.919 233.184 C 100.745 232.070,181.159 231.945,183.300 233.052 M98.519 264.784 C 94.838 267.028,95.375 272.544,99.440 274.242 C 101.399 275.061,154.594 275.069,156.513 274.252 C 160.591 272.514,161.124 267.006,157.432 264.754 C 155.477 263.562,100.478 263.589,98.519 264.784 M156.526 264.850 C 159.628 266.448,160.347 270.392,157.969 272.769 L 156.738 274.000 128.069 274.000 L 99.400 273.999 98.400 273.095 C 95.631 270.592,95.875 267.040,98.946 265.167 C 100.458 264.246,154.772 263.946,156.526 264.850 M98.849 280.676 C 94.859 282.664,95.218 288.479,99.440 290.242 C 101.775 291.218,128.360 291.042,130.316 290.038 C 133.895 288.201,134.296 283.424,131.071 281.036 C 129.476 279.855,101.133 279.539,98.849 280.676 M146.825 280.731 C 142.874 282.850,143.263 288.452,147.487 290.252 C 149.686 291.189,202.905 291.047,204.792 290.099 C 208.851 288.060,209.024 282.536,205.087 280.668 C 202.825 279.595,148.834 279.653,146.825 280.731 M131.357 281.955 C 133.506 284.199,132.923 288.077,130.200 289.649 C 128.654 290.541,101.668 290.768,99.719 289.905 C 96.008 288.262,95.332 284.243,98.338 281.702 C 99.398 280.805,99.422 280.804,114.825 280.802 L 130.250 280.800 131.357 281.955 M206.187 282.213 C 208.492 284.519,207.945 287.644,204.916 289.478 L 203.400 290.396 176.119 290.398 C 147.010 290.400,147.504 290.432,145.700 288.409 C 144.262 286.796,144.415 283.454,145.996 281.943 L 147.193 280.800 175.983 280.800 L 204.773 280.800 206.187 282.213 M98.519 296.784 C 94.838 299.028,95.375 304.544,99.440 306.242 C 101.116 306.943,180.379 307.079,182.874 306.386 C 187.092 305.215,187.972 300.084,184.453 297.183 L 183.018 296.000 141.409 296.001 C 100.846 296.003,99.768 296.023,98.519 296.784 M183.287 296.900 C 186.567 298.771,187.053 302.643,184.326 305.183 C 183.454 305.995,183.194 306.000,141.425 306.000 L 99.400 305.999 98.400 305.095 C 95.607 302.570,95.886 298.989,99.021 297.150 C 100.561 296.247,181.720 296.006,183.287 296.900 M218.667 317.067 C 218.520 317.213,218.400 319.553,218.400 322.267 C 218.400 327.829,218.570 328.084,220.858 325.945 C 221.596 325.255,222.823 324.220,223.584 323.645 C 228.069 320.257,230.666 317.653,230.000 317.211 C 229.338 316.771,219.093 316.641,218.667 317.067 M229.200 317.980 C 229.200 318.189,228.946 318.504,228.636 318.680 C 228.325 318.856,227.470 319.540,226.734 320.200 C 225.999 320.860,224.408 322.210,223.199 323.200 C 221.989 324.190,220.651 325.315,220.225 325.700 C 219.798 326.085,219.303 326.400,219.125 326.400 C 218.737 326.400,218.682 318.251,219.067 317.867 C 219.490 317.443,229.200 317.552,229.200 317.980 " stroke="none" fill="#71525e" fill-rule="evenodd"></path><path id="path2" d="M215.100 55.900 C 221.535 55.962,232.065 55.962,238.500 55.900 C 244.935 55.838,239.670 55.787,226.800 55.787 C 213.930 55.787,208.665 55.838,215.100 55.900 M63.400 67.091 C 61.930 67.463,60.477 68.789,59.634 70.529 L 58.800 72.253 58.800 208.191 L 58.800 344.130 59.761 345.769 C 60.298 346.685,61.425 347.804,62.315 348.304 L 63.909 349.200 157.293 349.200 C 260.199 349.200,251.944 349.408,254.171 346.762 C 256.050 344.528,256.007 346.820,255.901 255.354 L 255.800 168.200 253.300 168.081 L 250.800 167.962 250.800 241.195 L 250.800 314.427 248.300 316.947 C 246.925 318.333,245.154 319.992,244.366 320.633 C 243.206 321.577,226.943 335.612,220.202 341.488 C 219.322 342.254,218.106 343.139,217.498 343.453 C 216.551 343.942,205.747 344.022,142.165 344.006 C 60.227 343.986,66.435 344.189,64.784 341.481 C 63.694 339.694,63.532 76.865,64.619 74.762 C 66.084 71.930,65.455 72.003,88.476 72.001 C 99.855 72.001,109.250 71.843,109.369 71.650 C 109.488 71.458,109.256 70.333,108.855 69.150 L 108.124 67.000 86.162 66.945 C 74.083 66.914,63.840 66.980,63.400 67.091 M206.441 67.524 C 205.333 69.593,204.895 71.551,205.487 71.778 C 205.805 71.900,215.248 72.000,226.471 72.000 C 249.258 72.000,248.315 71.887,249.962 74.818 C 250.793 76.297,250.800 76.563,250.800 108.754 L 250.800 141.200 253.409 141.200 L 256.017 141.200 255.909 106.500 C 255.787 67.717,256.000 70.461,252.932 68.121 L 251.463 67.000 229.152 66.887 C 207.692 66.779,206.827 66.803,206.441 67.524 M120.244 68.300 C 120.387 68.905,120.660 69.571,120.852 69.780 C 121.043 69.989,121.200 70.563,121.200 71.056 C 121.200 71.549,121.380 72.064,121.600 72.200 C 121.820 72.336,122.000 72.876,122.000 73.400 C 122.000 73.924,122.180 74.464,122.400 74.600 C 122.620 74.736,122.800 75.276,122.800 75.800 C 122.800 76.324,122.980 76.864,123.200 77.000 C 123.420 77.136,123.600 77.676,123.600 78.200 C 123.600 78.724,123.780 79.264,124.000 79.400 C 124.220 79.536,124.400 80.076,124.400 80.600 C 124.400 81.124,124.580 81.664,124.800 81.800 C 125.020 81.936,125.200 82.476,125.200 83.000 C 125.200 83.524,125.380 84.064,125.600 84.200 C 125.820 84.336,126.006 84.842,126.013 85.324 C 126.048 87.739,124.129 87.600,157.444 87.597 L 187.800 87.594 188.300 86.517 C 188.575 85.925,188.800 85.127,188.800 84.744 C 188.800 84.361,188.980 83.936,189.200 83.800 C 189.420 83.664,189.600 83.124,189.600 82.600 C 189.600 82.076,189.780 81.536,190.000 81.400 C 190.220 81.264,190.400 80.724,190.400 80.200 C 190.400 79.676,190.580 79.136,190.800 79.000 C 191.020 78.864,191.200 78.324,191.200 77.800 C 191.200 77.276,191.380 76.736,191.600 76.600 C 191.820 76.464,192.000 75.924,192.000 75.400 C 192.000 74.876,192.180 74.336,192.400 74.200 C 192.620 74.064,192.800 73.524,192.800 73.000 C 192.800 72.476,192.980 71.936,193.200 71.800 C 193.420 71.664,193.600 71.124,193.600 70.600 C 193.600 70.076,193.780 69.536,194.000 69.400 C 194.220 69.264,194.400 68.713,194.400 68.176 L 194.400 67.200 157.192 67.200 L 119.985 67.200 120.244 68.300 M266.991 107.400 C 266.991 126.100,267.040 133.692,267.100 124.270 C 267.160 114.849,267.160 99.549,267.100 90.270 C 267.040 80.992,266.991 88.700,266.991 107.400 M292.725 114.699 C 296.093 114.766,301.493 114.766,304.725 114.699 C 307.956 114.632,305.200 114.577,298.600 114.577 C 292.000 114.577,289.356 114.632,292.725 114.699 M282.576 130.000 C 282.576 136.270,282.632 138.835,282.699 135.700 C 282.767 132.565,282.767 127.435,282.699 124.300 C 282.632 121.165,282.576 123.730,282.576 130.000 M319.100 125.098 C 321.355 125.170,325.045 125.170,327.300 125.098 C 329.555 125.027,327.710 124.969,323.200 124.969 C 318.690 124.969,316.845 125.027,319.100 125.098 M267.075 168.258 C 266.699 168.634,266.724 265.506,267.100 265.738 C 267.265 265.840,267.354 243.981,267.297 217.162 L 267.194 168.400 274.791 168.400 L 282.387 168.400 282.503 179.300 L 282.619 190.200 282.609 179.200 L 282.600 168.200 274.975 168.092 C 270.781 168.032,267.226 168.107,267.075 168.258 M315.061 184.300 C 314.958 184.465,317.423 184.553,320.537 184.497 C 330.845 184.308,331.907 184.160,323.524 184.079 C 318.972 184.036,315.163 184.135,315.061 184.300 M220.125 306.699 C 223.824 306.766,229.764 306.765,233.325 306.699 C 236.886 306.633,233.860 306.579,226.600 306.579 C 219.340 306.579,216.426 306.633,220.125 306.699 " stroke="none" fill="#f9c953" fill-rule="evenodd"></path><path id="path3" d="M75.200 208.000 L 75.200 332.800 141.400 332.800 L 207.600 332.800 207.600 321.595 C 207.600 305.144,206.576 306.000,226.249 306.000 L 239.600 306.000 239.600 237.200 L 239.600 168.400 221.418 168.400 L 203.235 168.400 203.118 179.730 L 203.000 191.061 202.003 192.515 C 200.294 195.007,200.337 195.000,186.608 195.000 L 174.137 195.000 172.664 193.876 C 170.745 192.412,170.000 190.538,170.000 187.173 L 170.000 184.443 161.228 184.322 C 147.585 184.132,148.800 187.032,148.800 154.661 C 148.800 122.305,147.711 124.800,161.838 124.800 L 170.000 124.800 170.000 121.935 C 170.000 114.802,171.291 114.200,186.600 114.200 C 203.957 114.200,202.951 113.260,203.117 129.629 L 203.235 141.200 221.417 141.200 L 239.600 141.200 239.600 112.196 L 239.600 83.192 220.546 83.296 L 201.491 83.400 199.236 89.963 C 197.192 95.914,196.839 96.642,195.454 97.763 L 193.926 99.000 157.423 99.000 C 113.736 99.000,118.816 100.044,115.601 90.400 C 114.685 87.650,113.748 84.905,113.519 84.300 L 113.103 83.200 94.151 83.200 L 75.200 83.200 75.200 208.000 M131.652 142.382 C 134.642 144.847,134.498 147.698,131.132 152.672 C 130.509 153.592,130.000 154.459,130.000 154.600 C 130.000 154.741,129.460 155.641,128.800 156.600 C 128.140 157.559,127.600 158.459,127.600 158.600 C 127.600 158.741,127.060 159.641,126.400 160.600 C 125.740 161.559,125.200 162.537,125.200 162.772 C 125.200 163.007,125.041 163.200,124.847 163.200 C 124.652 163.200,124.390 163.515,124.264 163.900 C 124.002 164.700,122.268 167.688,121.153 169.262 C 120.739 169.846,120.391 170.476,120.380 170.662 C 120.327 171.552,115.656 177.851,114.600 178.455 C 111.415 180.277,109.606 179.292,102.162 171.684 C 95.073 164.439,94.153 162.103,97.139 158.928 C 100.337 155.528,102.942 156.071,107.993 161.193 C 110.936 164.177,110.859 164.169,112.300 161.600 C 112.732 160.830,114.281 158.251,115.743 155.869 C 117.204 153.487,118.400 151.449,118.400 151.341 C 118.400 151.233,118.940 150.359,119.600 149.400 C 120.260 148.441,120.800 147.463,120.800 147.228 C 120.800 146.993,120.936 146.800,121.102 146.800 C 121.269 146.800,121.656 146.233,121.963 145.540 C 123.837 141.305,128.501 139.785,131.652 142.382 M151.847 216.249 C 155.456 217.962,155.989 223.166,152.837 225.900 L 151.800 226.799 125.313 226.800 L 98.827 226.800 97.465 225.438 C 94.598 222.572,95.332 218.096,99.000 216.067 C 100.445 215.267,150.140 215.439,151.847 216.249 M183.988 232.194 C 187.897 234.215,187.845 240.253,183.900 242.359 C 181.984 243.381,101.635 243.719,99.319 242.715 C 94.696 240.709,94.512 234.549,99.000 232.067 C 100.373 231.307,182.512 231.430,183.988 232.194 M319.178 236.300 L 317.800 237.800 319.300 236.422 C 320.696 235.138,320.984 234.800,320.678 234.800 C 320.612 234.800,319.937 235.475,319.178 236.300 M157.871 264.631 C 158.492 265.089,159.178 265.854,159.395 266.331 C 159.612 266.809,159.927 267.200,160.095 267.200 C 160.595 267.200,160.441 270.740,159.900 271.683 C 159.118 273.048,157.695 274.400,157.042 274.400 C 156.715 274.400,156.336 274.580,156.200 274.800 C 155.814 275.424,100.763 275.341,99.319 274.715 C 94.672 272.698,94.475 266.187,99.000 264.160 C 101.306 263.128,156.427 263.569,157.871 264.631 M130.793 280.452 C 134.435 282.672,134.832 286.996,131.636 289.631 L 130.218 290.800 114.522 290.800 L 98.827 290.800 97.465 289.438 C 94.598 286.572,95.332 282.096,99.000 280.067 C 100.712 279.120,129.173 279.465,130.793 280.452 M205.120 280.162 C 208.669 282.008,209.352 286.568,206.505 289.415 L 205.120 290.800 176.122 290.800 C 147.647 290.800,147.103 290.785,145.986 289.990 C 142.649 287.614,142.917 282.580,146.496 280.398 C 148.213 279.351,203.137 279.130,205.120 280.162 M182.796 295.859 C 187.616 296.823,188.368 303.974,183.900 306.359 C 181.984 307.381,101.635 307.719,99.319 306.715 C 94.491 304.620,94.695 296.764,99.600 295.888 C 101.204 295.601,181.367 295.573,182.796 295.859 " stroke="none" fill="#fbfbfb" fill-rule="evenodd"></path><path id="path4" d="M225.000 40.000 C 224.864 40.220,223.503 40.400,221.976 40.400 C 220.392 40.400,219.200 40.572,219.200 40.800 C 219.200 41.020,218.221 41.200,217.024 41.200 C 215.827 41.200,214.752 41.355,214.635 41.544 C 214.518 41.733,213.292 42.005,211.911 42.148 C 210.530 42.292,208.500 42.691,207.400 43.034 C 206.300 43.378,204.410 43.918,203.200 44.235 C 201.990 44.551,200.640 44.970,200.200 45.165 C 199.760 45.360,198.770 45.739,198.000 46.007 C 197.230 46.275,195.837 46.833,194.904 47.247 C 193.972 47.661,192.937 48.000,192.604 48.000 C 192.272 48.000,192.000 48.180,192.000 48.400 C 192.000 48.620,191.640 48.800,191.200 48.800 C 190.760 48.800,190.400 48.980,190.400 49.200 C 190.400 49.420,190.119 49.600,189.775 49.600 C 189.013 49.600,183.853 52.033,183.667 52.480 C 183.593 52.656,183.188 52.800,182.767 52.800 C 182.345 52.800,182.000 52.980,182.000 53.200 C 182.000 53.420,181.730 53.600,181.400 53.600 C 181.070 53.600,180.800 53.759,180.800 53.953 C 180.800 54.148,180.403 54.411,179.917 54.537 C 177.201 55.248,183.045 55.418,216.333 55.600 C 246.267 55.763,253.220 55.901,254.200 56.350 C 254.860 56.652,255.850 57.097,256.400 57.338 C 261.948 59.768,265.933 65.289,266.786 71.729 C 267.043 73.671,267.200 87.437,267.200 108.029 L 267.200 141.200 274.778 141.200 L 282.356 141.200 282.478 129.406 L 282.600 117.612 284.106 116.106 L 285.613 114.600 298.345 114.600 C 314.483 114.600,314.800 114.734,314.800 121.547 L 314.800 124.800 322.740 124.800 C 331.644 124.800,332.807 125.024,334.700 127.105 L 336.000 128.533 335.991 154.767 C 335.981 183.796,336.169 181.703,333.419 183.450 C 332.388 184.105,331.144 184.225,323.619 184.400 L 315.000 184.600 314.800 188.000 C 314.399 194.820,314.445 194.800,298.812 194.800 C 281.263 194.800,282.400 195.899,282.400 178.950 L 282.400 168.400 274.800 168.400 L 267.200 168.400 267.200 217.013 C 267.200 269.860,267.080 267.017,269.248 265.663 C 269.655 265.408,270.431 265.200,270.971 265.200 C 271.511 265.200,272.064 265.020,272.200 264.800 C 272.336 264.580,272.887 264.400,273.424 264.400 C 273.961 264.400,274.400 264.220,274.400 264.000 C 274.400 263.780,274.940 263.600,275.600 263.600 C 276.260 263.600,276.800 263.420,276.800 263.200 C 276.800 262.980,277.239 262.800,277.776 262.800 C 278.313 262.800,278.864 262.620,279.000 262.400 C 279.136 262.180,279.597 262.000,280.024 262.000 C 280.451 262.000,280.800 261.820,280.800 261.600 C 280.800 261.380,281.239 261.200,281.776 261.200 C 282.313 261.200,282.864 261.020,283.000 260.800 C 283.136 260.580,283.597 260.400,284.024 260.400 C 284.451 260.400,284.800 260.220,284.800 260.000 C 284.800 259.780,285.171 259.600,285.624 259.600 C 286.077 259.600,286.336 259.420,286.200 259.200 C 286.060 258.973,286.396 258.800,286.976 258.800 C 287.539 258.800,288.000 258.620,288.000 258.400 C 288.000 258.180,288.241 258.000,288.536 258.000 C 288.831 258.000,290.406 257.271,292.036 256.381 C 293.666 255.490,295.315 254.659,295.700 254.534 C 296.085 254.409,296.400 254.148,296.400 253.953 C 296.400 253.759,296.571 253.600,296.780 253.600 C 296.989 253.600,297.960 253.060,298.938 252.400 C 299.916 251.740,300.835 251.200,300.980 251.200 C 301.125 251.200,301.819 250.661,302.522 250.002 C 303.225 249.343,303.997 248.803,304.238 248.802 C 304.479 248.801,305.002 248.440,305.400 248.000 C 305.798 247.560,306.276 247.200,306.462 247.200 C 306.647 247.200,307.541 246.480,308.448 245.600 C 309.355 244.720,310.248 244.000,310.433 244.000 C 311.438 244.000,326.800 228.590,326.800 227.582 C 326.800 227.373,327.443 226.526,328.228 225.701 C 329.013 224.875,329.952 223.705,330.314 223.100 C 330.676 222.495,331.114 222.000,331.286 222.000 C 331.459 222.000,331.600 221.796,331.600 221.547 C 331.600 221.298,331.919 220.803,332.309 220.447 C 332.699 220.091,333.238 219.350,333.506 218.800 C 334.148 217.484,334.842 216.424,335.700 215.446 C 336.085 215.008,336.400 214.413,336.400 214.125 C 336.400 213.836,336.580 213.600,336.800 213.600 C 337.020 213.600,337.200 213.255,337.200 212.833 C 337.200 212.412,337.354 212.007,337.543 211.933 C 337.991 211.759,342.400 202.885,342.400 202.158 C 342.400 201.851,342.580 201.600,342.800 201.600 C 343.020 201.600,343.200 201.150,343.200 200.600 C 343.200 200.050,343.380 199.600,343.600 199.600 C 343.820 199.600,344.000 199.240,344.000 198.800 C 344.000 198.360,344.180 198.000,344.400 198.000 C 344.620 198.000,344.800 197.460,344.800 196.800 C 344.800 196.140,344.980 195.600,345.200 195.600 C 345.420 195.600,345.600 195.251,345.600 194.824 C 345.600 194.397,345.780 193.936,346.000 193.800 C 346.220 193.664,346.400 193.023,346.400 192.376 C 346.400 191.729,346.580 191.200,346.800 191.200 C 347.020 191.200,347.200 190.761,347.200 190.224 C 347.200 189.687,347.380 189.136,347.600 189.000 C 347.820 188.864,348.000 188.234,348.000 187.600 C 348.000 186.966,348.180 186.336,348.400 186.200 C 348.620 186.064,348.800 185.333,348.800 184.576 C 348.800 183.819,348.980 183.200,349.200 183.200 C 349.420 183.200,349.600 182.480,349.600 181.600 C 349.600 180.720,349.746 180.000,349.925 180.000 C 350.104 180.000,350.294 179.145,350.347 178.100 C 350.400 177.055,350.613 176.140,350.821 176.067 C 351.030 175.993,351.200 174.868,351.200 173.567 C 351.200 172.256,351.378 171.200,351.600 171.200 C 351.835 171.200,352.000 169.808,352.000 167.824 C 352.000 165.967,352.180 164.336,352.400 164.200 C 352.648 164.047,352.800 160.404,352.800 154.600 C 352.800 148.796,352.648 145.153,352.400 145.000 C 352.180 144.864,352.000 143.334,352.000 141.600 C 352.000 139.866,351.820 138.336,351.600 138.200 C 351.380 138.064,351.200 136.883,351.200 135.576 C 351.200 134.259,351.022 133.200,350.800 133.200 C 350.580 133.200,350.400 132.390,350.400 131.400 C 350.400 130.410,350.220 129.600,350.000 129.600 C 349.780 129.600,349.600 128.891,349.600 128.024 C 349.600 127.157,349.420 126.336,349.200 126.200 C 348.980 126.064,348.800 125.333,348.800 124.576 C 348.800 123.819,348.620 123.200,348.400 123.200 C 348.180 123.200,348.000 122.581,348.000 121.824 C 348.000 121.067,347.820 120.336,347.600 120.200 C 347.380 120.064,347.200 119.601,347.200 119.171 C 347.200 118.741,347.020 118.032,346.800 117.595 C 346.580 117.158,346.220 116.442,346.000 116.005 C 345.780 115.568,345.600 114.848,345.600 114.405 C 345.600 113.962,345.420 113.600,345.200 113.600 C 344.980 113.600,344.800 113.161,344.800 112.624 C 344.800 112.087,344.620 111.536,344.400 111.400 C 344.180 111.264,344.000 110.803,344.000 110.376 C 344.000 109.949,343.820 109.600,343.600 109.600 C 343.380 109.600,343.200 109.251,343.200 108.824 C 343.200 108.397,343.020 107.936,342.800 107.800 C 342.580 107.664,342.400 107.203,342.400 106.776 C 342.400 106.349,342.220 106.000,342.000 106.000 C 341.780 106.000,341.600 105.726,341.600 105.390 C 341.600 104.775,338.916 99.171,338.444 98.800 C 338.304 98.690,337.742 97.700,337.195 96.600 C 336.648 95.500,335.886 94.251,335.501 93.825 C 335.115 93.398,334.800 92.813,334.800 92.525 C 334.800 92.236,334.620 92.000,334.400 92.000 C 334.180 92.000,333.993 91.775,333.984 91.500 C 333.975 91.225,333.435 90.377,332.784 89.615 C 332.133 88.853,331.600 88.038,331.600 87.803 C 331.600 87.569,331.240 87.117,330.800 86.800 C 330.360 86.483,330.000 86.020,330.000 85.771 C 330.000 85.522,329.503 84.797,328.896 84.159 C 328.288 83.522,327.361 82.393,326.834 81.652 C 324.288 78.066,312.130 65.983,309.755 64.679 C 309.340 64.451,308.730 63.980,308.400 63.632 C 307.403 62.583,304.683 60.566,303.300 59.852 C 302.585 59.482,302.000 59.004,302.000 58.790 C 302.000 58.575,301.640 58.400,301.200 58.400 C 300.760 58.400,300.400 58.248,300.400 58.063 C 300.400 57.877,299.598 57.313,298.618 56.809 C 297.637 56.305,296.475 55.557,296.034 55.146 C 295.594 54.736,294.956 54.400,294.617 54.400 C 294.278 54.400,294.000 54.220,294.000 54.000 C 294.000 53.780,293.640 53.600,293.200 53.600 C 292.760 53.600,292.400 53.420,292.400 53.200 C 292.400 52.980,292.055 52.800,291.633 52.800 C 291.212 52.800,290.807 52.657,290.733 52.482 C 290.539 52.018,282.215 48.000,281.449 48.000 C 281.092 48.000,280.800 47.820,280.800 47.600 C 280.800 47.380,280.451 47.200,280.024 47.200 C 279.597 47.200,279.136 47.020,279.000 46.800 C 278.864 46.580,278.324 46.400,277.800 46.400 C 277.276 46.400,276.736 46.220,276.600 46.000 C 276.464 45.780,275.913 45.600,275.376 45.600 C 274.839 45.600,274.400 45.420,274.400 45.200 C 274.400 44.980,273.860 44.800,273.200 44.800 C 272.540 44.800,272.000 44.640,272.000 44.444 C 272.000 44.248,271.415 43.997,270.700 43.886 C 269.985 43.775,267.960 43.308,266.200 42.847 C 264.440 42.386,262.426 42.007,261.724 42.005 C 261.022 42.002,260.336 41.820,260.200 41.600 C 260.064 41.380,258.973 41.200,257.776 41.200 C 256.579 41.200,255.600 41.020,255.600 40.800 C 255.600 40.569,254.333 40.400,252.600 40.400 C 250.867 40.400,249.600 40.231,249.600 40.000 C 249.600 39.742,245.275 39.600,237.424 39.600 C 229.737 39.600,225.156 39.748,225.000 40.000 M74.899 207.900 L 75.000 333.000 141.400 333.000 L 207.800 333.000 208.000 321.600 C 208.212 309.510,208.263 309.195,210.251 307.631 C 210.832 307.174,211.149 306.800,210.954 306.800 C 210.439 306.801,208.682 308.463,208.100 309.499 C 207.733 310.152,207.600 313.372,207.600 321.595 L 207.600 332.800 141.400 332.800 L 75.200 332.800 75.200 208.000 L 75.200 83.200 94.139 83.200 L 113.078 83.200 113.512 84.100 C 113.798 84.694,113.955 84.789,113.973 84.380 C 114.041 82.831,113.641 82.800,93.919 82.800 L 74.799 82.800 74.899 207.900 M201.007 83.296 C 200.912 83.573,200.011 86.296,199.003 89.348 C 196.827 95.938,196.392 96.843,194.920 97.841 C 193.773 98.618,126.999 99.299,122.024 98.584 C 119.120 98.166,118.042 96.712,116.021 90.485 C 115.072 87.562,114.210 85.257,114.104 85.363 C 113.821 85.645,117.142 95.196,118.020 96.625 C 119.557 99.127,117.443 99.000,157.423 99.000 L 193.926 99.000 195.454 97.763 C 196.839 96.642,197.192 95.914,199.236 89.963 L 201.491 83.400 220.543 83.296 L 239.595 83.192 239.701 112.096 L 239.808 141.000 239.804 112.000 L 239.800 83.000 220.489 82.896 C 205.245 82.814,201.142 82.898,201.007 83.296 M175.000 114.371 C 171.607 115.190,170.000 117.621,170.000 121.935 L 170.000 124.800 161.624 124.800 C 155.660 124.800,153.164 124.935,152.958 125.268 C 152.761 125.587,152.891 125.651,153.367 125.468 C 153.751 125.321,157.741 125.200,162.233 125.200 L 170.400 125.200 170.402 122.700 C 170.405 119.212,170.985 117.472,172.624 116.033 L 174.028 114.800 186.714 114.753 C 193.691 114.727,198.860 114.568,198.200 114.400 C 196.670 114.011,176.597 113.986,175.000 114.371 M200.429 115.641 C 202.648 117.708,202.585 117.337,202.826 129.761 L 203.052 141.400 203.026 129.729 C 202.997 116.909,202.988 116.860,200.387 115.281 L 199.400 114.682 200.429 115.641 M151.151 126.120 C 148.722 127.968,148.803 126.989,148.801 154.606 C 148.800 187.041,147.583 184.132,161.228 184.322 L 170.000 184.443 170.000 187.173 C 170.000 191.374,172.426 195.265,174.681 194.679 C 175.366 194.502,175.366 194.491,174.686 194.446 C 172.266 194.289,170.766 191.802,170.438 187.401 L 170.200 184.200 161.400 184.000 C 147.925 183.694,149.200 186.765,149.200 154.626 C 149.200 127.362,149.129 128.258,151.446 126.435 C 152.030 125.976,152.349 125.606,152.154 125.613 C 151.959 125.620,151.508 125.848,151.151 126.120 M124.874 141.887 C 123.866 142.589,121.413 145.947,121.699 146.232 C 121.796 146.329,122.413 145.544,123.069 144.487 C 123.761 143.374,124.840 142.282,125.632 141.892 C 126.384 141.521,126.730 141.224,126.400 141.230 C 126.070 141.237,125.383 141.532,124.874 141.887 M130.406 141.947 C 134.659 144.227,134.370 146.593,128.694 156.000 C 126.504 159.630,124.631 162.735,124.532 162.900 C 124.433 163.065,124.543 163.200,124.776 163.200 C 125.009 163.200,125.200 163.007,125.200 162.772 C 125.200 162.537,125.740 161.559,126.400 160.600 C 127.060 159.641,127.600 158.741,127.600 158.600 C 127.600 158.459,128.140 157.559,128.800 156.600 C 129.460 155.641,130.000 154.741,130.000 154.600 C 130.000 154.459,130.509 153.592,131.132 152.672 C 133.567 149.074,134.146 147.350,133.589 145.361 C 133.074 143.523,130.856 141.200,129.615 141.200 C 129.284 141.200,129.640 141.536,130.406 141.947 M120.800 147.228 C 120.800 147.463,120.260 148.441,119.600 149.400 C 118.940 150.359,118.400 151.233,118.400 151.341 C 118.400 151.580,113.282 159.991,112.699 160.710 C 112.472 160.990,112.379 161.313,112.493 161.426 C 112.607 161.540,114.462 158.701,116.616 155.117 C 118.770 151.533,120.793 148.195,121.112 147.700 C 121.487 147.118,121.534 146.800,121.246 146.800 C 121.001 146.800,120.800 146.993,120.800 147.228 M203.600 154.800 L 203.600 156.800 242.600 156.800 L 281.600 156.800 281.600 154.800 L 281.600 152.800 242.600 152.800 L 203.600 152.800 203.600 154.800 M99.000 157.324 C 97.924 157.964,96.000 160.042,96.000 160.563 C 96.000 160.794,96.542 160.324,97.205 159.521 C 98.537 157.904,100.698 156.987,102.255 157.378 C 102.909 157.542,103.176 157.485,103.010 157.216 C 102.665 156.658,99.998 156.729,99.000 157.324 M106.945 160.774 C 108.727 162.520,110.254 163.879,110.340 163.794 C 110.540 163.593,104.417 157.600,104.012 157.600 C 103.844 157.600,105.164 159.029,106.945 160.774 M111.437 163.000 C 111.076 163.550,110.937 164.000,111.127 164.000 C 111.316 164.000,111.677 163.550,111.927 163.000 C 112.178 162.450,112.317 162.000,112.237 162.000 C 112.157 162.000,111.797 162.450,111.437 163.000 M123.386 164.900 L 122.752 166.200 123.567 165.200 C 124.352 164.237,124.608 163.600,124.210 163.600 C 124.106 163.600,123.735 164.185,123.386 164.900 M96.012 164.752 C 96.001 165.252,98.427 167.891,105.499 175.074 C 109.497 179.136,111.869 180.017,114.600 178.455 C 115.745 177.800,120.675 170.942,120.283 170.549 C 120.179 170.446,119.198 171.855,118.101 173.681 C 115.228 178.467,112.870 179.685,109.684 178.028 C 108.193 177.253,97.274 166.496,96.460 165.000 C 96.203 164.528,96.019 164.426,96.012 164.752 M121.916 167.288 C 121.051 168.622,120.348 170.000,120.533 170.000 C 120.825 170.000,122.864 166.730,122.684 166.551 C 122.587 166.454,122.242 166.786,121.916 167.288 M203.071 168.263 C 202.922 168.412,202.799 173.228,202.798 178.967 C 202.795 191.852,202.422 193.347,198.952 194.386 L 197.800 194.731 198.845 194.766 C 200.080 194.806,201.862 193.191,202.656 191.313 C 203.070 190.334,203.200 187.432,203.200 179.213 L 203.200 168.400 221.400 168.400 L 239.600 168.400 239.600 237.200 L 239.600 306.000 226.100 306.006 C 218.675 306.009,212.392 306.144,212.137 306.306 C 211.656 306.612,238.619 306.506,239.501 306.199 C 239.901 306.060,239.982 292.038,239.901 237.112 L 239.800 168.200 221.571 168.096 C 211.545 168.039,203.220 168.114,203.071 168.263 M181.300 195.099 C 184.325 195.167,189.275 195.167,192.300 195.099 C 195.325 195.031,192.850 194.975,186.800 194.975 C 180.750 194.975,178.275 195.031,181.300 195.099 M98.547 216.367 C 97.266 217.148,95.999 218.652,96.001 219.389 C 96.002 219.615,96.341 219.246,96.754 218.568 C 98.359 215.936,97.642 216.000,125.400 216.000 C 153.321 216.000,152.290 215.902,153.919 218.711 C 154.393 219.530,154.786 219.958,154.791 219.662 C 154.807 218.714,153.259 216.919,151.847 216.249 C 149.565 215.166,100.337 215.275,98.547 216.367 M153.798 224.146 C 153.357 224.836,152.367 225.715,151.598 226.099 C 150.598 226.600,150.428 226.799,151.000 226.799 C 151.937 226.799,153.663 225.399,154.370 224.066 C 155.115 222.659,154.712 222.716,153.798 224.146 M96.009 223.487 C 95.994 224.327,98.777 226.801,99.713 226.779 C 100.386 226.764,100.238 226.608,99.100 226.137 C 98.275 225.794,97.596 225.399,97.591 225.257 C 97.574 224.751,96.018 223.010,96.009 223.487 M98.547 232.367 C 97.266 233.148,95.999 234.652,96.001 235.389 C 96.002 235.615,96.354 235.224,96.784 234.519 C 98.415 231.844,95.648 232.000,141.418 232.000 L 182.877 232.000 184.078 232.855 C 184.739 233.326,185.621 234.271,186.038 234.955 C 186.455 235.640,186.798 235.958,186.799 235.662 C 186.801 234.781,185.221 232.831,183.988 232.194 C 181.975 231.153,100.267 231.318,98.547 232.367 M186.215 239.552 C 186.073 239.999,185.413 240.823,184.748 241.382 C 183.549 242.391,183.619 242.824,184.830 241.887 C 185.690 241.222,186.958 239.225,186.691 238.957 C 186.571 238.838,186.357 239.105,186.215 239.552 M96.000 239.437 C 96.000 240.111,98.102 242.187,99.319 242.715 C 100.585 243.264,182.601 243.446,182.938 242.900 C 183.040 242.735,164.736 242.654,142.262 242.719 C 97.732 242.848,99.218 242.922,97.221 240.499 C 96.549 239.684,96.000 239.206,96.000 239.437 M113.900 263.900 C 121.655 263.961,134.345 263.961,142.100 263.900 C 149.855 263.839,143.510 263.789,128.000 263.789 C 112.490 263.789,106.145 263.839,113.900 263.900 M97.414 265.241 C 96.636 265.924,96.001 266.779,96.001 267.141 C 96.002 267.542,96.308 267.301,96.781 266.523 C 97.210 265.821,98.064 264.973,98.680 264.639 C 99.296 264.305,99.581 264.025,99.314 264.016 C 99.047 264.007,98.192 264.559,97.414 265.241 M157.000 264.455 C 157.440 264.692,158.204 265.361,158.698 265.943 C 159.192 266.524,159.597 266.791,159.598 266.536 C 159.600 265.964,157.315 263.995,156.669 264.012 C 156.411 264.019,156.560 264.218,157.000 264.455 M159.800 269.363 C 159.800 270.552,159.935 271.440,160.100 271.338 C 160.265 271.236,160.400 270.263,160.400 269.176 C 160.400 268.089,160.265 267.201,160.100 267.201 C 159.935 267.202,159.800 268.175,159.800 269.363 M96.000 271.437 C 96.000 272.111,98.102 274.187,99.319 274.715 C 100.583 275.263,155.802 275.443,156.138 274.900 C 156.240 274.735,143.966 274.654,128.862 274.720 C 98.764 274.852,99.185 274.882,97.221 272.499 C 96.549 271.684,96.000 271.206,96.000 271.437 M158.093 273.233 C 157.375 273.875,156.978 274.400,157.212 274.400 C 157.681 274.400,159.770 272.436,159.542 272.209 C 159.464 272.130,158.812 272.591,158.093 273.233 M98.547 280.367 C 97.266 281.148,95.999 282.652,96.001 283.389 C 96.002 283.615,96.341 283.246,96.754 282.568 C 98.316 280.008,98.743 279.951,115.361 280.082 C 123.592 280.147,130.117 280.068,129.863 279.906 C 128.668 279.147,99.852 279.571,98.547 280.367 M146.496 280.398 C 144.226 281.782,142.510 286.479,143.950 287.369 C 144.143 287.488,144.223 286.824,144.128 285.893 C 143.906 283.708,144.939 281.711,146.800 280.728 C 148.129 280.026,149.622 279.994,176.400 280.094 L 204.600 280.200 206.000 281.184 C 206.916 281.828,207.203 281.923,206.829 281.458 C 205.314 279.571,205.790 279.600,175.920 279.601 C 148.566 279.603,147.764 279.625,146.496 280.398 M131.652 281.415 C 133.844 283.885,133.921 286.051,131.919 288.952 L 131.058 290.200 132.070 289.286 C 134.577 287.021,134.251 282.899,131.400 280.815 C 130.879 280.435,130.967 280.644,131.652 281.415 M207.123 287.994 C 206.751 288.648,205.851 289.546,205.123 289.990 C 204.331 290.474,204.065 290.798,204.460 290.799 C 205.262 290.800,208.000 288.141,208.000 287.360 C 208.000 286.569,207.889 286.649,207.123 287.994 M96.013 287.487 C 95.994 288.216,98.725 290.800,99.513 290.799 C 99.970 290.798,99.787 290.545,98.968 290.045 C 98.290 289.632,97.350 288.778,96.880 288.147 C 96.410 287.516,96.020 287.219,96.013 287.487 M144.400 288.305 C 144.400 288.888,146.899 290.804,147.638 290.788 C 147.986 290.780,147.895 290.607,147.400 290.334 C 146.960 290.092,146.105 289.433,145.500 288.872 C 144.895 288.310,144.400 288.055,144.400 288.305 M120.931 295.900 C 132.332 295.959,150.872 295.959,162.131 295.900 C 173.389 295.841,164.060 295.793,141.400 295.793 C 118.740 295.793,109.529 295.841,120.931 295.900 M97.278 297.319 C 96.575 298.045,96.001 298.900,96.001 299.219 C 96.002 299.539,96.353 299.225,96.781 298.523 C 97.210 297.821,98.064 296.973,98.680 296.639 C 99.326 296.289,99.537 296.025,99.178 296.016 C 98.837 296.007,97.982 296.594,97.278 297.319 M184.147 296.880 C 184.778 297.350,185.632 298.290,186.045 298.968 C 186.545 299.787,186.798 299.970,186.799 299.513 C 186.800 298.725,184.216 295.994,183.487 296.013 C 183.219 296.020,183.516 296.410,184.147 296.880 M186.215 303.552 C 186.073 303.999,185.413 304.823,184.748 305.382 C 183.549 306.391,183.619 306.824,184.830 305.887 C 185.690 305.222,186.958 303.225,186.691 302.957 C 186.571 302.838,186.357 303.105,186.215 303.552 M96.018 303.400 C 96.018 303.620,96.370 304.250,96.800 304.800 C 97.230 305.350,97.582 305.620,97.582 305.400 C 97.582 305.180,97.230 304.550,96.800 304.000 C 96.370 303.450,96.018 303.180,96.018 303.400 M99.738 306.894 C 100.348 307.282,182.698 307.288,182.938 306.900 C 183.040 306.735,164.258 306.600,141.200 306.600 C 118.142 306.600,99.484 306.732,99.738 306.894 M219.067 317.867 C 218.682 318.251,218.737 326.400,219.125 326.400 C 219.303 326.400,219.798 326.085,220.225 325.700 C 220.651 325.315,221.989 324.190,223.199 323.200 C 224.408 322.210,225.999 320.860,226.734 320.200 C 227.470 319.540,228.325 318.856,228.636 318.680 C 230.045 317.881,228.907 317.600,224.267 317.600 C 221.553 317.600,219.213 317.720,219.067 317.867 " stroke="none" fill="#fbe3bb" fill-rule="evenodd"></path></g></svg>