<svg id="svg" version="1.1" xmlns="http://www.w3.org/2000/svg" xmlns:xlink="http://www.w3.org/1999/xlink" width="400" height="400" viewBox="0, 0, 400,400"><g id="svgg"><path id="path0" d="M157.800 47.600 C 157.664 47.820,156.044 48.000,154.200 48.000 C 152.356 48.000,150.736 48.180,150.600 48.400 C 150.464 48.620,149.384 48.800,148.200 48.800 C 147.016 48.800,145.936 48.980,145.800 49.200 C 145.664 49.420,144.753 49.600,143.776 49.600 C 142.799 49.600,142.000 49.780,142.000 50.000 C 142.000 50.220,141.280 50.400,140.400 50.400 C 139.520 50.400,138.800 50.580,138.800 50.800 C 138.800 51.020,138.080 51.200,137.200 51.200 C 136.320 51.200,135.600 51.380,135.600 51.600 C 135.600 51.820,134.981 52.000,134.224 52.000 C 133.467 52.000,132.736 52.180,132.600 52.400 C 132.464 52.620,131.823 52.800,131.176 52.800 C 130.529 52.800,130.000 52.980,130.000 53.200 C 130.000 53.420,129.638 53.600,129.195 53.600 C 128.752 53.600,128.032 53.780,127.595 54.000 C 127.158 54.220,126.442 54.580,126.005 54.800 C 125.568 55.020,124.938 55.200,124.605 55.200 C 124.272 55.200,124.000 55.380,124.000 55.600 C 124.000 55.820,123.460 56.000,122.800 56.000 C 122.140 56.000,121.600 56.180,121.600 56.400 C 121.600 56.620,121.240 56.800,120.800 56.800 C 120.360 56.800,120.000 56.980,120.000 57.200 C 120.000 57.420,119.640 57.600,119.200 57.600 C 118.760 57.600,118.400 57.780,118.400 58.000 C 118.400 58.220,118.029 58.400,117.575 58.400 C 116.643 58.400,112.271 60.359,112.067 60.868 C 111.993 61.051,111.672 61.200,111.353 61.200 C 109.408 61.200,108.242 63.201,109.514 64.353 C 112.530 67.084,112.975 70.598,110.606 72.967 C 107.879 75.695,105.081 75.384,101.405 71.945 L 98.861 69.565 96.130 71.884 C 93.430 74.178,92.259 74.909,90.491 75.405 C 88.937 75.840,74.800 90.230,74.800 91.376 C 74.800 91.690,74.469 92.051,74.064 92.180 C 73.659 92.308,73.089 92.860,72.796 93.407 C 72.504 93.953,72.115 94.400,71.932 94.400 C 71.750 94.400,71.600 94.604,71.600 94.853 C 71.600 95.102,71.285 95.599,70.900 95.957 C 69.659 97.112,69.255 98.240,69.480 99.921 C 69.827 102.510,67.913 106.400,66.293 106.400 C 65.476 106.400,62.800 107.758,62.791 108.177 C 62.786 108.410,62.430 109.050,62.000 109.600 C 61.570 110.150,61.214 110.900,61.209 111.267 C 61.204 111.633,61.051 111.993,60.868 112.067 C 60.359 112.271,58.400 116.643,58.400 117.575 C 58.400 118.029,58.220 118.400,58.000 118.400 C 57.780 118.400,57.600 118.760,57.600 119.200 C 57.600 119.640,57.420 120.000,57.200 120.000 C 56.980 120.000,56.800 120.360,56.800 120.800 C 56.800 121.240,56.620 121.600,56.400 121.600 C 56.180 121.600,56.000 122.140,56.000 122.800 C 56.000 123.460,55.820 124.000,55.600 124.000 C 55.380 124.000,55.200 124.272,55.200 124.605 C 55.200 124.938,54.992 125.613,54.738 126.105 C 53.742 128.031,53.600 128.417,53.600 129.195 C 53.600 129.638,53.440 130.000,53.244 130.000 C 53.048 130.000,52.773 130.675,52.632 131.500 C 52.010 135.151,51.893 135.600,51.556 135.600 C 51.360 135.600,51.200 136.219,51.200 136.976 C 51.200 137.733,51.020 138.464,50.800 138.600 C 50.580 138.736,50.400 139.557,50.400 140.424 C 50.400 141.291,50.220 142.000,50.000 142.000 C 49.780 142.000,49.600 142.799,49.600 143.776 C 49.600 144.753,49.420 145.664,49.200 145.800 C 48.980 145.936,48.800 147.117,48.800 148.424 C 48.800 149.741,48.622 150.800,48.400 150.800 C 48.163 150.800,48.000 152.267,48.000 154.400 C 48.000 156.533,47.837 158.000,47.600 158.000 C 47.054 158.000,47.054 177.863,47.600 178.200 C 47.820 178.336,48.000 179.956,48.000 181.800 C 48.000 183.644,48.180 185.264,48.400 185.400 C 48.620 185.536,48.800 186.627,48.800 187.824 C 48.800 189.021,48.980 190.000,49.200 190.000 C 49.420 190.000,49.600 190.900,49.600 192.000 C 49.600 193.100,49.780 194.000,50.000 194.000 C 50.220 194.000,50.400 194.709,50.400 195.576 C 50.400 196.443,50.580 197.264,50.800 197.400 C 51.020 197.536,51.200 198.267,51.200 199.024 C 51.200 199.781,51.380 200.400,51.600 200.400 C 51.820 200.400,52.000 201.019,52.000 201.776 C 52.000 202.533,52.180 203.264,52.400 203.400 C 52.620 203.536,52.800 204.076,52.800 204.600 C 52.800 205.124,52.980 205.664,53.200 205.800 C 53.420 205.936,53.600 206.487,53.600 207.024 C 53.600 207.561,53.780 208.000,54.000 208.000 C 54.220 208.000,54.400 208.540,54.400 209.200 C 54.400 209.860,54.580 210.400,54.800 210.400 C 55.020 210.400,55.200 210.760,55.200 211.200 C 55.200 211.640,55.380 212.000,55.600 212.000 C 55.820 212.000,56.000 212.540,56.000 213.200 C 56.000 213.860,56.180 214.400,56.400 214.400 C 56.620 214.400,56.800 214.760,56.800 215.200 C 56.800 215.640,56.980 216.000,57.200 216.000 C 57.420 216.000,57.600 216.360,57.600 216.800 C 57.600 217.240,57.780 217.600,58.000 217.600 C 58.220 217.600,58.400 218.026,58.400 218.547 C 58.400 219.068,59.052 220.733,59.848 222.247 C 60.644 223.761,61.499 225.404,61.748 225.897 C 61.997 226.390,62.335 226.795,62.500 226.797 C 62.665 226.799,62.800 227.160,62.800 227.600 C 62.800 228.040,62.980 228.400,63.200 228.400 C 63.420 228.400,63.600 228.678,63.600 229.017 C 63.600 229.356,63.960 230.020,64.400 230.492 C 64.840 230.964,65.200 231.587,65.200 231.875 C 65.200 232.164,65.380 232.400,65.600 232.400 C 65.820 232.400,66.000 232.636,66.000 232.925 C 66.000 233.213,66.360 233.836,66.800 234.308 C 67.240 234.780,67.600 235.309,67.601 235.483 C 67.601 235.657,68.141 236.430,68.800 237.200 C 69.459 237.970,69.999 238.785,69.999 239.012 C 70.000 239.238,70.360 239.683,70.800 240.000 C 71.240 240.317,71.600 240.735,71.600 240.928 C 71.600 241.121,72.105 241.756,72.721 242.340 C 73.338 242.923,74.424 244.250,75.134 245.290 C 75.844 246.329,77.454 248.247,78.712 249.551 C 79.971 250.855,81.698 252.659,82.552 253.561 C 84.339 255.449,84.617 255.534,84.948 254.300 C 85.081 253.805,85.192 225.050,85.195 190.400 C 85.202 117.460,84.942 122.001,89.655 112.617 C 95.479 101.024,105.832 93.501,119.400 91.004 C 122.137 90.500,132.566 90.414,191.500 90.407 C 229.395 90.403,260.400 90.304,260.400 90.187 C 260.400 90.069,259.815 89.364,259.100 88.619 C 258.385 87.874,257.170 86.500,256.400 85.565 C 255.630 84.631,254.121 83.041,253.046 82.033 C 251.971 81.025,250.245 79.390,249.209 78.400 C 246.697 75.999,244.278 74.011,243.860 74.005 C 243.674 74.002,243.017 73.460,242.400 72.800 C 241.783 72.140,241.121 71.600,240.928 71.600 C 240.735 71.600,240.317 71.240,240.000 70.800 C 239.683 70.360,239.193 70.000,238.912 70.000 C 238.630 70.000,238.400 69.820,238.400 69.600 C 238.400 69.380,238.130 69.200,237.800 69.200 C 237.470 69.200,237.200 69.020,237.200 68.800 C 237.200 68.580,236.919 68.400,236.576 68.400 C 236.233 68.400,236.064 68.220,236.200 68.000 C 236.336 67.780,236.159 67.600,235.807 67.600 C 235.455 67.600,234.780 67.240,234.308 66.800 C 233.836 66.360,233.213 66.000,232.925 66.000 C 232.636 66.000,232.400 65.842,232.400 65.649 C 232.400 65.455,231.860 65.073,231.200 64.800 C 230.540 64.527,230.000 64.145,230.000 63.951 C 230.000 63.758,229.640 63.600,229.200 63.600 C 228.760 63.600,228.400 63.420,228.400 63.200 C 228.400 62.980,228.040 62.800,227.600 62.800 C 227.160 62.800,226.800 62.653,226.800 62.473 C 226.800 61.996,219.771 58.400,218.839 58.400 C 218.404 58.400,217.936 58.220,217.800 58.000 C 217.664 57.780,217.203 57.600,216.776 57.600 C 216.349 57.600,216.000 57.420,216.000 57.200 C 216.000 56.980,215.640 56.800,215.200 56.800 C 214.760 56.800,214.400 56.620,214.400 56.400 C 214.400 56.180,213.860 56.000,213.200 56.000 C 212.540 56.000,212.000 55.820,212.000 55.600 C 212.000 55.380,211.640 55.200,211.200 55.200 C 210.760 55.200,210.400 55.020,210.400 54.800 C 210.400 54.580,209.860 54.400,209.200 54.400 C 208.540 54.400,208.000 54.220,208.000 54.000 C 208.000 53.780,207.561 53.600,207.024 53.600 C 206.487 53.600,205.936 53.420,205.800 53.200 C 205.664 52.980,205.013 52.800,204.353 52.800 C 203.655 52.800,203.256 52.633,203.400 52.400 C 203.549 52.158,203.004 52.000,202.024 52.000 C 201.131 52.000,200.400 51.820,200.400 51.600 C 200.400 51.380,199.781 51.200,199.024 51.200 C 198.267 51.200,197.536 51.020,197.400 50.800 C 197.264 50.580,196.443 50.400,195.576 50.400 C 194.709 50.400,194.000 50.220,194.000 50.000 C 194.000 49.780,193.100 49.600,192.000 49.600 C 190.900 49.600,190.000 49.420,190.000 49.200 C 190.000 48.980,189.021 48.800,187.824 48.800 C 186.627 48.800,185.536 48.620,185.400 48.400 C 185.264 48.180,183.644 48.000,181.800 48.000 C 179.956 48.000,178.336 47.820,178.200 47.600 C 178.046 47.351,174.204 47.200,168.000 47.200 C 161.796 47.200,157.954 47.351,157.800 47.600 M210.400 128.875 C 203.098 129.979,194.295 132.699,189.700 135.272 C 186.159 137.255,185.283 137.789,182.453 139.690 C 177.283 143.161,177.314 142.693,181.953 147.378 C 186.512 151.982,187.299 153.556,186.260 156.000 C 185.393 158.040,183.654 159.529,182.000 159.645 C 179.027 159.855,178.515 159.644,175.935 157.145 C 174.541 155.795,172.576 153.897,171.568 152.928 L 169.736 151.164 167.732 153.882 C 165.518 156.883,162.634 161.620,161.327 164.400 C 159.684 167.896,158.800 169.996,158.800 170.401 C 158.800 170.626,158.638 171.123,158.439 171.505 C 158.110 172.138,157.621 173.757,156.781 177.000 C 155.894 180.420,155.600 182.215,155.600 184.206 L 155.600 186.400 176.609 186.400 L 197.617 186.400 198.058 185.300 C 199.498 181.708,200.894 179.502,203.300 177.016 C 204.785 175.482,206.000 174.186,206.000 174.136 C 206.000 174.086,202.851 167.690,199.003 159.923 C 192.649 147.097,192.006 145.608,192.003 143.713 C 191.996 139.027,197.801 136.662,201.133 139.994 C 201.761 140.622,205.493 147.605,209.529 155.702 L 216.796 170.280 220.364 170.533 C 224.091 170.798,224.655 170.958,228.630 172.876 C 231.362 174.194,236.800 179.097,236.800 180.241 C 236.800 180.371,237.139 180.954,237.553 181.538 C 237.968 182.122,238.579 183.410,238.913 184.400 L 239.519 186.200 260.760 186.304 L 282.000 186.407 282.000 185.328 C 282.000 182.153,279.293 171.642,277.332 167.200 C 276.127 164.471,274.635 161.397,274.419 161.200 C 274.298 161.090,273.975 160.595,273.700 160.100 C 273.425 159.605,272.975 158.795,272.700 158.300 C 272.425 157.805,272.104 157.310,271.986 157.200 C 271.869 157.090,270.915 155.785,269.866 154.300 C 267.478 150.918,267.845 150.849,262.961 155.600 C 258.758 159.690,258.416 159.875,255.450 159.665 C 252.977 159.490,250.800 156.928,250.800 154.194 C 250.800 152.118,251.245 151.450,255.544 147.078 L 259.400 143.156 258.354 142.278 C 256.070 140.362,255.578 140.000,255.257 140.000 C 255.074 140.000,254.598 139.640,254.200 139.200 C 253.802 138.760,253.311 138.400,253.110 138.400 C 252.909 138.400,251.992 137.892,251.072 137.271 C 245.784 133.701,236.034 130.257,227.820 129.057 L 224.400 128.558 224.400 134.144 C 224.400 141.852,223.075 144.133,218.600 144.133 C 214.213 144.133,213.200 142.363,213.200 134.699 C 213.200 128.104,213.356 128.429,210.400 128.875 " stroke="none" fill="#d6cab5" fill-rule="evenodd"></path><path id="path1" d="M108.416 63.815 C 108.425 64.027,109.171 65.010,110.074 66.000 C 110.976 66.990,111.510 67.440,111.261 67.000 C 110.596 65.827,108.397 63.366,108.416 63.815 M98.236 69.542 C 98.119 69.730,98.469 69.799,99.012 69.696 C 99.586 69.586,100.000 69.694,100.000 69.953 C 100.000 70.199,100.202 70.400,100.449 70.400 C 100.759 70.400,100.744 70.215,100.400 69.800 C 99.858 69.147,98.574 68.994,98.236 69.542 M109.400 73.276 L 108.600 74.104 109.478 73.650 C 110.402 73.172,111.074 72.383,110.524 72.424 C 110.346 72.437,109.840 72.820,109.400 73.276 M105.900 74.282 C 106.395 74.378,107.205 74.378,107.700 74.282 C 108.195 74.187,107.790 74.109,106.800 74.109 C 105.810 74.109,105.405 74.187,105.900 74.282 M120.200 91.200 L 119.000 91.505 120.400 91.530 C 121.170 91.543,122.520 91.405,123.400 91.223 L 125.000 90.892 123.200 90.893 C 122.210 90.894,120.860 91.032,120.200 91.200 M116.200 92.000 C 115.429 92.331,115.431 92.345,116.276 92.372 C 116.758 92.387,117.264 92.220,117.400 92.000 C 117.692 91.527,117.301 91.527,116.200 92.000 M105.500 96.229 C 104.895 96.557,104.400 96.910,104.400 97.013 C 104.400 97.399,105.032 97.157,106.000 96.400 C 107.189 95.470,107.011 95.409,105.500 96.229 M100.589 99.723 C 98.835 101.111,96.641 103.136,95.713 104.223 C 93.298 107.054,91.476 109.600,91.865 109.599 C 92.049 109.599,92.698 108.811,93.306 107.848 C 94.723 105.605,98.786 101.441,101.715 99.229 C 103.733 97.705,104.275 97.200,103.889 97.200 C 103.828 97.200,102.343 98.335,100.589 99.723 M68.854 100.474 C 68.777 102.569,68.142 104.062,66.887 105.098 C 66.289 105.592,66.009 105.997,66.264 105.998 C 67.698 106.004,69.503 102.140,69.089 99.952 C 68.963 99.287,68.893 99.445,68.854 100.474 M119.000 102.043 C 118.340 102.252,117.170 102.622,116.400 102.866 C 108.442 105.379,101.377 111.975,98.233 119.828 C 95.877 125.714,96.000 120.702,96.000 210.626 L 96.000 293.200 218.605 293.200 L 341.211 293.200 341.105 209.100 C 341.005 128.875,340.966 124.899,340.269 122.800 C 337.051 113.114,329.410 105.273,320.800 102.820 C 319.810 102.537,318.478 102.148,317.840 101.953 C 316.231 101.463,120.552 101.552,119.000 102.043 M225.123 117.626 C 236.125 118.834,244.844 121.419,253.567 126.057 C 257.850 128.335,263.985 132.385,265.600 134.000 C 265.710 134.110,267.146 135.370,268.791 136.800 C 270.435 138.230,272.325 140.011,272.991 140.757 C 285.849 155.186,292.736 171.671,292.932 188.488 L 293.000 194.375 291.693 195.688 L 290.385 197.000 265.026 197.200 C 251.078 197.310,239.590 197.490,239.497 197.600 C 239.404 197.710,238.594 199.332,237.698 201.205 C 231.330 214.514,214.033 217.374,203.583 206.846 C 201.237 204.483,198.400 199.881,198.400 198.439 C 198.400 197.302,196.280 197.200,172.526 197.199 C 141.962 197.199,143.702 197.758,144.191 188.094 C 146.307 146.288,184.365 113.150,225.123 117.626 M87.073 119.353 C 86.923 119.745,86.811 120.366,86.825 120.733 C 86.842 121.175,86.981 121.074,87.237 120.434 C 87.449 119.903,87.561 119.282,87.485 119.054 C 87.409 118.827,87.224 118.961,87.073 119.353 M86.249 122.615 C 86.112 122.973,86.018 123.746,86.040 124.333 C 86.073 125.191,86.152 125.095,86.446 123.840 C 86.822 122.239,86.695 121.453,86.249 122.615 M85.613 126.400 C 85.288 126.753,84.988 255.200,85.313 255.200 C 85.484 255.200,85.711 254.975,85.815 254.700 C 86.060 254.057,85.858 126.134,85.613 126.400 M208.600 128.420 C 208.061 128.665,208.454 128.705,209.800 128.541 C 210.900 128.407,211.875 128.231,211.967 128.149 C 212.317 127.836,209.361 128.074,208.600 128.420 M213.222 133.899 C 213.442 139.750,213.768 141.378,214.907 142.323 C 215.267 142.622,215.127 142.081,214.549 140.939 C 213.686 139.235,213.600 138.560,213.600 133.532 C 213.600 130.489,213.465 128.000,213.300 127.999 C 213.135 127.999,213.100 130.654,213.222 133.899 M223.596 132.900 C 223.593 135.595,223.478 138.520,223.339 139.400 C 223.192 140.331,223.236 140.861,223.443 140.668 C 223.879 140.262,224.321 127.998,223.900 127.999 C 223.735 128.000,223.598 130.205,223.596 132.900 M225.233 128.149 C 225.325 128.231,226.300 128.418,227.400 128.565 C 228.820 128.755,229.226 128.714,228.800 128.423 C 228.261 128.054,224.832 127.790,225.233 128.149 M204.200 129.200 L 203.400 129.544 204.200 129.544 C 204.640 129.544,205.360 129.389,205.800 129.200 L 206.600 128.856 205.800 128.856 C 205.360 128.856,204.640 129.011,204.200 129.200 M231.400 129.200 C 231.840 129.389,232.560 129.544,233.000 129.544 L 233.800 129.544 233.000 129.200 C 232.560 129.011,231.840 128.856,231.400 128.856 L 230.600 128.856 231.400 129.200 M201.000 130.000 L 200.200 130.344 201.000 130.366 C 201.440 130.378,202.070 130.213,202.400 130.000 C 203.195 129.486,202.196 129.486,201.000 130.000 M234.800 130.000 C 235.130 130.213,235.760 130.378,236.200 130.366 L 237.000 130.344 236.200 130.000 C 235.004 129.486,234.005 129.486,234.800 130.000 M237.200 130.554 C 237.200 130.806,241.273 132.060,241.466 131.868 C 241.563 131.770,240.792 131.400,239.750 131.045 C 237.842 130.395,237.200 130.271,237.200 130.554 M194.597 132.201 C 189.569 134.249,179.626 140.008,179.606 140.884 C 179.603 141.040,181.175 140.118,183.100 138.834 C 187.357 135.996,190.856 134.119,194.700 132.611 C 197.368 131.565,198.079 131.182,197.300 131.211 C 197.135 131.217,195.919 131.663,194.597 132.201 M242.200 132.400 C 242.336 132.620,242.612 132.800,242.814 132.800 C 245.036 132.800,258.798 141.288,259.487 143.083 C 259.634 143.466,258.278 145.113,255.613 147.787 C 251.658 151.755,251.508 151.970,251.380 153.851 C 251.306 154.923,251.331 155.350,251.435 154.800 C 251.539 154.250,251.722 153.354,251.842 152.809 C 251.962 152.265,253.932 149.920,256.220 147.598 L 260.378 143.378 259.489 142.370 C 259.000 141.816,257.970 140.926,257.200 140.392 C 256.430 139.858,255.451 139.102,255.025 138.711 C 254.598 138.320,254.013 138.000,253.725 138.000 C 253.436 138.000,253.199 137.865,253.197 137.700 C 253.195 137.535,252.790 137.191,252.297 136.935 C 243.248 132.244,241.664 131.532,242.200 132.400 M196.705 139.083 C 197.202 139.179,197.922 139.175,198.305 139.075 C 198.687 138.975,198.280 138.896,197.400 138.901 C 196.520 138.905,196.207 138.987,196.705 139.083 M200.306 140.312 C 200.961 140.924,202.348 143.175,203.389 145.314 C 204.429 147.453,205.453 149.309,205.663 149.439 C 205.873 149.569,205.116 147.813,203.982 145.537 C 202.034 141.631,200.308 139.200,199.483 139.200 C 199.281 139.200,199.651 139.701,200.306 140.312 M178.070 142.126 C 176.890 143.382,176.850 143.290,179.900 146.329 C 185.108 151.519,185.600 152.201,185.600 154.239 C 185.600 156.200,184.423 158.400,183.373 158.400 C 183.058 158.400,182.800 158.586,182.800 158.814 C 182.800 159.496,184.251 158.533,185.172 157.239 C 187.195 154.398,186.383 152.287,181.275 147.112 L 177.438 143.224 178.389 142.212 C 178.912 141.655,179.249 141.200,179.139 141.200 C 179.029 141.200,178.548 141.617,178.070 142.126 M221.400 142.510 C 220.612 143.302,220.476 143.572,221.004 143.296 C 221.936 142.808,223.499 141.175,222.962 141.251 C 222.763 141.280,222.060 141.846,221.400 142.510 M192.400 145.828 C 192.400 146.211,201.270 163.600,201.465 163.600 C 201.565 163.600,201.578 163.465,201.494 163.300 C 201.409 163.135,199.399 159.085,197.026 154.300 C 193.119 146.422,192.400 145.106,192.400 145.828 M169.168 150.913 C 168.463 151.457,164.960 156.134,164.316 157.391 C 163.721 158.554,164.351 157.815,166.938 154.318 C 169.835 150.401,169.724 150.448,171.574 152.373 C 172.434 153.268,173.279 154.000,173.452 154.000 C 173.625 154.000,172.972 153.190,172.000 152.200 C 170.051 150.214,170.065 150.221,169.168 150.913 M263.425 154.100 C 261.411 156.135,259.322 158.106,258.782 158.479 C 258.242 158.852,258.038 159.167,258.328 159.179 C 258.619 159.191,260.822 157.283,263.224 154.941 L 267.592 150.681 268.496 151.833 C 269.671 153.330,271.411 155.175,270.917 154.400 C 269.915 152.830,267.825 150.400,267.476 150.400 C 267.261 150.400,265.438 152.065,263.425 154.100 M273.386 158.700 C 273.735 159.415,274.106 160.000,274.210 160.000 C 274.608 160.000,274.352 159.363,273.567 158.400 L 272.752 157.400 273.386 158.700 M210.018 158.124 C 210.008 158.303,211.451 161.318,213.225 164.824 L 216.449 171.200 218.925 171.133 L 221.400 171.066 219.000 170.833 L 216.600 170.600 213.318 164.200 C 211.512 160.680,210.027 157.946,210.018 158.124 M163.022 159.422 C 162.645 159.998,162.416 160.549,162.514 160.647 C 162.612 160.745,163.000 160.354,163.378 159.778 C 163.755 159.202,163.984 158.651,163.886 158.553 C 163.788 158.455,163.400 158.846,163.022 159.422 M274.986 161.500 C 275.335 162.215,275.706 162.800,275.810 162.800 C 276.208 162.800,275.952 162.163,275.167 161.200 L 274.352 160.200 274.986 161.500 M276.017 163.500 C 276.026 163.665,276.378 164.430,276.800 165.200 C 277.721 166.882,277.865 166.255,276.971 164.461 C 276.367 163.252,275.981 162.863,276.017 163.500 M278.313 168.619 C 278.684 169.620,279.039 170.282,279.103 170.091 C 279.231 169.706,278.093 166.800,277.814 166.800 C 277.717 166.800,277.942 167.619,278.313 168.619 M157.867 170.267 C 157.720 170.413,157.611 170.908,157.625 171.367 C 157.649 172.133,157.682 172.123,158.034 171.242 C 158.426 170.263,158.344 169.789,157.867 170.267 M279.200 170.962 C 279.200 171.078,279.453 171.943,279.763 172.886 C 280.916 176.394,281.970 181.490,282.083 184.100 C 282.148 185.582,282.356 186.795,282.547 186.797 C 283.180 186.803,282.127 178.997,281.155 176.481 C 280.960 175.976,280.800 175.131,280.800 174.605 C 280.800 174.078,280.620 173.536,280.400 173.400 C 280.180 173.264,280.000 172.724,280.000 172.200 C 280.000 171.676,279.820 171.136,279.600 171.000 C 279.380 170.864,279.200 170.847,279.200 170.962 M223.200 171.600 C 223.530 171.813,224.160 171.978,224.600 171.966 L 225.400 171.944 224.600 171.600 C 223.404 171.086,222.405 171.086,223.200 171.600 M157.067 172.667 C 156.920 172.813,156.811 173.308,156.825 173.767 C 156.849 174.533,156.882 174.523,157.234 173.642 C 157.626 172.663,157.544 172.189,157.067 172.667 M156.267 175.467 C 156.120 175.613,156.015 176.198,156.034 176.767 C 156.068 177.781,156.075 177.779,156.421 176.620 C 156.785 175.403,156.731 175.002,156.267 175.467 M231.600 175.339 C 231.600 175.511,232.150 176.114,232.822 176.680 C 234.053 177.716,236.642 181.350,237.467 183.200 C 238.906 186.427,239.183 186.945,239.191 186.429 C 239.215 184.913,235.941 179.287,233.828 177.214 C 232.603 176.011,231.600 175.168,231.600 175.339 M203.600 177.000 C 202.854 177.770,202.374 178.400,202.535 178.400 C 202.695 178.400,203.457 177.770,204.227 177.000 C 204.997 176.230,205.476 175.600,205.292 175.600 C 205.108 175.600,204.346 176.230,203.600 177.000 M155.449 179.015 C 155.312 179.373,155.220 180.236,155.244 180.933 C 155.282 182.037,155.333 181.971,155.636 180.425 C 155.993 178.605,155.894 177.857,155.449 179.015 M201.507 179.500 C 200.114 181.080,197.460 187.181,198.426 186.584 C 198.632 186.457,198.800 186.087,198.800 185.763 C 198.800 185.072,200.562 181.483,201.679 179.900 C 202.549 178.666,202.449 178.432,201.507 179.500 M215.738 181.506 C 215.484 181.668,216.862 181.800,218.800 181.800 C 220.738 181.800,222.116 181.668,221.862 181.506 C 221.608 181.344,220.230 181.212,218.800 181.212 C 217.370 181.212,215.992 181.344,215.738 181.506 M213.400 182.464 C 211.999 183.235,209.568 185.758,209.031 187.000 C 207.796 189.858,207.600 190.510,207.600 191.759 C 207.600 196.332,212.252 202.450,215.684 202.391 C 215.968 202.386,215.390 202.015,214.400 201.566 C 206.800 198.121,206.000 187.982,212.958 183.300 C 214.807 182.056,215.080 181.541,213.400 182.464 M222.800 182.190 C 222.800 182.294,223.299 182.637,223.908 182.953 C 230.217 186.215,230.860 195.263,225.131 200.166 C 224.210 200.955,223.647 201.600,223.880 201.600 C 226.816 201.600,230.365 193.519,229.248 189.376 C 228.422 186.311,222.800 180.045,222.800 182.190 M154.643 183.433 C 154.299 184.329,154.341 186.801,154.700 186.797 C 154.865 186.796,155.043 185.896,155.097 184.797 C 155.196 182.735,155.063 182.336,154.643 183.433 M217.507 202.690 C 218.226 202.779,219.306 202.777,219.907 202.686 C 220.508 202.595,219.920 202.522,218.600 202.524 C 217.280 202.526,216.788 202.601,217.507 202.690 M146.204 240.576 C 149.267 241.856,149.197 241.310,149.197 264.000 C 149.197 283.059,149.155 284.270,148.446 285.432 C 146.471 288.670,141.529 288.670,139.554 285.432 C 138.347 283.452,138.397 244.466,139.609 242.477 C 140.961 240.260,143.616 239.495,146.204 240.576 M295.585 240.592 C 298.545 242.123,298.400 240.920,298.400 263.892 C 298.400 284.310,298.393 284.486,297.541 285.684 C 295.613 288.391,291.933 288.607,289.553 286.152 L 288.200 284.756 288.200 264.239 C 288.200 241.621,288.117 242.386,290.737 240.867 C 292.465 239.864,294.008 239.777,295.585 240.592 M130.237 246.018 C 133.189 247.447,133.200 247.512,133.200 264.000 C 133.200 280.581,133.206 280.545,130.128 282.035 C 127.846 283.140,125.869 282.668,124.037 280.581 L 122.800 279.172 122.800 264.017 L 122.800 248.861 123.880 247.578 C 125.846 245.241,127.695 244.787,130.237 246.018 M162.237 246.018 C 165.189 247.447,165.200 247.512,165.200 264.000 C 165.200 280.581,165.206 280.545,162.128 282.035 C 159.846 283.140,157.869 282.668,156.037 280.581 L 154.800 279.172 154.800 264.017 L 154.800 248.861 155.880 247.578 C 157.846 245.241,159.695 244.787,162.237 246.018 M278.840 245.657 C 280.629 246.257,281.542 247.087,282.233 248.741 C 282.969 250.503,283.066 276.685,282.345 278.840 C 280.871 283.239,275.523 283.920,272.914 280.041 C 271.483 277.914,271.478 250.099,272.908 247.959 C 274.421 245.694,276.522 244.878,278.840 245.657 M310.839 245.659 C 314.587 246.782,314.800 247.768,314.800 264.000 C 314.800 273.018,314.649 277.931,314.345 278.840 C 312.765 283.558,306.859 283.968,304.559 279.521 C 303.460 277.396,303.767 249.668,304.908 247.959 C 306.428 245.684,308.387 244.924,310.839 245.659 M95.843 304.232 C 95.709 304.580,95.635 306.606,95.678 308.733 L 95.757 312.600 95.978 308.400 L 96.200 304.200 218.747 304.099 L 341.294 303.999 341.135 310.593 C 341.047 314.219,341.121 316.927,341.298 316.610 C 341.476 316.293,341.571 313.281,341.511 309.917 L 341.400 303.800 218.743 303.699 C 107.154 303.608,96.064 303.656,95.843 304.232 M96.074 315.800 C 96.064 316.680,96.211 317.760,96.400 318.200 L 96.744 319.000 96.749 318.200 C 96.752 317.760,96.605 316.680,96.423 315.800 L 96.092 314.200 96.074 315.800 M340.454 318.000 C 340.419 318.330,340.277 319.050,340.140 319.600 C 339.948 320.372,340.002 320.497,340.377 320.149 C 340.644 319.901,340.785 319.181,340.691 318.549 C 340.597 317.917,340.490 317.670,340.454 318.000 M96.827 319.651 C 96.737 321.829,100.508 328.568,103.855 332.210 C 105.217 333.692,109.216 336.917,109.429 336.705 C 109.544 336.590,108.774 335.862,107.719 335.086 C 103.816 332.219,100.147 327.421,98.421 322.927 C 96.967 319.140,96.858 318.915,96.827 319.651 M339.113 322.581 C 338.742 323.581,338.511 324.400,338.600 324.400 C 338.919 324.400,340.074 321.622,339.932 321.196 C 339.852 320.957,339.484 321.580,339.113 322.581 M336.366 327.879 C 335.022 330.089,330.577 334.603,328.318 336.053 C 327.246 336.740,326.454 337.387,326.557 337.490 C 326.889 337.823,330.539 335.102,332.820 332.820 C 335.120 330.521,337.822 326.889,337.484 326.551 C 337.378 326.445,336.875 327.042,336.366 327.879 M110.007 337.104 C 110.016 337.466,113.964 339.369,114.205 339.128 C 114.300 339.033,113.393 338.473,112.189 337.882 C 110.985 337.292,110.003 336.942,110.007 337.104 M322.400 339.200 C 321.410 339.615,320.887 339.965,321.239 339.978 C 321.888 340.000,324.400 338.882,324.400 338.571 C 324.400 338.351,324.494 338.321,322.400 339.200 M115.000 339.600 C 115.136 339.820,115.586 340.000,116.000 340.000 C 116.414 340.000,116.864 340.180,117.000 340.400 C 117.136 340.620,117.822 340.790,118.524 340.778 C 119.596 340.760,119.417 340.634,117.400 339.984 C 114.574 339.075,114.686 339.093,115.000 339.600 M318.400 340.400 C 317.445 340.706,317.457 340.722,318.676 340.760 C 319.378 340.782,320.064 340.620,320.200 340.400 C 320.484 339.940,319.836 339.940,318.400 340.400 M120.538 341.294 C 120.792 341.456,164.920 341.588,218.600 341.588 C 272.280 341.588,316.408 341.456,316.662 341.294 C 316.916 341.132,272.788 341.000,218.600 341.000 C 164.412 341.000,120.284 341.132,120.538 341.294 " stroke="none" fill="#6b4b5b" fill-rule="evenodd"></path><path id="path2" d="M88.000 47.502 C 88.000 47.669,87.460 48.044,86.800 48.336 C 86.069 48.659,85.600 49.167,85.600 49.634 C 85.600 50.055,85.420 50.400,85.200 50.400 C 84.971 50.400,84.800 51.619,84.800 53.256 L 84.800 56.112 87.200 58.431 C 88.520 59.707,89.600 60.952,89.600 61.198 C 89.600 61.443,88.520 62.704,87.200 64.000 L 84.800 66.356 84.800 69.378 C 84.800 71.126,84.969 72.400,85.200 72.400 C 85.420 72.400,85.600 72.593,85.600 72.829 C 85.600 75.983,91.657 75.719,94.800 72.429 C 98.283 68.783,99.180 68.680,102.064 71.600 C 107.593 77.198,115.121 71.713,109.959 65.848 C 108.659 64.372,108.369 63.777,108.566 62.992 C 108.709 62.422,108.642 62.000,108.408 62.000 C 107.449 62.000,108.140 60.611,110.000 58.800 C 111.100 57.729,112.000 56.570,112.000 56.226 C 112.000 55.882,112.180 55.600,112.400 55.600 C 112.620 55.600,112.800 54.610,112.800 53.400 C 112.800 52.190,112.620 51.200,112.400 51.200 C 112.180 51.200,112.000 50.922,112.000 50.582 C 112.000 49.885,110.566 48.331,109.296 47.651 C 108.253 47.093,104.400 47.053,104.400 47.600 C 104.400 47.820,104.118 48.000,103.774 48.000 C 103.430 48.000,102.271 48.900,101.200 50.000 C 100.129 51.100,99.049 52.000,98.800 52.000 C 98.551 52.000,97.471 51.100,96.400 50.000 C 95.329 48.900,94.170 48.000,93.826 48.000 C 93.482 48.000,93.200 47.820,93.200 47.600 C 93.200 47.374,92.067 47.200,90.600 47.200 C 89.170 47.200,88.000 47.336,88.000 47.502 M191.600 90.857 C 125.551 91.114,118.254 91.230,117.420 92.034 C 117.211 92.235,116.457 92.400,115.744 92.400 C 115.031 92.400,114.336 92.580,114.200 92.800 C 114.064 93.020,113.601 93.200,113.171 93.200 C 112.741 93.200,112.077 93.364,111.695 93.565 C 111.313 93.766,110.010 94.403,108.800 94.981 C 102.611 97.936,96.802 102.713,93.510 107.551 C 92.819 108.568,92.151 109.490,92.026 109.600 C 91.286 110.254,88.762 115.615,87.799 118.579 C 85.948 124.275,86.000 122.185,86.000 190.439 C 86.000 247.302,85.930 254.852,85.400 255.055 C 84.668 255.336,84.468 319.200,85.200 319.200 C 85.420 319.200,85.600 319.909,85.600 320.776 C 85.600 321.643,85.780 322.464,86.000 322.600 C 86.220 322.736,86.400 323.362,86.400 323.990 C 86.400 324.619,86.578 325.193,86.797 325.267 C 87.015 325.340,87.233 325.882,87.281 326.471 C 87.330 327.060,87.512 327.455,87.685 327.348 C 87.858 327.240,88.000 327.613,88.000 328.176 C 88.000 328.739,88.180 329.200,88.400 329.200 C 88.620 329.200,88.800 329.560,88.800 330.000 C 88.800 330.440,88.980 330.800,89.200 330.800 C 89.420 330.800,89.600 331.120,89.600 331.512 C 89.600 331.903,89.960 332.483,90.400 332.800 C 90.840 333.117,91.200 333.594,91.200 333.861 C 91.200 334.744,92.973 337.231,95.098 339.329 C 99.354 343.531,100.794 344.800,101.302 344.800 C 101.589 344.800,102.083 345.160,102.400 345.600 C 102.717 346.040,103.297 346.400,103.688 346.400 C 104.080 346.400,104.400 346.580,104.400 346.800 C 104.400 347.020,104.681 347.200,105.024 347.200 C 105.393 347.200,105.531 347.388,105.362 347.662 C 105.193 347.936,105.251 348.015,105.506 347.858 C 105.742 347.712,106.179 347.819,106.477 348.096 C 106.775 348.373,107.285 348.659,107.610 348.730 C 107.934 348.802,108.260 349.027,108.333 349.230 C 108.407 349.434,108.902 349.600,109.433 349.600 C 109.965 349.600,110.400 349.780,110.400 350.000 C 110.400 350.220,110.839 350.400,111.376 350.400 C 111.913 350.400,112.464 350.580,112.600 350.800 C 112.736 351.020,113.377 351.200,114.024 351.200 C 114.671 351.200,115.200 351.380,115.200 351.600 C 115.200 351.820,116.179 352.000,117.376 352.000 C 118.573 352.000,119.664 352.180,119.800 352.400 C 119.964 352.665,153.404 352.800,218.824 352.800 C 284.408 352.800,317.600 352.666,317.600 352.400 C 317.600 352.180,318.590 352.000,319.800 352.000 C 321.010 352.000,322.000 351.820,322.000 351.600 C 322.000 351.380,322.540 351.200,323.200 351.200 C 323.860 351.200,324.400 351.020,324.400 350.800 C 324.400 350.580,324.940 350.400,325.600 350.400 C 326.260 350.400,326.800 350.220,326.800 350.000 C 326.800 349.780,327.160 349.600,327.600 349.600 C 328.040 349.600,328.400 349.420,328.400 349.200 C 328.400 348.980,328.634 348.800,328.920 348.800 C 329.656 348.800,331.593 347.859,331.597 347.500 C 331.599 347.335,331.960 347.200,332.400 347.200 C 332.840 347.200,333.200 347.020,333.200 346.800 C 333.200 346.580,333.472 346.400,333.804 346.400 C 334.136 346.400,334.972 345.860,335.663 345.200 C 336.354 344.540,337.083 344.000,337.284 344.000 C 337.760 344.000,344.000 337.760,344.000 337.284 C 344.000 337.083,344.540 336.354,345.200 335.663 C 345.860 334.972,346.400 334.136,346.400 333.804 C 346.400 333.472,346.580 333.200,346.800 333.200 C 347.020 333.200,347.200 332.840,347.200 332.400 C 347.200 331.960,347.335 331.599,347.500 331.597 C 347.859 331.593,348.800 329.656,348.800 328.920 C 348.800 328.634,348.980 328.400,349.200 328.400 C 349.420 328.400,349.600 328.040,349.600 327.600 C 349.600 327.160,349.780 326.800,350.000 326.800 C 350.220 326.800,350.400 326.260,350.400 325.600 C 350.400 324.940,350.580 324.400,350.800 324.400 C 351.020 324.400,351.200 323.860,351.200 323.200 C 351.200 322.540,351.380 322.000,351.600 322.000 C 351.820 322.000,352.000 321.010,352.000 319.800 C 352.000 318.590,352.180 317.600,352.400 317.600 C 352.955 317.600,352.955 125.343,352.400 125.000 C 352.180 124.864,352.000 123.863,352.000 122.776 C 352.000 121.689,351.820 120.800,351.600 120.800 C 351.380 120.800,351.200 120.181,351.200 119.424 C 351.200 118.667,351.020 117.936,350.800 117.800 C 350.580 117.664,350.400 117.203,350.400 116.776 C 350.400 116.349,350.220 116.000,350.000 116.000 C 349.780 116.000,349.600 115.561,349.600 115.024 C 349.600 114.487,349.420 113.936,349.200 113.800 C 348.980 113.664,348.800 113.203,348.800 112.776 C 348.800 112.349,348.620 112.000,348.400 112.000 C 348.180 112.000,348.000 111.764,348.000 111.475 C 348.000 111.187,347.640 110.564,347.200 110.092 C 346.760 109.620,346.400 109.046,346.400 108.817 C 346.400 108.588,346.220 108.400,346.000 108.400 C 345.780 108.400,345.600 108.162,345.600 107.871 C 345.600 107.580,344.700 106.378,343.600 105.200 C 342.500 104.022,341.600 102.863,341.600 102.624 C 341.600 102.385,341.122 101.832,340.538 101.395 C 339.955 100.958,338.666 99.835,337.675 98.900 C 336.684 97.965,335.714 97.200,335.520 97.200 C 335.325 97.200,334.780 96.840,334.308 96.400 C 333.836 95.960,333.213 95.600,332.925 95.600 C 332.636 95.600,332.400 95.420,332.400 95.200 C 332.400 94.980,332.040 94.800,331.600 94.800 C 331.160 94.800,330.800 94.620,330.800 94.400 C 330.800 94.180,330.440 94.000,330.000 94.000 C 329.560 94.000,329.200 93.820,329.200 93.600 C 329.200 93.380,328.851 93.200,328.424 93.200 C 327.997 93.200,327.549 93.041,327.429 92.846 C 327.308 92.652,326.402 92.371,325.414 92.223 C 324.427 92.075,323.514 91.784,323.386 91.577 C 323.258 91.370,322.443 91.200,321.576 91.200 C 320.709 91.200,320.000 91.020,320.000 90.800 C 320.000 90.377,314.620 90.380,191.600 90.857 M63.000 95.200 C 62.864 95.420,62.335 95.600,61.824 95.600 C 59.092 95.600,57.236 101.407,58.841 104.931 C 59.526 106.435,63.600 108.431,63.600 107.263 C 63.600 107.077,64.432 106.498,65.448 105.975 C 69.861 103.705,70.481 95.600,66.242 95.600 C 65.695 95.600,65.136 95.420,65.000 95.200 C 64.864 94.980,64.414 94.800,64.000 94.800 C 63.586 94.800,63.136 94.980,63.000 95.200 M317.840 101.953 C 318.478 102.148,319.810 102.537,320.800 102.820 C 329.410 105.273,337.051 113.114,340.269 122.800 C 340.966 124.899,341.005 128.875,341.105 209.100 L 341.211 293.200 218.605 293.200 L 96.000 293.200 96.000 210.626 C 96.000 120.702,95.877 125.714,98.233 119.828 C 101.377 111.975,108.442 105.379,116.400 102.866 C 117.170 102.622,118.340 102.252,119.000 102.043 C 120.552 101.552,316.231 101.463,317.840 101.953 M210.800 117.822 C 173.605 122.387,146.045 151.462,144.191 188.094 C 143.702 197.758,141.962 197.199,172.526 197.199 C 196.280 197.200,198.400 197.302,198.400 198.439 C 198.400 199.881,201.237 204.483,203.583 206.846 C 214.033 217.374,231.330 214.514,237.698 201.205 C 238.594 199.332,239.404 197.710,239.497 197.600 C 239.590 197.490,251.078 197.310,265.026 197.200 L 290.385 197.000 291.693 195.688 L 293.000 194.375 292.932 188.488 C 292.736 171.671,285.849 155.186,272.991 140.757 C 272.325 140.011,270.435 138.230,268.791 136.800 C 267.146 135.370,265.710 134.110,265.600 134.000 C 260.594 128.994,245.979 121.691,236.800 119.608 C 226.524 117.277,219.294 116.780,210.800 117.822 M213.609 133.500 C 213.623 142.692,217.183 146.454,221.835 142.194 L 223.370 140.787 223.534 134.362 L 223.697 127.936 226.149 128.132 C 233.287 128.704,241.692 131.256,248.400 134.889 C 250.050 135.782,251.804 136.713,252.297 136.957 C 252.790 137.201,253.195 137.535,253.197 137.700 C 253.199 137.865,253.436 138.000,253.725 138.000 C 254.013 138.000,254.598 138.320,255.025 138.711 C 255.451 139.102,256.430 139.858,257.200 140.392 C 257.970 140.926,259.003 141.819,259.496 142.378 L 260.392 143.394 256.440 147.397 C 250.997 152.909,250.205 155.288,252.979 157.792 C 255.953 160.477,257.866 159.778,263.629 153.905 C 267.973 149.477,267.538 149.376,271.891 155.824 C 275.124 160.614,279.200 168.616,279.200 170.172 C 279.200 170.491,279.380 170.864,279.600 171.000 C 279.820 171.136,280.000 171.676,280.000 172.200 C 280.000 172.724,280.180 173.264,280.400 173.400 C 280.620 173.536,280.800 174.078,280.800 174.605 C 280.800 175.131,280.960 175.976,281.155 176.481 C 281.720 177.943,282.345 181.175,282.630 184.100 L 282.893 186.800 260.944 186.800 L 238.995 186.800 238.464 185.500 C 235.670 178.662,231.724 174.581,225.800 172.405 C 223.203 171.451,221.845 171.200,219.273 171.200 L 216.403 171.200 210.856 160.100 C 201.744 141.871,201.193 140.849,200.001 140.000 C 196.975 137.846,192.400 140.190,192.400 143.895 C 192.400 144.523,195.401 151.045,199.351 159.000 C 203.174 166.700,206.413 173.326,206.548 173.725 C 206.728 174.256,206.114 175.130,204.254 176.990 C 201.975 179.269,199.413 183.420,198.630 186.100 C 198.438 186.756,197.030 186.800,176.372 186.800 L 154.319 186.800 154.541 185.100 C 154.663 184.165,154.958 182.320,155.197 181.000 C 155.436 179.680,155.733 177.924,155.858 177.097 C 155.983 176.271,156.245 175.495,156.442 175.374 C 156.639 175.252,156.800 174.634,156.800 174.000 C 156.800 173.366,156.980 172.736,157.200 172.600 C 157.420 172.464,157.600 172.001,157.600 171.571 C 157.600 171.141,157.759 170.477,157.953 170.095 C 158.148 169.713,158.486 168.950,158.705 168.400 C 161.422 161.586,168.433 150.400,169.986 150.400 C 170.138 150.400,171.778 151.982,173.631 153.916 C 177.908 158.380,179.077 159.200,181.162 159.200 C 182.063 159.200,182.800 159.020,182.800 158.800 C 182.800 158.580,183.058 158.400,183.373 158.400 C 184.423 158.400,185.600 156.200,185.600 154.239 C 185.600 152.201,185.108 151.519,179.900 146.329 C 176.770 143.210,176.796 143.296,178.516 141.731 C 184.010 136.732,195.907 130.952,204.200 129.255 C 205.300 129.030,206.920 128.678,207.800 128.473 C 208.680 128.269,210.345 128.078,211.500 128.051 L 213.600 128.000 213.609 133.500 M223.062 182.071 C 230.090 185.375,231.676 194.297,226.208 199.766 C 219.570 206.403,207.600 201.253,207.600 191.759 C 207.600 190.510,207.796 189.858,209.031 187.000 C 211.054 182.319,218.228 179.799,223.062 182.071 M141.708 240.593 C 138.742 241.883,138.803 241.388,138.803 264.000 C 138.803 283.059,138.845 284.270,139.554 285.432 C 141.529 288.670,146.471 288.670,148.446 285.432 C 149.654 283.451,149.603 244.466,148.390 242.476 C 147.046 240.272,144.255 239.486,141.708 240.593 M290.737 240.867 C 288.117 242.386,288.200 241.621,288.200 264.239 L 288.200 284.756 289.553 286.152 C 291.933 288.607,295.613 288.391,297.541 285.684 C 298.873 283.813,298.895 243.937,297.565 242.246 C 295.760 239.952,293.205 239.436,290.737 240.867 M126.180 245.763 C 125.509 246.055,124.474 246.872,123.880 247.578 L 122.800 248.861 122.800 264.017 L 122.800 279.172 124.037 280.581 C 126.597 283.497,131.005 283.104,132.563 279.822 C 133.517 277.811,133.517 250.189,132.563 248.178 C 131.481 245.898,128.478 244.762,126.180 245.763 M158.180 245.763 C 157.509 246.055,156.474 246.872,155.880 247.578 L 154.800 248.861 154.800 264.017 L 154.800 279.172 156.037 280.581 C 158.597 283.497,163.005 283.104,164.563 279.822 C 165.517 277.811,165.517 250.189,164.563 248.178 C 163.481 245.898,160.478 244.762,158.180 245.763 M275.208 245.901 C 271.991 247.517,272.000 247.466,272.000 264.000 C 272.000 278.629,272.003 278.687,272.914 280.041 C 275.523 283.920,280.871 283.239,282.345 278.840 C 283.066 276.685,282.969 250.503,282.233 248.741 C 280.996 245.780,277.922 244.537,275.208 245.901 M307.208 245.901 C 303.994 247.515,304.000 247.482,304.000 263.879 C 304.000 279.218,304.050 279.690,305.859 281.235 C 308.913 283.844,313.061 282.674,314.345 278.840 C 314.649 277.931,314.800 273.018,314.800 264.000 C 314.800 247.768,314.587 246.782,310.839 245.659 C 308.876 245.071,308.857 245.072,307.208 245.901 M341.345 310.200 C 341.289 316.768,340.987 319.837,340.358 320.226 C 340.161 320.348,340.000 320.791,340.000 321.211 C 340.000 321.632,339.640 322.617,339.200 323.400 C 338.760 324.183,338.400 325.089,338.400 325.412 C 338.400 325.735,338.264 326.000,338.098 326.000 C 337.931 326.000,337.572 326.504,337.300 327.120 C 335.987 330.084,328.258 337.583,326.500 337.596 C 326.225 337.598,326.000 337.780,326.000 338.000 C 326.000 338.220,325.735 338.400,325.412 338.400 C 325.089 338.400,324.183 338.760,323.400 339.200 C 322.617 339.640,321.632 340.000,321.211 340.000 C 320.791 340.000,320.348 340.161,320.226 340.358 C 320.105 340.555,319.239 340.851,318.303 341.018 C 316.082 341.412,121.033 341.439,119.200 341.046 C 118.430 340.881,117.440 340.602,117.000 340.426 C 114.642 339.485,114.034 339.222,112.200 338.351 C 111.100 337.828,110.140 337.265,110.067 337.100 C 109.993 336.935,109.743 336.800,109.510 336.800 C 109.069 336.800,105.151 333.620,103.855 332.210 C 100.233 328.269,97.946 324.103,96.582 318.959 C 95.960 316.613,95.356 306.225,95.751 304.653 L 96.016 303.599 218.708 303.699 L 341.400 303.800 341.345 310.200 " stroke="none" fill="#4c241c" fill-rule="evenodd"></path><path id="path3" d="M215.099 182.146 C 204.163 186.226,206.991 202.349,218.651 202.391 C 231.946 202.439,232.676 182.392,219.403 181.727 C 217.649 181.639,216.038 181.796,215.099 182.146 " stroke="none" fill="#e36353" fill-rule="evenodd"></path><path id="path4" d="M109.200 64.219 C 109.200 64.370,109.740 65.109,110.400 65.861 C 111.921 67.593,112.083 70.545,110.767 72.538 L 109.934 73.800 110.965 72.600 C 112.353 70.984,112.423 67.856,111.109 66.154 C 109.913 64.607,109.200 63.884,109.200 64.219 M100.990 71.590 C 103.261 73.895,104.975 74.819,106.860 74.754 C 108.241 74.706,108.035 74.621,105.554 74.219 C 104.523 74.051,103.459 73.355,101.845 71.792 C 99.019 69.055,98.333 68.893,100.990 71.590 M94.094 73.212 C 93.375 73.865,92.937 74.400,93.119 74.400 C 93.301 74.400,93.968 73.860,94.600 73.200 C 96.070 71.665,95.786 71.672,94.094 73.212 M156.132 90.700 C 175.234 90.757,206.374 90.757,225.332 90.700 C 244.289 90.643,228.660 90.596,190.600 90.596 C 152.540 90.596,137.029 90.643,156.132 90.700 M115.400 91.763 C 112.642 92.553,110.739 93.273,110.923 93.457 C 111.021 93.554,111.798 93.374,112.650 93.057 C 114.028 92.544,116.223 91.954,118.600 91.459 C 119.054 91.365,118.881 91.295,118.200 91.299 C 117.540 91.302,116.280 91.511,115.400 91.763 M107.600 94.724 C 102.950 97.047,96.406 102.292,94.329 105.361 C 93.868 106.042,94.507 105.492,95.750 104.138 C 98.697 100.929,103.180 97.521,107.299 95.357 C 110.906 93.463,111.149 92.951,107.600 94.724 M69.150 101.130 C 68.894 103.414,67.908 105.099,66.361 105.894 C 65.701 106.233,65.606 106.390,66.059 106.394 C 67.739 106.409,69.774 102.863,69.524 100.355 C 69.412 99.227,69.349 99.357,69.150 101.130 M92.275 108.100 C 90.821 110.058,88.132 115.200,88.563 115.200 C 88.638 115.200,89.370 113.895,90.189 112.300 C 91.007 110.705,92.119 108.815,92.659 108.100 C 93.199 107.385,93.551 106.800,93.441 106.800 C 93.331 106.800,92.806 107.385,92.275 108.100 M86.229 121.429 C 86.081 122.015,86.051 122.584,86.161 122.694 C 86.271 122.804,86.481 122.415,86.629 121.829 C 86.776 121.242,86.806 120.673,86.696 120.563 C 86.586 120.453,86.376 120.842,86.229 121.429 M85.468 125.759 C 85.320 126.833,85.224 128.452,85.253 129.356 C 85.286 130.379,85.435 129.792,85.648 127.800 C 86.027 124.250,85.889 122.687,85.468 125.759 M210.000 128.447 C 204.356 129.349,199.829 130.559,195.200 132.405 C 193.990 132.887,192.570 133.448,192.045 133.652 C 191.519 133.856,191.177 134.111,191.285 134.219 C 191.393 134.327,192.723 133.889,194.241 133.246 C 199.685 130.940,210.983 128.210,212.930 128.732 C 213.111 128.780,213.145 128.635,213.006 128.410 C 212.867 128.184,212.628 128.021,212.476 128.048 C 212.324 128.074,211.210 128.253,210.000 128.447 M224.271 128.262 C 224.122 128.411,224.000 130.978,223.999 133.967 C 223.999 139.945,223.591 141.417,221.515 142.938 C 219.001 144.782,214.669 143.335,213.707 140.330 C 213.442 139.500,213.266 139.291,213.241 139.775 C 213.126 141.950,215.812 144.133,218.600 144.133 C 223.075 144.133,224.400 141.852,224.400 134.144 L 224.400 128.558 227.820 129.057 C 231.573 129.605,236.515 130.812,239.940 132.015 C 241.152 132.441,242.227 132.706,242.329 132.604 C 242.431 132.502,242.264 132.338,241.957 132.238 C 236.073 130.332,234.836 129.974,231.600 129.245 C 230.610 129.021,228.900 128.730,227.800 128.597 C 226.700 128.463,225.517 128.273,225.171 128.173 C 224.825 128.073,224.420 128.113,224.271 128.262 M244.138 133.647 C 244.984 134.093,245.768 134.365,245.881 134.252 C 246.076 134.057,243.380 132.780,242.851 132.818 C 242.713 132.827,243.292 133.200,244.138 133.647 M246.400 134.571 C 246.400 134.847,248.914 136.020,249.102 135.831 C 249.197 135.736,248.727 135.376,248.057 135.029 C 246.809 134.384,246.400 134.271,246.400 134.571 M186.338 136.748 C 183.223 138.569,178.716 141.737,177.980 142.624 C 177.535 143.160,178.001 143.794,181.287 147.124 C 185.639 151.534,185.995 152.088,186.012 154.474 C 186.022 155.915,186.096 156.076,186.460 155.449 C 187.402 153.828,186.190 151.657,181.953 147.378 C 178.053 143.440,177.985 143.340,178.685 142.547 C 179.453 141.677,186.561 136.806,187.085 136.791 C 187.439 136.781,189.516 135.223,189.194 135.209 C 189.080 135.204,187.795 135.897,186.338 136.748 M249.600 136.137 C 249.600 136.377,252.741 138.402,253.091 138.387 C 253.261 138.380,253.040 138.097,252.600 137.757 C 251.644 137.018,249.600 135.915,249.600 136.137 M194.887 139.065 C 193.311 139.842,191.872 141.737,192.125 142.702 C 192.266 143.242,192.318 143.204,192.354 142.531 C 192.469 140.372,196.024 138.390,198.718 138.982 C 200.722 139.422,201.568 140.790,209.200 155.925 L 216.600 170.600 220.000 170.896 C 225.715 171.394,229.386 173.062,233.800 177.168 C 235.120 178.395,235.846 178.950,235.414 178.400 C 233.778 176.318,230.915 173.994,228.600 172.869 C 224.678 170.964,224.094 170.798,220.357 170.533 L 216.781 170.279 210.310 157.239 C 200.482 137.433,199.808 136.640,194.887 139.065 M254.162 139.142 C 254.581 139.614,255.087 140.000,255.286 140.000 C 255.849 140.000,255.250 139.254,254.278 138.744 C 253.406 138.287,253.405 138.290,254.162 139.142 M256.000 140.366 C 256.000 140.605,256.142 140.800,256.315 140.800 C 256.488 140.800,257.253 141.328,258.015 141.973 L 259.400 143.146 255.544 147.073 C 251.245 151.451,250.800 152.119,250.800 154.194 C 250.800 156.982,252.776 159.262,255.600 159.735 L 257.000 159.969 255.600 159.480 C 249.611 157.392,249.619 153.801,255.627 147.773 C 258.209 145.182,259.632 143.461,259.493 143.099 C 259.195 142.320,256.000 139.822,256.000 140.366 M168.949 151.700 C 168.514 152.195,167.421 153.590,166.519 154.800 C 162.930 159.617,156.632 172.492,158.400 171.400 C 158.620 171.264,158.800 170.891,158.800 170.572 C 158.800 170.012,159.545 168.193,161.327 164.400 C 162.634 161.620,165.518 156.883,167.732 153.882 L 169.736 151.164 171.668 153.067 C 172.731 154.114,173.600 154.837,173.600 154.674 C 173.600 154.385,170.158 150.800,169.880 150.800 C 169.803 150.800,169.384 151.205,168.949 151.700 M263.169 154.973 C 260.835 157.263,258.503 159.208,257.969 159.309 C 257.004 159.490,257.004 159.491,257.925 159.546 C 258.594 159.585,259.989 158.492,262.961 155.600 C 267.845 150.849,267.478 150.918,269.866 154.300 C 270.915 155.785,271.869 157.090,271.986 157.200 C 272.375 157.564,273.645 159.788,273.871 160.500 C 273.993 160.885,274.260 161.200,274.464 161.200 C 275.293 161.200,268.450 150.858,267.600 150.827 C 267.490 150.822,265.496 152.688,263.169 154.973 M174.000 154.948 C 174.000 155.667,178.550 159.599,179.354 159.575 C 180.122 159.552,180.108 159.513,179.200 159.155 C 178.650 158.938,177.255 157.830,176.100 156.694 C 174.945 155.557,174.000 154.772,174.000 154.948 M184.878 157.580 C 184.338 158.311,183.298 158.975,182.107 159.351 C 180.209 159.950,180.208 159.952,181.800 159.732 C 183.319 159.523,186.483 157.150,185.952 156.618 C 185.837 156.504,185.354 156.936,184.878 157.580 M198.400 158.597 C 198.400 158.706,200.137 162.274,202.259 166.526 L 206.119 174.257 203.999 176.228 C 201.903 178.177,198.940 182.274,199.339 182.672 C 199.452 182.785,199.928 182.126,200.396 181.207 C 200.865 180.288,202.408 178.378,203.824 176.961 C 206.943 173.843,207.114 175.320,202.565 166.139 C 199.150 159.249,198.400 157.890,198.400 158.597 M274.800 161.650 C 274.800 161.998,276.037 164.400,276.217 164.400 C 276.304 164.400,276.261 164.085,276.121 163.700 C 275.833 162.906,274.800 161.303,274.800 161.650 M276.418 164.851 C 276.380 165.380,277.657 168.076,277.852 167.881 C 277.965 167.768,277.693 166.984,277.247 166.138 C 276.800 165.292,276.427 164.713,276.418 164.851 M278.000 168.625 C 278.000 169.233,279.327 172.806,279.492 172.641 C 279.699 172.434,278.440 168.400,278.168 168.400 C 278.076 168.400,278.000 168.501,278.000 168.625 M157.044 174.359 C 156.656 175.741,156.434 176.967,156.550 177.083 C 156.666 177.199,156.874 176.778,157.013 176.147 C 157.152 175.516,157.448 174.514,157.673 173.920 C 157.897 173.327,158.006 172.617,157.914 172.343 C 157.823 172.070,157.431 172.977,157.044 174.359 M279.612 173.600 C 279.612 173.930,279.787 174.470,280.000 174.800 C 280.345 175.333,280.388 175.333,280.388 174.800 C 280.388 174.470,280.213 173.930,280.000 173.600 C 279.655 173.067,279.612 173.067,279.612 173.600 M280.434 176.600 C 280.422 177.040,280.587 177.670,280.800 178.000 C 281.314 178.795,281.314 177.796,280.800 176.600 L 280.456 175.800 280.434 176.600 M155.854 179.154 C 155.700 180.118,155.658 180.991,155.761 181.094 C 156.030 181.363,156.515 178.545,156.307 177.922 C 156.212 177.636,156.008 178.190,155.854 179.154 M281.280 180.200 C 281.280 180.860,281.424 181.850,281.600 182.400 C 281.911 183.372,281.920 183.367,281.920 182.200 C 281.920 181.540,281.776 180.550,281.600 180.000 C 281.289 179.028,281.280 179.033,281.280 180.200 M237.930 183.203 C 238.516 184.529,239.050 185.449,239.118 185.246 C 239.262 184.815,237.657 181.283,237.186 180.991 C 237.009 180.882,237.344 181.877,237.930 183.203 M155.108 183.988 C 154.948 185.192,154.959 186.319,155.132 186.492 C 155.957 187.317,198.183 186.640,198.309 185.800 C 198.419 185.069,198.392 185.060,197.995 185.700 C 197.590 186.352,196.130 186.400,176.600 186.400 L 155.640 186.400 155.520 184.100 L 155.400 181.800 155.108 183.988 M282.046 185.307 L 282.000 186.414 260.600 186.307 C 248.830 186.248,239.200 186.335,239.200 186.500 C 239.200 186.665,248.836 186.800,260.613 186.800 C 283.478 186.800,282.782 186.860,282.280 184.923 C 282.158 184.453,282.077 184.587,282.046 185.307 M96.267 304.267 C 95.839 304.695,95.960 313.090,96.435 315.967 C 98.366 327.655,105.726 336.110,117.400 340.054 L 120.200 341.000 217.200 341.110 C 323.294 341.231,317.078 341.356,322.934 338.977 C 334.665 334.210,341.200 323.563,341.200 309.217 L 341.200 304.000 218.867 304.000 C 151.583 304.000,96.413 304.120,96.267 304.267 " stroke="none" fill="#9d8f86" fill-rule="evenodd"></path></g></svg>